999
dxfrw 0.5.11
0
SECTION
2
HEADER
9
$ACADVER
1
AC1021
9
$HANDSEED
5
20000
9
$DWGCODEPAGE
3
ANSI_1252
9
$INSBASE
10
0
20
0
30
0
9
$EXTMIN
10
-5550
20
-1495
30
0
9
$EXTMAX
10
5550
20
1505
30
0
9
$LIMMIN
10
0
20
0
9
$LIMMAX
10
420
20
297
9
$ORTHOMODE
70
0
9
$LTSCALE
40
1
9
$TEXTSTYLE
7
STANDARD
9
$CLAYER
8
99-Temp
9
$DIMASZ
40
0.00820209973753
9
$DIMLFAC
40
1
9
$DIMSCALE
40
1
9
$DIMEXO
40
0.00205052493438
9
$DIMEXE
40
0.00410104986877
9
$DIMTXT
40
0.00820209973753
9
$DIMTSZ
40
0
9
$DIMAUNIT
70
0
9
$DIMADEC
70
0
9
$DIMLUNIT
70
2
9
$DIMSTYLE
2
STANDARD
9
$DIMGAP
40
0.00205052493438
9
$DIMTIH
70
0
9
$LUNITS
70
2
9
$LUPREC
70
4
9
$AUNITS
70
0
9
$AUPREC
70
2
9
$SPLINESEGS
70
8
9
$GRIDMODE
70
1
9
$SNAPSTYLE
70
0
9
$PINSBASE
10
0
20
0
30
0
9
$PLIMMIN
10
0
20
0
9
$PLIMMAX
10
0.00226042118751
20
0.00319688139376
9
$INSUNITS
70
2
9
$PSVPSCALE
40
1
0
ENDSEC
0
SECTION
2
CLASSES
0
ENDSEC
0
SECTION
2
TABLES
0
TABLE
2
VPORT
5
8
330
0
100
AcDbSymbolTable
70
1
0
VPORT
5
31
330
2
100
AcDbSymbolTableRecord
100
AcDbViewportTableRecord
2
*ACTIVE
70
0
10
0
20
0
11
1
21
1
12
1644.85848586
22
141.066686013
13
0
23
0
14
10
24
10
15
10
25
10
16
0
26
0
36
1
17
0
27
0
37
0
40
64.8735535135
41
1.85190615836
42
50
43
0
44
0
50
0
51
0
71
0
72
100
73
1
74
3
75
0
76
1
77
0
78
0
281
0
65
1
110
0
120
0
130
0
111
1
121
0
131
0
112
0
122
1
132
0
79
0
146
0
348
10020
60
7
61
5
292
1
282
1
141
0
142
0
63
250
421
3358443
0
ENDTAB
0
TABLE
2
LTYPE
5
5
330
0
100
AcDbSymbolTable
70
4
0
LTYPE
5
14
330
5
100
AcDbSymbolTableRecord
100
AcDbLinetypeTableRecord
2
ByBlock
70
0
3

72
65
73
0
40
0
0
LTYPE
5
15
330
5
100
AcDbSymbolTableRecord
100
AcDbLinetypeTableRecord
2
ByLayer
70
0
3

72
65
73
0
40
0
0
LTYPE
5
16
330
5
100
AcDbSymbolTableRecord
100
AcDbLinetypeTableRecord
2
Continuous
70
0
3
Solid line
72
65
73
0
40
0
0
LTYPE
5
32
330
5
100
AcDbSymbolTableRecord
100
AcDbLinetypeTableRecord
2
DOT
70
0
3
Dot . . . . . . . . . . . . . . . . . . . . . .
72
65
73
2
40
6.35
49
0
74
0
49
-6.35
74
0
0
LTYPE
5
33
330
5
100
AcDbSymbolTableRecord
100
AcDbLinetypeTableRecord
2
DOT2
70
0
3
Dot (.5x) .....................................
72
65
73
2
40
3.175
49
0
74
0
49
-3.175
74
0
0
LTYPE
5
34
330
5
100
AcDbSymbolTableRecord
100
AcDbLinetypeTableRecord
2
DOTX2
70
0
3
Dot (2x) .  .  .  .  .  .  .  .  .  .  .  .  .
72
65
73
2
40
12.7
49
0
74
0
49
-12.7
74
0
0
LTYPE
5
35
330
5
100
AcDbSymbolTableRecord
100
AcDbLinetypeTableRecord
2
DASHED
70
0
3
Dot . . . . . . . . . . . . . . . . . . . . . .
72
65
73
2
40
19.05
49
12.7
74
0
49
-6.35
74
0
0
LTYPE
5
36
330
5
100
AcDbSymbolTableRecord
100
AcDbLinetypeTableRecord
2
DASHED2
70
0
3
Dashed (.5x) _ _ _ _ _ _ _ _ _ _ _ _ _ _ _ _ _
72
65
73
2
40
9.525
49
6.35
74
0
49
-3.175
74
0
0
LTYPE
5
37
330
5
100
AcDbSymbolTableRecord
100
AcDbLinetypeTableRecord
2
DASHEDX2
70
0
3
Dashed (2x) ____  ____  ____  ____  ____  ___
72
65
73
2
40
38.1
49
25.4
74
0
49
-12.7
74
0
0
LTYPE
5
38
330
5
100
AcDbSymbolTableRecord
100
AcDbLinetypeTableRecord
2
DASHDOT
70
0
3
Dash dot __ . __ . __ . __ . __ . __ . __ . __
72
65
73
4
40
25.4
49
12.7
74
0
49
-6.35
74
0
49
0
74
0
49
-6.35
74
0
0
LTYPE
5
39
330
5
100
AcDbSymbolTableRecord
100
AcDbLinetypeTableRecord
2
DASHDOT2
70
0
3
Dash dot (.5x) _._._._._._._._._._._._._._._.
72
65
73
4
40
12.7
49
6.35
74
0
49
-3.175
74
0
49
0
74
0
49
-3.175
74
0
0
LTYPE
5
3A
330
5
100
AcDbSymbolTableRecord
100
AcDbLinetypeTableRecord
2
DASHDOTX2
70
0
3
Dash dot (2x) ____  .  ____  .  ____  .  ___
72
65
73
4
40
50.8
49
25.4
74
0
49
-12.7
74
0
49
0
74
0
49
-12.7
74
0
0
LTYPE
5
3B
330
5
100
AcDbSymbolTableRecord
100
AcDbLinetypeTableRecord
2
DIVIDE
70
0
3
Divide ____ . . ____ . . ____ . . ____ . . ____
72
65
73
6
40
31.75
49
12.7
74
0
49
-6.35
74
0
49
0
74
0
49
-6.35
74
0
49
0
74
0
49
-6.35
74
0
0
LTYPE
5
3C
330
5
100
AcDbSymbolTableRecord
100
AcDbLinetypeTableRecord
2
DIVIDE2
70
0
3
Divide (.5x) __..__..__..__..__..__..__..__.._
72
65
73
6
40
15.875
49
6.35
74
0
49
-3.175
74
0
49
0
74
0
49
-3.175
74
0
49
0
74
0
49
-3.175
74
0
0
LTYPE
5
3D
330
5
100
AcDbSymbolTableRecord
100
AcDbLinetypeTableRecord
2
DIVIDEX2
70
0
3
Divide (2x) ________  .  .  ________  .  .  _
72
65
73
6
40
63.5
49
25.4
74
0
49
-12.7
74
0
49
0
74
0
49
-12.7
74
0
49
0
74
0
49
-12.7
74
0
0
LTYPE
5
3E
330
5
100
AcDbSymbolTableRecord
100
AcDbLinetypeTableRecord
2
BORDER
70
0
3
Border __ __ . __ __ . __ __ . __ __ . __ __ .
72
65
73
6
40
44.45
49
12.7
74
0
49
-6.35
74
0
49
12.7
74
0
49
-6.35
74
0
49
0
74
0
49
-6.35
74
0
0
LTYPE
5
3F
330
5
100
AcDbSymbolTableRecord
100
AcDbLinetypeTableRecord
2
BORDER2
70
0
3
Border (.5x) __.__.__.__.__.__.__.__.__.__.__.
72
65
73
6
40
22.225
49
6.35
74
0
49
-3.175
74
0
49
6.35
74
0
49
-3.175
74
0
49
0
74
0
49
-3.175
74
0
0
LTYPE
5
40
330
5
100
AcDbSymbolTableRecord
100
AcDbLinetypeTableRecord
2
BORDERX2
70
0
3
Border (2x) ____  ____  .  ____  ____  .  ___
72
65
73
6
40
88.9
49
25.4
74
0
49
-12.7
74
0
49
25.4
74
0
49
-12.7
74
0
49
0
74
0
49
-12.7
74
0
0
LTYPE
5
41
330
5
100
AcDbSymbolTableRecord
100
AcDbLinetypeTableRecord
2
CENTER
70
0
3
Center ____ _ ____ _ ____ _ ____ _ ____ _ ____
72
65
73
4
40
50.8
49
31.75
74
0
49
-6.35
74
0
49
6.35
74
0
49
-6.35
74
0
0
LTYPE
5
42
330
5
100
AcDbSymbolTableRecord
100
AcDbLinetypeTableRecord
2
CENTER2
70
0
3
Center (.5x) ___ _ ___ _ ___ _ ___ _ ___ _ ___
72
65
73
4
40
28.575
49
19.05
74
0
49
-3.175
74
0
49
3.175
74
0
49
-3.175
74
0
0
LTYPE
5
43
330
5
100
AcDbSymbolTableRecord
100
AcDbLinetypeTableRecord
2
CENTERX2
70
0
3
Center (2x) ________  __  ________  __  _____
72
65
73
4
40
101.6
49
63.5
74
0
49
-12.7
74
0
49
12.7
74
0
49
-12.7
74
0
0
ENDTAB
0
TABLE
2
LAYER
5
2
330
0
100
AcDbSymbolTable
70
1
0
LAYER
5
10
330
2
100
AcDbSymbolTableRecord
100
AcDbLayerTableRecord
2
0
70
0
62
7
6
CONTINUOUS
370
0
390
F
0
LAYER
5
44
330
2
100
AcDbSymbolTableRecord
100
AcDbLayerTableRecord
2
1-centerlines
70
0
62
5
6
CONTINUOUS
370
0
390
F
0
LAYER
5
45
330
2
100
AcDbSymbolTableRecord
100
AcDbLayerTableRecord
2
2-pavement
70
5
62
9
6
CONTINUOUS
370
0
390
F
0
LAYER
5
46
330
2
100
AcDbSymbolTableRecord
100
AcDbLayerTableRecord
2
3.0-outlines
70
1
62
8
6
CONTINUOUS
370
0
390
F
0
LAYER
5
47
330
2
100
AcDbSymbolTableRecord
100
AcDbLayerTableRecord
2
3.1-holdposition
70
0
62
2
6
CONTINUOUS
370
0
390
F
0
LAYER
5
48
330
2
100
AcDbSymbolTableRecord
100
AcDbLayerTableRecord
2
3.2-taxiwayedge
70
1
62
2
6
CONTINUOUS
370
0
390
F
0
LAYER
5
49
330
2
100
AcDbSymbolTableRecord
100
AcDbLayerTableRecord
2
4.0-shouldermarkings
70
0
62
2
6
CONTINUOUS
370
0
390
F
0
LAYER
5
4A
330
2
100
AcDbSymbolTableRecord
100
AcDbLayerTableRecord
2
8-grid
70
1
62
3
6
CONTINUOUS
370
0
390
F
0
LAYER
5
4B
330
2
100
AcDbSymbolTableRecord
100
AcDbLayerTableRecord
2
9-blocks
70
1
62
6
6
CONTINUOUS
370
0
390
F
0
LAYER
5
4C
330
2
100
AcDbSymbolTableRecord
100
AcDbLayerTableRecord
2
99-Temp
70
0
62
4
6
CONTINUOUS
370
0
390
F
0
ENDTAB
0
TABLE
2
STYLE
5
3
330
0
100
AcDbSymbolTable
70
3
0
STYLE
5
4D
330
2
100
AcDbSymbolTableRecord
100
AcDbTextStyleTableRecord
2
Standard
70
0
40
0
41
1
50
0
71
0
42
1
3
txt
4

0
ENDTAB
0
TABLE
2
VIEW
5
6
330
0
100
AcDbSymbolTable
70
0
0
ENDTAB
0
TABLE
2
UCS
5
7
330
0
100
AcDbSymbolTable
70
0
0
ENDTAB
0
TABLE
2
APPID
5
9
330
0
100
AcDbSymbolTable
70
1
0
APPID
5
12
330
9
100
AcDbSymbolTableRecord
100
AcDbRegAppTableRecord
2
ACAD
70
0
0
ENDTAB
0
TABLE
2
DIMSTYLE
5
A
330
0
100
AcDbSymbolTable
70
1
100
AcDbDimStyleTable
71
1
0
DIMSTYLE
105
4E
330
A
100
AcDbSymbolTableRecord
100
AcDbDimStyleTableRecord
2
Standard
70
0
40
1
41
0.00820209973753
42
0.00205052493438
43
0.38
44
0.00410104986877
45
0
46
0
47
0
48
0
140
0.00820209973753
141
0.09
142
0
143
25.4
144
1
145
0
146
1
147
0.00205052493438
148
0
71
0
72
0
73
0
74
1
75
0
76
0
77
0
78
0
79
0
170
0
171
2
172
0
173
0
174
0
175
0
176
0
177
0
178
0
179
0
271
4
272
4
273
2
274
2
275
0
276
0
277
2
278
46
279
0
280
0
281
0
282
0
283
1
284
0
285
0
286
0
288
0
289
3
340
Standard
341

371
-2
372
-2
0
ENDTAB
0
TABLE
2
BLOCK_RECORD
5
1
330
0
100
AcDbSymbolTable
70
2
0
BLOCK_RECORD
5
1F
330
1
100
AcDbSymbolTableRecord
100
AcDbBlockTableRecord
2
*Model_Space
70
0
280
1
281
0
0
BLOCK_RECORD
5
1E
330
1
100
AcDbSymbolTableRecord
100
AcDbBlockTableRecord
2
*Paper_Space
70
0
280
1
281
0
0
ENDTAB
0
ENDSEC
0
SECTION
2
BLOCKS
0
BLOCK
5
20
330
1F
100
AcDbEntity
8
0
100
AcDbBlockBegin
2
*Model_Space
70
0
10
0
20
0
30
0
3
*Model_Space
1

0
ENDBLK
5
21
330
1F
100
AcDbEntity
8
0
100
AcDbBlockEnd
0
BLOCK
5
1C
330
1B
100
AcDbEntity
8
0
100
AcDbBlockBegin
2
*Paper_Space
70
0
10
0
20
0
30
0
3
*Paper_Space
1

0
ENDBLK
5
1D
330
1F
100
AcDbEntity
8
0
100
AcDbBlockEnd
0
ENDSEC
0
SECTION
2
ENTITIES
0
LINE
5
4F
100
AcDbEntity
8
1-centerlines
6
ByLayer
62
256
370
-1
100
AcDbLine
10
-5000
20
0
11
5000
21
0
0
LINE
5
50
100
AcDbEntity
8
1-centerlines
6
ByLayer
62
256
370
-1
100
AcDbLine
10
-4959
20
0
11
-4959
21
600
0
LINE
5
51
100
AcDbEntity
8
2-pavement
6
ByLayer
62
256
370
-1
100
AcDbLine
10
-5000
20
-100
11
5000
21
-100
0
LINE
5
52
100
AcDbEntity
8
2-pavement
6
ByLayer
62
256
370
-1
100
AcDbLine
10
-5000
20
-100
11
-5500
21
-100
0
LINE
5
53
100
AcDbEntity
8
2-pavement
6
ByLayer
62
256
370
-1
100
AcDbLine
10
-5500
20
-100
11
-5500
21
100
0
LINE
5
54
100
AcDbEntity
8
2-pavement
6
ByLayer
62
256
370
-1
100
AcDbLine
10
-5500
20
100
11
-5000
21
100
0
LINE
5
55
100
AcDbEntity
8
2-pavement
6
ByLayer
62
256
370
-1
100
AcDbLine
10
-5000
20
100
11
-5000
21
600
0
LINE
5
56
100
AcDbEntity
8
1-centerlines
6
ByLayer
62
256
370
-1
100
AcDbLine
10
-4959
20
600
11
-4959
21
1000
0
LINE
5
57
100
AcDbEntity
8
2-pavement
6
ByLayer
62
256
370
-1
100
AcDbLine
10
4317
20
559
11
4711
21
545
0
LINE
5
58
100
AcDbEntity
8
2-pavement
6
ByLayer
62
256
370
-1
100
AcDbLine
10
4711
20
545
11
4865
21
500
0
LINE
5
59
100
AcDbEntity
8
2-pavement
6
ByLayer
62
256
370
-1
100
AcDbLine
10
4865
20
500
11
4905
21
300
0
LINE
5
5A
100
AcDbEntity
8
2-pavement
6
ByLayer
62
256
370
-1
100
AcDbLine
10
4905
20
300
11
4865
21
100
0
LINE
5
5B
100
AcDbEntity
8
2-pavement
6
ByLayer
62
256
370
-1
100
AcDbLine
10
4292
20
641
11
4696
21
656
0
LINE
5
5C
100
AcDbEntity
8
2-pavement
6
ByLayer
62
256
370
-1
100
AcDbLine
10
4696
20
656
11
4831
21
700
0
LINE
5
5D
100
AcDbEntity
8
2-pavement
6
ByLayer
62
256
370
-1
100
AcDbLine
10
4292
20
959
11
4696
21
944
0
LINE
5
5E
100
AcDbEntity
8
2-pavement
6
ByLayer
62
256
370
-1
100
AcDbLine
10
4696
20
944
11
4831
21
900
0
LINE
5
5F
100
AcDbEntity
8
2-pavement
6
ByLayer
62
256
370
-1
100
AcDbLine
10
4875.85765648
20
838.199627851
11
4875.85765648
21
761.800372149
0
ARC
5
60
100
AcDbEntity
8
2-pavement
6
ByLayer
62
256
370
-1
100
AcDbCircle
10
4810.85765648
20
838.199627851
40
65
100
AcDbArc
50
359.999916544
51
71.9479246471
0
ARC
5
61
100
AcDbEntity
8
2-pavement
6
ByLayer
62
256
370
-1
100
AcDbCircle
10
4810.85765648
20
761.800372149
40
65
100
AcDbArc
50
288.052075353
51
360.000087685
0
ARC
5
62
100
AcDbEntity
8
2-pavement
6
ByLayer
62
256
370
-1
100
AcDbCircle
10
4810
20
851
40
190
100
AcDbArc
50
0
51
90
0
LINE
5
63
100
AcDbEntity
8
2-pavement
6
ByLayer
62
256
370
-1
100
AcDbLine
10
5000
20
600
11
5000
21
851
0
LINE
5
64
100
AcDbEntity
8
2-pavement
6
ByLayer
62
256
370
-1
100
AcDbLine
10
4300
20
559
11
4018
21
553
0
ARC
5
65
100
AcDbEntity
8
2-pavement
6
ByLayer
62
256
370
-1
100
AcDbCircle
10
4033.19950039
20
-246.857663297
40
800
100
AcDbArc
50
91.0886467193
51
119.999994952
0
ARC
5
66
100
AcDbEntity
8
2-pavement
6
ByLayer
62
256
370
-1
100
AcDbCircle
10
3127.2758664
20
125
40
25
100
AcDbArc
50
120
51
270
0
LINE
5
67
100
AcDbEntity
8
2-pavement
6
ByLayer
62
256
370
-1
100
AcDbLine
10
3633.19943936
20
445.962624492
11
3114.77590956
21
146.650660012
0
LINE
5
68
100
AcDbEntity
8
2-pavement
6
ByLayer
62
256
370
-1
100
AcDbLine
10
3127.2758664
20
100
11
4865
21
100
0
LINE
5
69
100
AcDbEntity
8
2-pavement
6
ByLayer
62
256
370
-1
100
AcDbLine
10
2740
20
559
11
3078
21
551
0
LINE
5
6A
100
AcDbEntity
8
2-pavement
6
ByLayer
62
256
370
-1
100
AcDbLine
10
3078
20
551
11
3265
21
508
0
ARC
5
6B
100
AcDbEntity
8
1-centerlines
6
ByLayer
62
256
370
-1
100
AcDbCircle
10
3258.19237886
20
450
40
150
100
AcDbArc
50
300
51
90
0
ARC
5
6C
100
AcDbEntity
8
2-pavement
6
ByLayer
62
256
370
-1
100
AcDbCircle
10
3258.19237886
20
450
40
176
100
AcDbArc
50
352.558250217
51
38.2663615762
0
ARC
5
6D
100
AcDbEntity
8
2-pavement
6
ByLayer
62
256
370
-1
100
AcDbCircle
10
3247.07214438
20
430.034674418
40
80
100
AcDbArc
50
315.012248192
51
437.050100673
0
ARC
5
6E
100
AcDbEntity
8
2-pavement
6
ByLayer
62
256
370
-1
100
AcDbCircle
10
0
20
0
40
0
100
AcDbArc
50
0
51
0
0
ARC
5
6F
100
AcDbEntity
8
2-pavement
6
ByLayer
62
256
370
-1
100
AcDbCircle
10
3567.6846467
20
534
40
25
100
AcDbArc
50
300
51
90
0
LINE
5
70
100
AcDbEntity
8
2-pavement
6
ByLayer
62
256
370
-1
100
AcDbLine
10
3396.37703793
20
559
11
3567.68458567
21
559
0
LINE
5
71
100
AcDbEntity
8
2-pavement
6
ByLayer
62
256
370
-1
100
AcDbLine
10
3580.18458567
20
512.349329667
11
3432.70993957
21
427.204803047
0
LINE
5
72
100
AcDbEntity
8
2-pavement
6
ByLayer
62
256
370
-1
100
AcDbLine
10
4317
20
559
11
4300
21
559
0
LINE
5
73
100
AcDbEntity
8
2-pavement
6
ByLayer
62
256
370
-1
100
AcDbLine
10
3303.65277832
20
373.478225945
11
3255.33901518
21
325.691178524
0
ARC
5
74
100
AcDbEntity
8
2-pavement
6
ByLayer
62
256
370
-1
100
AcDbCircle
10
2464.05080757
20
1600
40
1500
100
AcDbArc
50
270.000002331
51
301.838412888
0
ARC
5
75
100
AcDbEntity
8
2-pavement
6
ByLayer
62
256
370
-1
100
AcDbCircle
10
4033.19950039
20
-246.857663297
40
760
100
AcDbArc
50
91.0886467193
51
119.999994952
0
LINE
5
76
100
AcDbEntity
8
2-pavement
6
ByLayer
62
256
370
-1
100
AcDbLine
10
4300.85087126
20
519.009050798
11
4018.85087126
21
513.009050798
0
LINE
5
77
100
AcDbEntity
8
2-pavement
6
ByLayer
62
256
370
-1
100
AcDbLine
10
-5000
20
-140
11
5000
21
-140
0
LINE
5
78
100
AcDbEntity
8
2-pavement
6
ByLayer
62
256
370
-1
100
AcDbLine
10
5040
20
600
11
5040
21
851
0
ARC
5
79
100
AcDbEntity
8
2-pavement
6
ByLayer
62
256
370
-1
100
AcDbCircle
10
4810
20
851
40
230
100
AcDbArc
50
0
51
90
0
ARC
5
7A
100
AcDbEntity
8
2-pavement
6
ByLayer
62
256
370
-1
100
AcDbCircle
10
4810.85765648
20
838.199627851
40
25
100
AcDbArc
50
359.999916544
51
71.9479246471
0
LINE
5
7B
100
AcDbEntity
8
2-pavement
6
ByLayer
62
256
370
-1
100
AcDbLine
10
4835.85765648
20
838.199627851
11
4835.85765648
21
761.800372149
0
ARC
5
7C
100
AcDbEntity
8
2-pavement
6
ByLayer
62
256
370
-1
100
AcDbCircle
10
4810.85765648
20
761.800372149
40
25
100
AcDbArc
50
288.052075353
51
360.000087685
0
ARC
5
7D
100
AcDbEntity
8
2-pavement
6
ByLayer
62
256
370
-1
100
AcDbCircle
10
3247.07214438
20
430.034674418
40
40
100
AcDbArc
50
315.012248192
51
437.050100673
0
LINE
5
7E
100
AcDbEntity
8
2-pavement
6
ByLayer
62
256
370
-1
100
AcDbLine
10
-5540
20
-140
11
-5540
21
140
0
LINE
5
7F
100
AcDbEntity
8
2-pavement
6
ByLayer
62
256
370
-1
100
AcDbLine
10
-5000
20
-140
11
-5540
21
-140
0
LINE
5
80
100
AcDbEntity
8
2-pavement
6
ByLayer
62
256
370
-1
100
AcDbLine
10
5040
20
600
11
5040
21
140
0
LINE
5
81
100
AcDbEntity
8
2-pavement
6
ByLayer
62
256
370
-1
100
AcDbLine
10
4864.20784389
20
300
11
4832.20784389
21
140
0
LINE
5
82
100
AcDbEntity
8
2-pavement
6
ByLayer
62
256
370
-1
100
AcDbLine
10
4830.52778013
20
468.400318807
11
4864.20784389
21
300
0
LINE
5
83
100
AcDbEntity
8
2-pavement
6
ByLayer
62
256
370
-1
100
AcDbLine
10
4315.57957663
20
519.025227988
11
4704.58141679
21
505.202827576
0
LINE
5
84
100
AcDbEntity
8
2-pavement
6
ByLayer
62
256
370
-1
100
AcDbLine
10
4704.58141679
20
505.202827576
11
4830.52778013
21
468.400318807
0
LINE
5
85
100
AcDbEntity
8
2-pavement
6
ByLayer
62
256
370
-1
100
AcDbLine
10
4688.92450673
20
695.764857373
11
4818.60471168
21
738.030998245
0
LINE
5
86
100
AcDbEntity
8
2-pavement
6
ByLayer
62
256
370
-1
100
AcDbLine
10
4290.5158741
20
919.027542353
11
4688.92450673
21
904.235142627
0
LINE
5
87
100
AcDbEntity
8
2-pavement
6
ByLayer
62
256
370
-1
100
AcDbLine
10
4688.92450673
20
904.235142627
11
4818.60471168
21
861.969001755
0
LINE
5
88
100
AcDbEntity
8
2-pavement
6
ByLayer
62
256
370
-1
100
AcDbLine
10
3653.19943936
20
411.321608341
11
3183.25662852
21
140
0
LINE
5
89
100
AcDbEntity
8
2-pavement
6
ByLayer
62
256
370
-1
100
AcDbLine
10
3183.25662852
20
140
11
4832.20784389
21
140
0
ARC
5
8A
100
AcDbEntity
8
2-pavement
6
ByLayer
62
256
370
-1
100
AcDbCircle
10
2464.05080757
20
1600
40
1460
100
AcDbArc
50
270.000002331
51
301.662856777
0
LINE
5
8B
100
AcDbEntity
8
2-pavement
6
ByLayer
62
256
370
-1
100
AcDbLine
10
3275.52395187
20
401.91709236
11
3230.43398432
21
357.318694758
0
LINE
5
8C
100
AcDbEntity
8
2-pavement
6
ByLayer
62
256
370
-1
100
AcDbLine
10
3072.99372261
20
511.107289252
11
3256.03607219
21
469.017337209
0
LINE
5
8D
100
AcDbEntity
8
2-pavement
6
ByLayer
62
256
370
-1
100
AcDbLine
10
2739.5266935
20
519
11
3072.99372261
21
511.107289252
0
LINE
5
8E
100
AcDbEntity
8
2-pavement
6
ByLayer
62
256
370
-1
100
AcDbLine
10
4300.85087126
20
519.009050798
11
4315.57957663
21
519.025227988
0
LINE
5
8F
100
AcDbEntity
8
2-pavement
6
ByLayer
62
256
370
-1
100
AcDbLine
10
4291.25768148
20
681
11
4688.92450673
21
695.764857373
0
LINE
5
90
100
AcDbEntity
8
2-pavement
6
ByLayer
62
256
370
-1
100
AcDbLine
10
-5040
20
140
11
-5040
21
600
0
LINE
5
91
100
AcDbEntity
8
2-pavement
6
ByLayer
62
256
370
-1
100
AcDbLine
10
-5540
20
140
11
-5040
21
140
0
LINE
5
92
100
AcDbEntity
8
2-pavement
6
ByLayer
62
256
370
-1
100
AcDbLine
10
-4317
20
559
11
-4711
21
545
0
LINE
5
93
100
AcDbEntity
8
2-pavement
6
ByLayer
62
256
370
-1
100
AcDbLine
10
-4711
20
545
11
-4865
21
500
0
LINE
5
94
100
AcDbEntity
8
2-pavement
6
ByLayer
62
256
370
-1
100
AcDbLine
10
-4865
20
500
11
-4905
21
300
0
LINE
5
95
100
AcDbEntity
8
2-pavement
6
ByLayer
62
256
370
-1
100
AcDbLine
10
-4905
20
300
11
-4865
21
100
0
LINE
5
96
100
AcDbEntity
8
2-pavement
6
ByLayer
62
256
370
-1
100
AcDbLine
10
-4292
20
641
11
-4696
21
656
0
LINE
5
97
100
AcDbEntity
8
2-pavement
6
ByLayer
62
256
370
-1
100
AcDbLine
10
-4696
20
656
11
-4831
21
700
0
LINE
5
98
100
AcDbEntity
8
2-pavement
6
ByLayer
62
256
370
-1
100
AcDbLine
10
-4292
20
959
11
-4696
21
944
0
LINE
5
99
100
AcDbEntity
8
2-pavement
6
ByLayer
62
256
370
-1
100
AcDbLine
10
-4696
20
944
11
-4831
21
900
0
LINE
5
9A
100
AcDbEntity
8
2-pavement
6
ByLayer
62
256
370
-1
100
AcDbLine
10
-4875.85765648
20
838.199627851
11
-4875.85765648
21
761.800372149
0
ARC
5
9B
100
AcDbEntity
8
2-pavement
6
ByLayer
62
256
370
-1
100
AcDbCircle
10
-4810.85765648
20
838.199627851
40
65
100
AcDbArc
50
108.052075353
51
180.000083456
0
ARC
5
9C
100
AcDbEntity
8
2-pavement
6
ByLayer
62
256
370
-1
100
AcDbCircle
10
-4810.85765648
20
761.800372149
40
65
100
AcDbArc
50
179.999912315
51
251.947924647
0
ARC
5
9D
100
AcDbEntity
8
2-pavement
6
ByLayer
62
256
370
-1
100
AcDbCircle
10
-4810
20
851
40
190
100
AcDbArc
50
90
51
180
0
ARC
5
9E
100
AcDbEntity
8
2-pavement
6
ByLayer
62
256
370
-1
100
AcDbCircle
10
-4810
20
851
40
230
100
AcDbArc
50
90
51
180
0
ARC
5
9F
100
AcDbEntity
8
2-pavement
6
ByLayer
62
256
370
-1
100
AcDbCircle
10
-4810.85765648
20
838.199627851
40
25
100
AcDbArc
50
108.052075353
51
180.000083456
0
LINE
5
A0
100
AcDbEntity
8
2-pavement
6
ByLayer
62
256
370
-1
100
AcDbLine
10
-4835.85765648
20
838.199627851
11
-4835.85765648
21
761.800372149
0
ARC
5
A1
100
AcDbEntity
8
2-pavement
6
ByLayer
62
256
370
-1
100
AcDbCircle
10
-4810.85765648
20
761.800372149
40
25
100
AcDbArc
50
179.999912315
51
251.947924647
0
LINE
5
A2
100
AcDbEntity
8
2-pavement
6
ByLayer
62
256
370
-1
100
AcDbLine
10
-4830.52778013
20
468.400318807
11
-4864.20784389
21
300
0
LINE
5
A3
100
AcDbEntity
8
2-pavement
6
ByLayer
62
256
370
-1
100
AcDbLine
10
-4315.57957663
20
519.025227988
11
-4704.58141679
21
505.202827576
0
LINE
5
A4
100
AcDbEntity
8
2-pavement
6
ByLayer
62
256
370
-1
100
AcDbLine
10
-4704.58141679
20
505.202827576
11
-4830.52778013
21
468.400318807
0
LINE
5
A5
100
AcDbEntity
8
2-pavement
6
ByLayer
62
256
370
-1
100
AcDbLine
10
-4688.92450673
20
695.764857373
11
-4818.60471168
21
738.030998245
0
LINE
5
A6
100
AcDbEntity
8
2-pavement
6
ByLayer
62
256
370
-1
100
AcDbLine
10
-4290.5158741
20
919.027542353
11
-4688.92450673
21
904.235142627
0
LINE
5
A7
100
AcDbEntity
8
2-pavement
6
ByLayer
62
256
370
-1
100
AcDbLine
10
-4688.92450673
20
904.235142627
11
-4818.60471168
21
861.969001755
0
LINE
5
A8
100
AcDbEntity
8
2-pavement
6
ByLayer
62
256
370
-1
100
AcDbLine
10
-4291.25768148
20
681
11
-4688.92450673
21
695.764857373
0
LINE
5
A9
100
AcDbEntity
8
2-pavement
6
ByLayer
62
256
370
-1
100
AcDbLine
10
-4864.20784389
20
300
11
-4832.20784389
21
140
0
LINE
5
AA
100
AcDbEntity
8
2-pavement
6
ByLayer
62
256
370
-1
100
AcDbLine
10
-4292
20
641
11
4292
21
641
0
LINE
5
AB
100
AcDbEntity
8
2-pavement
6
ByLayer
62
256
370
-1
100
AcDbLine
10
-4291.25768148
20
681
11
4291.25768148
21
681
0
LINE
5
AC
100
AcDbEntity
8
2-pavement
6
ByLayer
62
256
370
-1
100
AcDbLine
10
4292
20
919
11
-4291.25768148
21
919
0
LINE
5
AD
100
AcDbEntity
8
2-pavement
6
ByLayer
62
256
370
-1
100
AcDbLine
10
4292
20
959
11
-4292
21
959
0
LINE
5
AE
100
AcDbEntity
8
2-pavement
6
ByLayer
62
256
370
-1
100
AcDbLine
10
4810
20
1041
11
-4810
21
1041
0
LINE
5
AF
100
AcDbEntity
8
2-pavement
6
ByLayer
62
256
370
-1
100
AcDbLine
10
-5000
20
600
11
-5000
21
851
0
LINE
5
B0
100
AcDbEntity
8
2-pavement
6
ByLayer
62
256
370
-1
100
AcDbLine
10
4810
20
1081
11
-4810
21
1081
0
LINE
5
B1
100
AcDbEntity
8
2-pavement
6
ByLayer
62
256
370
-1
100
AcDbLine
10
-5040
20
600
11
-5040
21
851
0
LINE
5
B2
100
AcDbEntity
8
1-centerlines
6
ByLayer
62
256
370
-1
100
AcDbLine
10
-3818
20
600
11
-2778.76951546
21
0
0
LINE
5
B3
100
AcDbEntity
8
2-pavement
6
ByLayer
62
256
370
-1
100
AcDbLine
10
-4300
20
559
11
-4018
21
553
0
ARC
5
B4
100
AcDbEntity
8
2-pavement
6
ByLayer
62
256
370
-1
100
AcDbCircle
10
-4033.19950039
20
-246.857663297
40
800
100
AcDbArc
50
60.0000050476
51
88.9113532807
0
ARC
5
B5
100
AcDbEntity
8
2-pavement
6
ByLayer
62
256
370
-1
100
AcDbCircle
10
-3127.2758664
20
125
40
25
100
AcDbArc
50
270
51
60
0
LINE
5
B6
100
AcDbEntity
8
2-pavement
6
ByLayer
62
256
370
-1
100
AcDbLine
10
-3633.19943936
20
445.962624492
11
-3114.77590956
21
146.650660012
0
LINE
5
B7
100
AcDbEntity
8
2-pavement
6
ByLayer
62
256
370
-1
100
AcDbLine
10
-2740
20
559
11
-3078
21
551
0
LINE
5
B8
100
AcDbEntity
8
2-pavement
6
ByLayer
62
256
370
-1
100
AcDbLine
10
-3078
20
551
11
-3265
21
508
0
ARC
5
B9
100
AcDbEntity
8
1-centerlines
6
ByLayer
62
256
370
-1
100
AcDbCircle
10
-3258.19237886
20
450
40
150
100
AcDbArc
50
90
51
240
0
ARC
5
BA
100
AcDbEntity
8
2-pavement
6
ByLayer
62
256
370
-1
100
AcDbCircle
10
-3258.19237886
20
450
40
176
100
AcDbArc
50
141.733638424
51
187.441749783
0
ARC
5
BB
100
AcDbEntity
8
2-pavement
6
ByLayer
62
256
370
-1
100
AcDbCircle
10
-3247.07214438
20
430.034674418
40
80
100
AcDbArc
50
102.949899327
51
224.987751808
0
ARC
5
BC
100
AcDbEntity
8
2-pavement
6
ByLayer
62
256
370
-1
100
AcDbCircle
10
-3567.6846467
20
534
40
25
100
AcDbArc
50
90
51
240
0
LINE
5
BD
100
AcDbEntity
8
2-pavement
6
ByLayer
62
256
370
-1
100
AcDbLine
10
-3396.37703793
20
559
11
-3567.68458567
21
559
0
LINE
5
BE
100
AcDbEntity
8
2-pavement
6
ByLayer
62
256
370
-1
100
AcDbLine
10
-3580.18458567
20
512.349329667
11
-3432.70993957
21
427.204803047
0
LINE
5
BF
100
AcDbEntity
8
2-pavement
6
ByLayer
62
256
370
-1
100
AcDbLine
10
-3303.65277832
20
373.478225945
11
-3255.33901518
21
325.691178524
0
ARC
5
C0
100
AcDbEntity
8
2-pavement
6
ByLayer
62
256
370
-1
100
AcDbCircle
10
-2464.05080757
20
1600
40
1500
100
AcDbArc
50
238.161587112
51
269.999997669
0
ARC
5
C1
100
AcDbEntity
8
2-pavement
6
ByLayer
62
256
370
-1
100
AcDbCircle
10
-4033.19950039
20
-246.857663297
40
760
100
AcDbArc
50
60.0000050476
51
88.9113532807
0
LINE
5
C2
100
AcDbEntity
8
2-pavement
6
ByLayer
62
256
370
-1
100
AcDbLine
10
-4300.85087126
20
519.009050798
11
-4018.85087126
21
513.009050798
0
ARC
5
C3
100
AcDbEntity
8
2-pavement
6
ByLayer
62
256
370
-1
100
AcDbCircle
10
-3247.07214438
20
430.034674418
40
40
100
AcDbArc
50
102.949899327
51
224.987751808
0
LINE
5
C4
100
AcDbEntity
8
2-pavement
6
ByLayer
62
256
370
-1
100
AcDbLine
10
-3653.19943936
20
411.321608341
11
-3183.25662852
21
140
0
ARC
5
C5
100
AcDbEntity
8
2-pavement
6
ByLayer
62
256
370
-1
100
AcDbCircle
10
-2464.05080757
20
1600
40
1460
100
AcDbArc
50
238.337143223
51
269.999997669
0
LINE
5
C6
100
AcDbEntity
8
2-pavement
6
ByLayer
62
256
370
-1
100
AcDbLine
10
-3275.52395187
20
401.91709236
11
-3230.43398432
21
357.318694758
0
LINE
5
C7
100
AcDbEntity
8
2-pavement
6
ByLayer
62
256
370
-1
100
AcDbLine
10
-3072.99372261
20
511.107289252
11
-3256.03607219
21
469.017337209
0
LINE
5
C8
100
AcDbEntity
8
2-pavement
6
ByLayer
62
256
370
-1
100
AcDbLine
10
-2739.5266935
20
519
11
-3072.99372261
21
511.107289252
0
LINE
5
C9
100
AcDbEntity
8
2-pavement
6
ByLayer
62
256
370
-1
100
AcDbLine
10
-4316.28956428
20
519
11
-4300.42548377
21
519
0
LINE
5
CA
100
AcDbEntity
8
2-pavement
6
ByLayer
62
256
370
-1
100
AcDbLine
10
-4317
20
559
11
-4300
21
559
0
LINE
5
CB
100
AcDbEntity
8
2-pavement
6
ByLayer
62
256
370
-1
100
AcDbLine
10
-4832.20784389
20
140
11
-3183.25662852
21
140
0
LINE
5
CC
100
AcDbEntity
8
2-pavement
6
ByLayer
62
256
370
-1
100
AcDbLine
10
-4865
20
100
11
-3127.2758664
21
100
0
LINE
5
CD
100
AcDbEntity
8
9-blocks
6
ByLayer
62
256
370
-1
100
AcDbLine
10
5000
20
100
11
4800
21
100
0
LINE
5
CE
100
AcDbEntity
8
9-blocks
6
ByLayer
62
256
370
-1
100
AcDbLine
10
4800
20
100
11
4800
21
-100
0
LINE
5
CF
100
AcDbEntity
8
9-blocks
6
ByLayer
62
256
370
-1
100
AcDbLine
10
4800
20
-100
11
5000
21
-100
0
LINE
5
D0
100
AcDbEntity
8
9-blocks
6
ByLayer
62
256
370
-1
100
AcDbLine
10
5000
20
-100
11
5000
21
100
0
LINE
5
D1
100
AcDbEntity
8
9-blocks
6
ByLayer
62
256
370
-1
100
AcDbLine
10
4800
20
-100
11
4700
21
-100
0
LINE
5
D2
100
AcDbEntity
8
9-blocks
6
ByLayer
62
256
370
-1
100
AcDbLine
10
4700
20
-100
11
4700
21
100
0
LINE
5
D3
100
AcDbEntity
8
9-blocks
6
ByLayer
62
256
370
-1
100
AcDbLine
10
4700
20
100
11
4800
21
100
0
LINE
5
D4
100
AcDbEntity
8
9-blocks
6
ByLayer
62
256
370
-1
100
AcDbLine
10
4800
20
100
11
4800
21
-100
0
LINE
5
D5
100
AcDbEntity
8
9-blocks
6
ByLayer
62
256
370
-1
100
AcDbLine
10
4700
20
100
11
4600
21
100
0
LINE
5
D6
100
AcDbEntity
8
9-blocks
6
ByLayer
62
256
370
-1
100
AcDbLine
10
4600
20
100
11
4600
21
-100
0
LINE
5
D7
100
AcDbEntity
8
9-blocks
6
ByLayer
62
256
370
-1
100
AcDbLine
10
4600
20
-100
11
4700
21
-100
0
LINE
5
D8
100
AcDbEntity
8
9-blocks
6
ByLayer
62
256
370
-1
100
AcDbLine
10
4700
20
-100
11
4700
21
100
0
LINE
5
D9
100
AcDbEntity
8
9-blocks
6
ByLayer
62
256
370
-1
100
AcDbLine
10
4600
20
-100
11
4500
21
-100
0
LINE
5
DA
100
AcDbEntity
8
9-blocks
6
ByLayer
62
256
370
-1
100
AcDbLine
10
4500
20
-100
11
4500
21
100
0
LINE
5
DB
100
AcDbEntity
8
9-blocks
6
ByLayer
62
256
370
-1
100
AcDbLine
10
4500
20
100
11
4600
21
100
0
LINE
5
DC
100
AcDbEntity
8
9-blocks
6
ByLayer
62
256
370
-1
100
AcDbLine
10
4600
20
100
11
4600
21
-100
0
LINE
5
DD
100
AcDbEntity
8
9-blocks
6
ByLayer
62
256
370
-1
100
AcDbLine
10
4500
20
-100
11
4400
21
-100
0
LINE
5
DE
100
AcDbEntity
8
9-blocks
6
ByLayer
62
256
370
-1
100
AcDbLine
10
4400
20
-100
11
4400
21
100
0
LINE
5
DF
100
AcDbEntity
8
9-blocks
6
ByLayer
62
256
370
-1
100
AcDbLine
10
4400
20
100
11
4500
21
100
0
LINE
5
E0
100
AcDbEntity
8
9-blocks
6
ByLayer
62
256
370
-1
100
AcDbLine
10
4500
20
100
11
4500
21
-100
0
LINE
5
E1
100
AcDbEntity
8
9-blocks
6
ByLayer
62
256
370
-1
100
AcDbLine
10
4400
20
100
11
4000
21
100
0
LINE
5
E2
100
AcDbEntity
8
9-blocks
6
ByLayer
62
256
370
-1
100
AcDbLine
10
4000
20
100
11
4000
21
-100
0
LINE
5
E3
100
AcDbEntity
8
9-blocks
6
ByLayer
62
256
370
-1
100
AcDbLine
10
4000
20
-100
11
4400
21
-100
0
LINE
5
E4
100
AcDbEntity
8
9-blocks
6
ByLayer
62
256
370
-1
100
AcDbLine
10
4400
20
-100
11
4400
21
100
0
LINE
5
E5
100
AcDbEntity
8
9-blocks
6
ByLayer
62
256
370
-1
100
AcDbLine
10
4000
20
-100
11
3800
21
-100
0
LINE
5
E6
100
AcDbEntity
8
9-blocks
6
ByLayer
62
256
370
-1
100
AcDbLine
10
3800
20
-100
11
3800
21
100
0
LINE
5
E7
100
AcDbEntity
8
9-blocks
6
ByLayer
62
256
370
-1
100
AcDbLine
10
3800
20
100
11
4000
21
100
0
LINE
5
E8
100
AcDbEntity
8
9-blocks
6
ByLayer
62
256
370
-1
100
AcDbLine
10
4000
20
100
11
4000
21
-100
0
LINE
5
E9
100
AcDbEntity
8
9-blocks
6
ByLayer
62
256
370
-1
100
AcDbLine
10
3800
20
100
11
3700
21
100
0
LINE
5
EA
100
AcDbEntity
8
9-blocks
6
ByLayer
62
256
370
-1
100
AcDbLine
10
3700
20
100
11
3700
21
-100
0
LINE
5
EB
100
AcDbEntity
8
9-blocks
6
ByLayer
62
256
370
-1
100
AcDbLine
10
3700
20
-100
11
3800
21
-100
0
LINE
5
EC
100
AcDbEntity
8
9-blocks
6
ByLayer
62
256
370
-1
100
AcDbLine
10
3800
20
-100
11
3800
21
100
0
LINE
5
ED
100
AcDbEntity
8
9-blocks
6
ByLayer
62
256
370
-1
100
AcDbLine
10
3700
20
-100
11
3600
21
-100
0
LINE
5
EE
100
AcDbEntity
8
9-blocks
6
ByLayer
62
256
370
-1
100
AcDbLine
10
3600
20
-100
11
3600
21
100
0
LINE
5
EF
100
AcDbEntity
8
9-blocks
6
ByLayer
62
256
370
-1
100
AcDbLine
10
3600
20
100
11
3700
21
100
0
LINE
5
F0
100
AcDbEntity
8
9-blocks
6
ByLayer
62
256
370
-1
100
AcDbLine
10
3700
20
100
11
3700
21
-100
0
LINE
5
F1
100
AcDbEntity
8
9-blocks
6
ByLayer
62
256
370
-1
100
AcDbLine
10
3600
20
100
11
3500
21
100
0
LINE
5
F2
100
AcDbEntity
8
9-blocks
6
ByLayer
62
256
370
-1
100
AcDbLine
10
3500
20
100
11
3500
21
-100
0
LINE
5
F3
100
AcDbEntity
8
9-blocks
6
ByLayer
62
256
370
-1
100
AcDbLine
10
3500
20
-100
11
3600
21
-100
0
LINE
5
F4
100
AcDbEntity
8
9-blocks
6
ByLayer
62
256
370
-1
100
AcDbLine
10
3600
20
-100
11
3600
21
100
0
LINE
5
F5
100
AcDbEntity
8
9-blocks
6
ByLayer
62
256
370
-1
100
AcDbLine
10
3500
20
-100
11
3400
21
-100
0
LINE
5
F6
100
AcDbEntity
8
9-blocks
6
ByLayer
62
256
370
-1
100
AcDbLine
10
3400
20
-100
11
3400
21
100
0
LINE
5
F7
100
AcDbEntity
8
9-blocks
6
ByLayer
62
256
370
-1
100
AcDbLine
10
3400
20
100
11
3500
21
100
0
LINE
5
F8
100
AcDbEntity
8
9-blocks
6
ByLayer
62
256
370
-1
100
AcDbLine
10
3500
20
100
11
3500
21
-100
0
LINE
5
F9
100
AcDbEntity
8
9-blocks
6
ByLayer
62
256
370
-1
100
AcDbLine
10
3400
20
100
11
3000
21
100
0
LINE
5
FA
100
AcDbEntity
8
9-blocks
6
ByLayer
62
256
370
-1
100
AcDbLine
10
3000
20
100
11
3000
21
-100
0
LINE
5
FB
100
AcDbEntity
8
9-blocks
6
ByLayer
62
256
370
-1
100
AcDbLine
10
3000
20
-100
11
3400
21
-100
0
LINE
5
FC
100
AcDbEntity
8
9-blocks
6
ByLayer
62
256
370
-1
100
AcDbLine
10
3400
20
-100
11
3400
21
100
0
LINE
5
FD
100
AcDbEntity
8
9-blocks
6
ByLayer
62
256
370
-1
100
AcDbLine
10
3000
20
-100
11
3000
21
-100
0
LINE
5
FE
100
AcDbEntity
8
9-blocks
6
ByLayer
62
256
370
-1
100
AcDbLine
10
3000
20
-100
11
3000
21
100
0
LINE
5
FF
100
AcDbEntity
8
9-blocks
6
ByLayer
62
256
370
-1
100
AcDbLine
10
3000
20
100
11
3000
21
100
0
LINE
5
100
100
AcDbEntity
8
9-blocks
6
ByLayer
62
256
370
-1
100
AcDbLine
10
3000
20
100
11
3000
21
-100
0
LINE
5
101
100
AcDbEntity
8
9-blocks
6
ByLayer
62
256
370
-1
100
AcDbLine
10
3000
20
100
11
2900
21
100
0
LINE
5
102
100
AcDbEntity
8
9-blocks
6
ByLayer
62
256
370
-1
100
AcDbLine
10
2900
20
100
11
2900
21
-100
0
LINE
5
103
100
AcDbEntity
8
9-blocks
6
ByLayer
62
256
370
-1
100
AcDbLine
10
2900
20
-100
11
3000
21
-100
0
LINE
5
104
100
AcDbEntity
8
9-blocks
6
ByLayer
62
256
370
-1
100
AcDbLine
10
3000
20
-100
11
3000
21
100
0
LINE
5
105
100
AcDbEntity
8
9-blocks
6
ByLayer
62
256
370
-1
100
AcDbLine
10
2900
20
-100
11
2500
21
-100
0
LINE
5
106
100
AcDbEntity
8
9-blocks
6
ByLayer
62
256
370
-1
100
AcDbLine
10
2500
20
-100
11
2500
21
100
0
LINE
5
107
100
AcDbEntity
8
9-blocks
6
ByLayer
62
256
370
-1
100
AcDbLine
10
2500
20
100
11
2900
21
100
0
LINE
5
108
100
AcDbEntity
8
9-blocks
6
ByLayer
62
256
370
-1
100
AcDbLine
10
2900
20
100
11
2900
21
-100
0
LINE
5
109
100
AcDbEntity
8
9-blocks
6
ByLayer
62
256
370
-1
100
AcDbLine
10
2500
20
100
11
2400
21
100
0
LINE
5
10A
100
AcDbEntity
8
9-blocks
6
ByLayer
62
256
370
-1
100
AcDbLine
10
2400
20
100
11
2400
21
-100
0
LINE
5
10B
100
AcDbEntity
8
9-blocks
6
ByLayer
62
256
370
-1
100
AcDbLine
10
2400
20
-100
11
2500
21
-100
0
LINE
5
10C
100
AcDbEntity
8
9-blocks
6
ByLayer
62
256
370
-1
100
AcDbLine
10
2500
20
-100
11
2500
21
100
0
LINE
5
10D
100
AcDbEntity
8
9-blocks
6
ByLayer
62
256
370
-1
100
AcDbLine
10
2400
20
-100
11
2000
21
-100
0
LINE
5
10E
100
AcDbEntity
8
9-blocks
6
ByLayer
62
256
370
-1
100
AcDbLine
10
2000
20
-100
11
2000
21
100
0
LINE
5
10F
100
AcDbEntity
8
9-blocks
6
ByLayer
62
256
370
-1
100
AcDbLine
10
2000
20
100
11
2400
21
100
0
LINE
5
110
100
AcDbEntity
8
9-blocks
6
ByLayer
62
256
370
-1
100
AcDbLine
10
2400
20
100
11
2400
21
-100
0
LINE
5
111
100
AcDbEntity
8
9-blocks
6
ByLayer
62
256
370
-1
100
AcDbLine
10
2000
20
100
11
1900
21
100
0
LINE
5
112
100
AcDbEntity
8
9-blocks
6
ByLayer
62
256
370
-1
100
AcDbLine
10
1900
20
100
11
1900
21
-100
0
LINE
5
113
100
AcDbEntity
8
9-blocks
6
ByLayer
62
256
370
-1
100
AcDbLine
10
1900
20
-100
11
2000
21
-100
0
LINE
5
114
100
AcDbEntity
8
9-blocks
6
ByLayer
62
256
370
-1
100
AcDbLine
10
2000
20
-100
11
2000
21
100
0
LINE
5
115
100
AcDbEntity
8
9-blocks
6
ByLayer
62
256
370
-1
100
AcDbLine
10
2450
20
100
11
3500
21
100
0
LINE
5
116
100
AcDbEntity
8
9-blocks
6
ByLayer
62
256
370
-1
100
AcDbLine
10
3500
20
100
11
3500
21
300
0
LINE
5
117
100
AcDbEntity
8
9-blocks
6
ByLayer
62
256
370
-1
100
AcDbLine
10
2450
20
300
11
2450
21
100
0
LINE
5
118
100
AcDbEntity
8
9-blocks
6
ByLayer
62
256
370
-1
100
AcDbLine
10
3450
20
600
11
3450
21
300
0
LINE
5
119
100
AcDbEntity
8
9-blocks
6
ByLayer
62
256
370
-1
100
AcDbLine
10
3450
20
600
11
3450
21
300
0
LINE
5
11A
100
AcDbEntity
8
9-blocks
6
ByLayer
62
256
370
-1
100
AcDbLine
10
5050
20
100
11
4350
21
100
0
LINE
5
11B
100
AcDbEntity
8
9-blocks
6
ByLayer
62
256
370
-1
100
AcDbLine
10
4350
20
600
11
5050
21
600
0
LINE
5
11C
100
AcDbEntity
8
9-blocks
6
ByLayer
62
256
370
-1
100
AcDbLine
10
5050
20
600
11
5050
21
100
0
LINE
5
11D
100
AcDbEntity
8
9-blocks
6
ByLayer
62
256
370
-1
100
AcDbLine
10
4250
20
600
11
5050
21
600
0
LINE
5
11E
100
AcDbEntity
8
9-blocks
6
ByLayer
62
256
370
-1
100
AcDbLine
10
5050
20
600
11
5050
21
1100
0
LINE
5
11F
100
AcDbEntity
8
9-blocks
6
ByLayer
62
256
370
-1
100
AcDbLine
10
5050
20
1100
11
4250
21
1100
0
LINE
5
120
100
AcDbEntity
8
9-blocks
6
ByLayer
62
256
370
-1
100
AcDbLine
10
4250
20
1100
11
4250
21
600
0
LINE
5
121
100
AcDbEntity
8
9-blocks
6
ByLayer
62
256
370
-1
100
AcDbLine
10
5000
20
100
11
5550
21
100
0
LINE
5
122
100
AcDbEntity
8
9-blocks
6
ByLayer
62
256
370
-1
100
AcDbLine
10
5550
20
100
11
5550
21
-100
0
LINE
5
123
100
AcDbEntity
8
9-blocks
6
ByLayer
62
256
370
-1
100
AcDbLine
10
5550
20
-100
11
5000
21
-100
0
LINE
5
124
100
AcDbEntity
8
9-blocks
6
ByLayer
62
256
370
-1
100
AcDbLine
10
5000
20
-100
11
5000
21
100
0
LINE
5
125
100
AcDbEntity
8
9-blocks
6
ByLayer
62
256
370
-1
100
AcDbLine
10
4300
20
300
11
4300
21
600
0
LINE
5
126
100
AcDbEntity
8
9-blocks
6
ByLayer
62
256
370
-1
100
AcDbLine
10
3450
20
300
11
4300
21
300
0
LINE
5
127
100
AcDbEntity
8
9-blocks
6
ByLayer
62
256
370
-1
100
AcDbLine
10
4300
20
600
11
5050
21
600
0
LINE
5
128
100
AcDbEntity
8
9-blocks
6
ByLayer
62
256
370
-1
100
AcDbLine
10
5050
20
600
11
5050
21
300
0
LINE
5
129
100
AcDbEntity
8
9-blocks
6
ByLayer
62
256
370
-1
100
AcDbLine
10
5050
20
300
11
4300
21
300
0
LINE
5
12A
100
AcDbEntity
8
9-blocks
6
ByLayer
62
256
370
-1
100
AcDbLine
10
4300
20
300
11
4300
21
600
0
LINE
5
12B
100
AcDbEntity
8
9-blocks
6
ByLayer
62
256
370
-1
100
AcDbLine
10
5050
20
300
11
4800
21
300
0
LINE
5
12C
100
AcDbEntity
8
9-blocks
6
ByLayer
62
256
370
-1
100
AcDbLine
10
4800
20
300
11
4800
21
100
0
LINE
5
12D
100
AcDbEntity
8
9-blocks
6
ByLayer
62
256
370
-1
100
AcDbLine
10
4800
20
100
11
5050
21
100
0
LINE
5
12E
100
AcDbEntity
8
9-blocks
6
ByLayer
62
256
370
-1
100
AcDbLine
10
5050
20
100
11
5050
21
300
0
LINE
5
12F
100
AcDbEntity
8
9-blocks
6
ByLayer
62
256
370
-1
100
AcDbLine
10
4300
20
600
11
3450
21
600
0
LINE
5
130
100
AcDbEntity
8
9-blocks
6
ByLayer
62
256
370
-1
100
AcDbLine
10
2700
20
600
11
3450
21
600
0
LINE
5
131
100
AcDbEntity
8
9-blocks
6
ByLayer
62
256
370
-1
100
AcDbLine
10
3450
20
300
11
2700
21
300
0
LINE
5
132
100
AcDbEntity
8
9-blocks
6
ByLayer
62
256
370
-1
100
AcDbLine
10
2700
20
300
11
2700
21
600
0
LINE
5
133
100
AcDbEntity
8
9-blocks
6
ByLayer
62
256
370
-1
100
AcDbLine
10
2450
20
300
11
3500
21
300
0
LINE
5
134
100
AcDbEntity
8
2-pavement
6
ByLayer
62
256
370
-1
100
AcDbLine
10
2700
20
559
11
2418
21
553
0
ARC
5
135
100
AcDbEntity
8
2-pavement
6
ByLayer
62
256
370
-1
100
AcDbCircle
10
2433.19950039
20
-246.857663297
40
800
100
AcDbArc
50
91.0886467193
51
119.999994952
0
ARC
5
136
100
AcDbEntity
8
2-pavement
6
ByLayer
62
256
370
-1
100
AcDbCircle
10
1527.2758664
20
125
40
25
100
AcDbArc
50
120
51
270
0
LINE
5
137
100
AcDbEntity
8
2-pavement
6
ByLayer
62
256
370
-1
100
AcDbLine
10
2033.19943936
20
445.962624492
11
1514.77590956
21
146.650660012
0
LINE
5
138
100
AcDbEntity
8
2-pavement
6
ByLayer
62
256
370
-1
100
AcDbLine
10
1140
20
559
11
1478
21
551
0
LINE
5
139
100
AcDbEntity
8
2-pavement
6
ByLayer
62
256
370
-1
100
AcDbLine
10
1478
20
551
11
1665
21
508
0
ARC
5
13A
100
AcDbEntity
8
2-pavement
6
ByLayer
62
256
370
-1
100
AcDbCircle
10
1658.19237886
20
450
40
176
100
AcDbArc
50
352.558250217
51
38.2663615762
0
ARC
5
13B
100
AcDbEntity
8
2-pavement
6
ByLayer
62
256
370
-1
100
AcDbCircle
10
1647.07214438
20
430.034674418
40
80
100
AcDbArc
50
315.012248192
51
437.050100673
0
ARC
5
13C
100
AcDbEntity
8
2-pavement
6
ByLayer
62
256
370
-1
100
AcDbCircle
10
1967.6846467
20
534
40
25
100
AcDbArc
50
300
51
90
0
LINE
5
13D
100
AcDbEntity
8
2-pavement
6
ByLayer
62
256
370
-1
100
AcDbLine
10
1796.37703793
20
559
11
1967.68458567
21
559
0
LINE
5
13E
100
AcDbEntity
8
2-pavement
6
ByLayer
62
256
370
-1
100
AcDbLine
10
1980.18458567
20
512.349329667
11
1832.70993957
21
427.204803047
0
LINE
5
13F
100
AcDbEntity
8
2-pavement
6
ByLayer
62
256
370
-1
100
AcDbLine
10
1703.65277832
20
373.478225945
11
1655.33901518
21
325.691178524
0
ARC
5
140
100
AcDbEntity
8
2-pavement
6
ByLayer
62
256
370
-1
100
AcDbCircle
10
864.05080757
20
1600
40
1500
100
AcDbArc
50
270.000002331
51
301.838412888
0
ARC
5
141
100
AcDbEntity
8
2-pavement
6
ByLayer
62
256
370
-1
100
AcDbCircle
10
2433.19950039
20
-246.857663297
40
760
100
AcDbArc
50
91.0886467193
51
119.999994952
0
LINE
5
142
100
AcDbEntity
8
2-pavement
6
ByLayer
62
256
370
-1
100
AcDbLine
10
2700.85087126
20
519.009050798
11
2418.85087126
21
513.009050798
0
ARC
5
143
100
AcDbEntity
8
2-pavement
6
ByLayer
62
256
370
-1
100
AcDbCircle
10
1647.07214438
20
430.034674418
40
40
100
AcDbArc
50
315.012248192
51
437.050100673
0
LINE
5
144
100
AcDbEntity
8
2-pavement
6
ByLayer
62
256
370
-1
100
AcDbLine
10
2053.19943936
20
411.321608341
11
1583.25662852
21
140
0
ARC
5
145
100
AcDbEntity
8
2-pavement
6
ByLayer
62
256
370
-1
100
AcDbCircle
10
864.05080757
20
1600
40
1460
100
AcDbArc
50
270.000002331
51
301.662856777
0
LINE
5
146
100
AcDbEntity
8
2-pavement
6
ByLayer
62
256
370
-1
100
AcDbLine
10
1675.52395187
20
401.91709236
11
1630.43398432
21
357.318694758
0
LINE
5
147
100
AcDbEntity
8
2-pavement
6
ByLayer
62
256
370
-1
100
AcDbLine
10
1472.99372261
20
511.107289252
11
1656.03607219
21
469.017337209
0
LINE
5
148
100
AcDbEntity
8
2-pavement
6
ByLayer
62
256
370
-1
100
AcDbLine
10
1139.5266935
20
519
11
1472.99372261
21
511.107289252
0
LINE
5
149
100
AcDbEntity
8
9-blocks
6
ByLayer
62
256
370
-1
100
AcDbLine
10
1900
20
100
11
1900
21
300
0
LINE
5
14A
100
AcDbEntity
8
9-blocks
6
ByLayer
62
256
370
-1
100
AcDbLine
10
850
20
300
11
850
21
100
0
LINE
5
14B
100
AcDbEntity
8
9-blocks
6
ByLayer
62
256
370
-1
100
AcDbLine
10
1850
20
600
11
1850
21
300
0
LINE
5
14C
100
AcDbEntity
8
9-blocks
6
ByLayer
62
256
370
-1
100
AcDbLine
10
1850
20
600
11
1850
21
300
0
LINE
5
14D
100
AcDbEntity
8
9-blocks
6
ByLayer
62
256
370
-1
100
AcDbLine
10
2700
20
300
11
2700
21
600
0
LINE
5
14E
100
AcDbEntity
8
9-blocks
6
ByLayer
62
256
370
-1
100
AcDbLine
10
1850
20
300
11
2700
21
300
0
LINE
5
14F
100
AcDbEntity
8
9-blocks
6
ByLayer
62
256
370
-1
100
AcDbLine
10
2700
20
600
11
1850
21
600
0
LINE
5
150
100
AcDbEntity
8
9-blocks
6
ByLayer
62
256
370
-1
100
AcDbLine
10
1100
20
600
11
1850
21
600
0
LINE
5
151
100
AcDbEntity
8
9-blocks
6
ByLayer
62
256
370
-1
100
AcDbLine
10
1850
20
300
11
1100
21
300
0
LINE
5
152
100
AcDbEntity
8
9-blocks
6
ByLayer
62
256
370
-1
100
AcDbLine
10
1100
20
300
11
1100
21
600
0
LINE
5
153
100
AcDbEntity
8
9-blocks
6
ByLayer
62
256
370
-1
100
AcDbLine
10
850
20
300
11
1900
21
300
0
LINE
5
154
100
AcDbEntity
8
2-pavement
6
ByLayer
62
256
370
-1
100
AcDbLine
10
2700
20
559
11
2740
21
559
0
LINE
5
155
100
AcDbEntity
8
2-pavement
6
ByLayer
62
256
370
-1
100
AcDbLine
10
1796.37703792
20
559
11
1967.6846467
21
559
0
LINE
5
156
100
AcDbEntity
8
2-pavement
6
ByLayer
62
256
370
-1
100
AcDbLine
10
-2740
20
559
11
1140
21
559
0
LINE
5
157
100
AcDbEntity
8
2-pavement
6
ByLayer
62
256
370
-1
100
AcDbLine
10
-2739.5266935
20
519
11
1139.5266935
21
519
0
LINE
5
158
100
AcDbEntity
8
2-pavement
6
ByLayer
62
256
370
-1
100
AcDbLine
10
2700
20
518.990947154
11
2739.5266935
21
519
0
LINE
5
159
100
AcDbEntity
8
2-pavement
6
ByLayer
62
256
370
-1
100
AcDbLine
10
1527.2758664
20
100
11
2464.0508686
21
100
0
LINE
5
15A
100
AcDbEntity
8
2-pavement
6
ByLayer
62
256
370
-1
100
AcDbLine
10
-2464.0508686
20
100
11
864.050868595
21
100
0
LINE
5
15B
100
AcDbEntity
8
2-pavement
6
ByLayer
62
256
370
-1
100
AcDbLine
10
1583.25662852
20
140
11
2464.0508686
21
140
0
LINE
5
15C
100
AcDbEntity
8
2-pavement
6
ByLayer
62
256
370
-1
100
AcDbLine
10
-2464.05086698
20
140
11
864.050866968
21
140
0
LINE
5
15D
100
AcDbEntity
8
9-blocks
6
ByLayer
62
256
370
-1
100
AcDbLine
10
0
20
100
11
100
21
100
0
LINE
5
15E
100
AcDbEntity
8
9-blocks
6
ByLayer
62
256
370
-1
100
AcDbLine
10
100
20
100
11
100
21
150
0
LINE
5
15F
100
AcDbEntity
8
9-blocks
6
ByLayer
62
256
370
-1
100
AcDbLine
10
100
20
150
11
0
21
150
0
LINE
5
160
100
AcDbEntity
8
9-blocks
6
ByLayer
62
256
370
-1
100
AcDbLine
10
0
20
150
11
0
21
100
0
LINE
5
161
100
AcDbEntity
8
4.0-shouldermarkings
6
ByLayer
62
256
370
-1
100
AcDbLine
10
-1.06066017178
20
101.060660172
11
32.8786796564
21
135
0
LINE
5
162
100
AcDbEntity
8
4.0-shouldermarkings
6
ByLayer
62
256
370
-1
100
AcDbLine
10
1.06066017178
20
98.9393398282
11
35
21
132.878679656
0
LINE
5
163
100
AcDbEntity
8
4.0-shouldermarkings
6
ByLayer
62
256
370
-1
100
AcDbLine
10
35
20
132.878679656
11
32.8786796564
21
135
0
LINE
5
164
100
AcDbEntity
8
3.0-outlines
6
ByLayer
62
256
370
-1
100
AcDbLine
10
35.7071067812
20
132.878679656
11
32.8786796564
21
135.707106781
0
LINE
5
165
100
AcDbEntity
8
3.0-outlines
6
ByLayer
62
256
370
-1
100
AcDbLine
10
-1.41421356237
20
101.414213562
11
32.8786796564
21
135.707106781
0
LINE
5
166
100
AcDbEntity
8
3.0-outlines
6
ByLayer
62
256
370
-1
100
AcDbLine
10
1.41421356237
20
98.5857864376
11
35.7071067812
21
132.878679656
0
LINE
5
167
100
AcDbEntity
8
3.0-outlines
6
ByLayer
62
256
370
-1
100
AcDbLine
10
0
20
100
11
34.2928932188
21
134.292893219
0
LINE
5
168
100
AcDbEntity
8
9-blocks
6
ByLayer
62
256
370
-1
100
AcDbLine
10
0
20
150
11
-100
21
150
0
LINE
5
169
100
AcDbEntity
8
9-blocks
6
ByLayer
62
256
370
-1
100
AcDbLine
10
-100
20
150
11
-100
21
100
0
LINE
5
16A
100
AcDbEntity
8
9-blocks
6
ByLayer
62
256
370
-1
100
AcDbLine
10
-100
20
100
11
0
21
100
0
LINE
5
16B
100
AcDbEntity
8
9-blocks
6
ByLayer
62
256
370
-1
100
AcDbLine
10
0
20
100
11
0
21
150
0
LINE
5
16C
100
AcDbEntity
8
4.0-shouldermarkings
6
ByLayer
62
256
370
-1
100
AcDbLine
10
1.06066017178
20
101.060660172
11
-32.8786796564
21
135
0
LINE
5
16D
100
AcDbEntity
8
4.0-shouldermarkings
6
ByLayer
62
256
370
-1
100
AcDbLine
10
-1.06066017178
20
98.9393398282
11
-35
21
132.878679656
0
LINE
5
16E
100
AcDbEntity
8
4.0-shouldermarkings
6
ByLayer
62
256
370
-1
100
AcDbLine
10
-35
20
132.878679656
11
-32.8786796564
21
135
0
LINE
5
16F
100
AcDbEntity
8
3.0-outlines
6
ByLayer
62
256
370
-1
100
AcDbLine
10
-35.7071067812
20
132.878679656
11
-32.8786796564
21
135.707106781
0
LINE
5
170
100
AcDbEntity
8
3.0-outlines
6
ByLayer
62
256
370
-1
100
AcDbLine
10
1.41421356237
20
101.414213562
11
-32.8786796564
21
135.707106781
0
LINE
5
171
100
AcDbEntity
8
3.0-outlines
6
ByLayer
62
256
370
-1
100
AcDbLine
10
-1.41421356237
20
98.5857864376
11
-35.7071067812
21
132.878679656
0
LINE
5
172
100
AcDbEntity
8
3.0-outlines
6
ByLayer
62
256
370
-1
100
AcDbLine
10
0
20
100
11
-34.2928932188
21
134.292893219
0
LINE
5
173
100
AcDbEntity
8
8-grid
6
ByLayer
62
256
370
-1
100
AcDbLine
10
5550
20
-150
11
5550
21
1100
0
LINE
5
174
100
AcDbEntity
8
8-grid
6
ByLayer
62
256
370
-1
100
AcDbLine
10
5500
20
-150
11
5500
21
1100
0
LINE
5
175
100
AcDbEntity
8
8-grid
6
ByLayer
62
256
370
-1
100
AcDbLine
10
5450
20
-150
11
5450
21
1100
0
LINE
5
176
100
AcDbEntity
8
8-grid
6
ByLayer
62
256
370
-1
100
AcDbLine
10
5400
20
-150
11
5400
21
1100
0
LINE
5
177
100
AcDbEntity
8
8-grid
6
ByLayer
62
256
370
-1
100
AcDbLine
10
5350
20
-150
11
5350
21
1100
0
LINE
5
178
100
AcDbEntity
8
8-grid
6
ByLayer
62
256
370
-1
100
AcDbLine
10
5300
20
-150
11
5300
21
1100
0
LINE
5
179
100
AcDbEntity
8
8-grid
6
ByLayer
62
256
370
-1
100
AcDbLine
10
5250
20
-150
11
5250
21
1100
0
LINE
5
17A
100
AcDbEntity
8
8-grid
6
ByLayer
62
256
370
-1
100
AcDbLine
10
5200
20
-150
11
5200
21
1100
0
LINE
5
17B
100
AcDbEntity
8
8-grid
6
ByLayer
62
256
370
-1
100
AcDbLine
10
5150
20
-150
11
5150
21
1100
0
LINE
5
17C
100
AcDbEntity
8
8-grid
6
ByLayer
62
256
370
-1
100
AcDbLine
10
5100
20
-150
11
5100
21
1100
0
LINE
5
17D
100
AcDbEntity
8
8-grid
6
ByLayer
62
256
370
-1
100
AcDbLine
10
5050
20
-150
11
5050
21
1100
0
LINE
5
17E
100
AcDbEntity
8
8-grid
6
ByLayer
62
256
370
-1
100
AcDbLine
10
5000
20
-150
11
5000
21
1100
0
LINE
5
17F
100
AcDbEntity
8
8-grid
6
ByLayer
62
256
370
-1
100
AcDbLine
10
4950
20
-150
11
4950
21
1100
0
LINE
5
180
100
AcDbEntity
8
8-grid
6
ByLayer
62
256
370
-1
100
AcDbLine
10
4550
20
-150
11
4550
21
1100
0
LINE
5
181
100
AcDbEntity
8
8-grid
6
ByLayer
62
256
370
-1
100
AcDbLine
10
4600
20
-150
11
4600
21
1100
0
LINE
5
182
100
AcDbEntity
8
8-grid
6
ByLayer
62
256
370
-1
100
AcDbLine
10
4650
20
-150
11
4650
21
1100
0
LINE
5
183
100
AcDbEntity
8
8-grid
6
ByLayer
62
256
370
-1
100
AcDbLine
10
4700
20
-150
11
4700
21
1100
0
LINE
5
184
100
AcDbEntity
8
8-grid
6
ByLayer
62
256
370
-1
100
AcDbLine
10
4750
20
-150
11
4750
21
1100
0
LINE
5
185
100
AcDbEntity
8
8-grid
6
ByLayer
62
256
370
-1
100
AcDbLine
10
4800
20
-150
11
4800
21
1100
0
LINE
5
186
100
AcDbEntity
8
8-grid
6
ByLayer
62
256
370
-1
100
AcDbLine
10
4850
20
-150
11
4850
21
1100
0
LINE
5
187
100
AcDbEntity
8
8-grid
6
ByLayer
62
256
370
-1
100
AcDbLine
10
4900
20
-150
11
4900
21
1100
0
LINE
5
188
100
AcDbEntity
8
8-grid
6
ByLayer
62
256
370
-1
100
AcDbLine
10
4500
20
-150
11
4500
21
1100
0
LINE
5
189
100
AcDbEntity
8
8-grid
6
ByLayer
62
256
370
-1
100
AcDbLine
10
4400
20
-150
11
4400
21
1100
0
LINE
5
18A
100
AcDbEntity
8
8-grid
6
ByLayer
62
256
370
-1
100
AcDbLine
10
4450
20
-150
11
4450
21
1100
0
LINE
5
18B
100
AcDbEntity
8
8-grid
6
ByLayer
62
256
370
-1
100
AcDbLine
10
4350
20
-150
11
4350
21
1100
0
LINE
5
18C
100
AcDbEntity
8
8-grid
6
ByLayer
62
256
370
-1
100
AcDbLine
10
4300
20
-150
11
4300
21
1100
0
LINE
5
18D
100
AcDbEntity
8
8-grid
6
ByLayer
62
256
370
-1
100
AcDbLine
10
4250
20
-150
11
4250
21
1100
0
LINE
5
18E
100
AcDbEntity
8
8-grid
6
ByLayer
62
256
370
-1
100
AcDbLine
10
4200
20
-150
11
4200
21
1100
0
LINE
5
18F
100
AcDbEntity
8
8-grid
6
ByLayer
62
256
370
-1
100
AcDbLine
10
4150
20
-150
11
4150
21
1100
0
LINE
5
190
100
AcDbEntity
8
8-grid
6
ByLayer
62
256
370
-1
100
AcDbLine
10
4100
20
-150
11
4100
21
1100
0
LINE
5
191
100
AcDbEntity
8
8-grid
6
ByLayer
62
256
370
-1
100
AcDbLine
10
4050
20
-150
11
4050
21
1100
0
LINE
5
192
100
AcDbEntity
8
8-grid
6
ByLayer
62
256
370
-1
100
AcDbLine
10
4000
20
-150
11
4000
21
1100
0
LINE
5
193
100
AcDbEntity
8
8-grid
6
ByLayer
62
256
370
-1
100
AcDbLine
10
3950
20
-150
11
3950
21
1100
0
LINE
5
194
100
AcDbEntity
8
8-grid
6
ByLayer
62
256
370
-1
100
AcDbLine
10
3900
20
-150
11
3900
21
1100
0
LINE
5
195
100
AcDbEntity
8
8-grid
6
ByLayer
62
256
370
-1
100
AcDbLine
10
3850
20
-150
11
3850
21
1100
0
LINE
5
196
100
AcDbEntity
8
8-grid
6
ByLayer
62
256
370
-1
100
AcDbLine
10
3800
20
-150
11
3800
21
1100
0
LINE
5
197
100
AcDbEntity
8
8-grid
6
ByLayer
62
256
370
-1
100
AcDbLine
10
3750
20
-150
11
3750
21
1100
0
LINE
5
198
100
AcDbEntity
8
8-grid
6
ByLayer
62
256
370
-1
100
AcDbLine
10
3700
20
-150
11
3700
21
1100
0
LINE
5
199
100
AcDbEntity
8
8-grid
6
ByLayer
62
256
370
-1
100
AcDbLine
10
3650
20
-150
11
3650
21
1100
0
LINE
5
19A
100
AcDbEntity
8
8-grid
6
ByLayer
62
256
370
-1
100
AcDbLine
10
3600
20
-150
11
3600
21
1100
0
LINE
5
19B
100
AcDbEntity
8
8-grid
6
ByLayer
62
256
370
-1
100
AcDbLine
10
3550
20
-150
11
3550
21
1100
0
LINE
5
19C
100
AcDbEntity
8
8-grid
6
ByLayer
62
256
370
-1
100
AcDbLine
10
3500
20
-150
11
3500
21
1100
0
LINE
5
19D
100
AcDbEntity
8
8-grid
6
ByLayer
62
256
370
-1
100
AcDbLine
10
3450
20
-150
11
3450
21
1100
0
LINE
5
19E
100
AcDbEntity
8
8-grid
6
ByLayer
62
256
370
-1
100
AcDbLine
10
3100
20
-150
11
3100
21
1100
0
LINE
5
19F
100
AcDbEntity
8
8-grid
6
ByLayer
62
256
370
-1
100
AcDbLine
10
3150
20
-150
11
3150
21
1100
0
LINE
5
1A0
100
AcDbEntity
8
8-grid
6
ByLayer
62
256
370
-1
100
AcDbLine
10
3200
20
-150
11
3200
21
1100
0
LINE
5
1A1
100
AcDbEntity
8
8-grid
6
ByLayer
62
256
370
-1
100
AcDbLine
10
3250
20
-150
11
3250
21
1100
0
LINE
5
1A2
100
AcDbEntity
8
8-grid
6
ByLayer
62
256
370
-1
100
AcDbLine
10
3300
20
-150
11
3300
21
1100
0
LINE
5
1A3
100
AcDbEntity
8
8-grid
6
ByLayer
62
256
370
-1
100
AcDbLine
10
3350
20
-150
11
3350
21
1100
0
LINE
5
1A4
100
AcDbEntity
8
8-grid
6
ByLayer
62
256
370
-1
100
AcDbLine
10
3400
20
-150
11
3400
21
1100
0
LINE
5
1A5
100
AcDbEntity
8
8-grid
6
ByLayer
62
256
370
-1
100
AcDbLine
10
2100
20
-150
11
2100
21
1100
0
LINE
5
1A6
100
AcDbEntity
8
8-grid
6
ByLayer
62
256
370
-1
100
AcDbLine
10
2150
20
-150
11
2150
21
1100
0
LINE
5
1A7
100
AcDbEntity
8
8-grid
6
ByLayer
62
256
370
-1
100
AcDbLine
10
2200
20
-150
11
2200
21
1100
0
LINE
5
1A8
100
AcDbEntity
8
8-grid
6
ByLayer
62
256
370
-1
100
AcDbLine
10
2250
20
-150
11
2250
21
1100
0
LINE
5
1A9
100
AcDbEntity
8
8-grid
6
ByLayer
62
256
370
-1
100
AcDbLine
10
2300
20
-150
11
2300
21
1100
0
LINE
5
1AA
100
AcDbEntity
8
8-grid
6
ByLayer
62
256
370
-1
100
AcDbLine
10
2350
20
-150
11
2350
21
1100
0
LINE
5
1AB
100
AcDbEntity
8
8-grid
6
ByLayer
62
256
370
-1
100
AcDbLine
10
2450
20
-150
11
2450
21
1100
0
LINE
5
1AC
100
AcDbEntity
8
8-grid
6
ByLayer
62
256
370
-1
100
AcDbLine
10
2400
20
-150
11
2400
21
1100
0
LINE
5
1AD
100
AcDbEntity
8
8-grid
6
ByLayer
62
256
370
-1
100
AcDbLine
10
2500
20
-150
11
2500
21
1100
0
LINE
5
1AE
100
AcDbEntity
8
8-grid
6
ByLayer
62
256
370
-1
100
AcDbLine
10
2550
20
-150
11
2550
21
1100
0
LINE
5
1AF
100
AcDbEntity
8
8-grid
6
ByLayer
62
256
370
-1
100
AcDbLine
10
2600
20
-150
11
2600
21
1100
0
LINE
5
1B0
100
AcDbEntity
8
8-grid
6
ByLayer
62
256
370
-1
100
AcDbLine
10
2650
20
-150
11
2650
21
1100
0
LINE
5
1B1
100
AcDbEntity
8
8-grid
6
ByLayer
62
256
370
-1
100
AcDbLine
10
2700
20
-150
11
2700
21
1100
0
LINE
5
1B2
100
AcDbEntity
8
8-grid
6
ByLayer
62
256
370
-1
100
AcDbLine
10
2750
20
-150
11
2750
21
1100
0
LINE
5
1B3
100
AcDbEntity
8
8-grid
6
ByLayer
62
256
370
-1
100
AcDbLine
10
2800
20
-150
11
2800
21
1100
0
LINE
5
1B4
100
AcDbEntity
8
8-grid
6
ByLayer
62
256
370
-1
100
AcDbLine
10
2850
20
-150
11
2850
21
1100
0
LINE
5
1B5
100
AcDbEntity
8
8-grid
6
ByLayer
62
256
370
-1
100
AcDbLine
10
2900
20
-150
11
2900
21
1100
0
LINE
5
1B6
100
AcDbEntity
8
8-grid
6
ByLayer
62
256
370
-1
100
AcDbLine
10
2950
20
-150
11
2950
21
1100
0
LINE
5
1B7
100
AcDbEntity
8
8-grid
6
ByLayer
62
256
370
-1
100
AcDbLine
10
3000
20
-150
11
3000
21
1100
0
LINE
5
1B8
100
AcDbEntity
8
8-grid
6
ByLayer
62
256
370
-1
100
AcDbLine
10
3050
20
-150
11
3050
21
1100
0
LINE
5
1B9
100
AcDbEntity
8
8-grid
6
ByLayer
62
256
370
-1
100
AcDbLine
10
2050
20
-150
11
2050
21
1100
0
LINE
5
1BA
100
AcDbEntity
8
8-grid
6
ByLayer
62
256
370
-1
100
AcDbLine
10
2000
20
-150
11
2000
21
1100
0
LINE
5
1BB
100
AcDbEntity
8
8-grid
6
ByLayer
62
256
370
-1
100
AcDbLine
10
1950
20
-150
11
1950
21
1100
0
LINE
5
1BC
100
AcDbEntity
8
8-grid
6
ByLayer
62
256
370
-1
100
AcDbLine
10
1900
20
-150
11
1900
21
1100
0
LINE
5
1BD
100
AcDbEntity
8
8-grid
6
ByLayer
62
256
370
-1
100
AcDbLine
10
1850
20
-150
11
1850
21
1100
0
LINE
5
1BE
100
AcDbEntity
8
8-grid
6
ByLayer
62
256
370
-1
100
AcDbLine
10
1800
20
-150
11
1800
21
1100
0
LINE
5
1BF
100
AcDbEntity
8
8-grid
6
ByLayer
62
256
370
-1
100
AcDbLine
10
1750
20
-150
11
1750
21
1100
0
LINE
5
1C0
100
AcDbEntity
8
8-grid
6
ByLayer
62
256
370
-1
100
AcDbLine
10
1700
20
-150
11
1700
21
1100
0
LINE
5
1C1
100
AcDbEntity
8
8-grid
6
ByLayer
62
256
370
-1
100
AcDbLine
10
1650
20
-150
11
1650
21
1100
0
LINE
5
1C2
100
AcDbEntity
8
8-grid
6
ByLayer
62
256
370
-1
100
AcDbLine
10
1600
20
-150
11
1600
21
1100
0
LINE
5
1C3
100
AcDbEntity
8
8-grid
6
ByLayer
62
256
370
-1
100
AcDbLine
10
1550
20
-150
11
1550
21
1100
0
LINE
5
1C4
100
AcDbEntity
8
8-grid
6
ByLayer
62
256
370
-1
100
AcDbLine
10
1500
20
-150
11
1500
21
1100
0
LINE
5
1C5
100
AcDbEntity
8
8-grid
6
ByLayer
62
256
370
-1
100
AcDbLine
10
1450
20
-150
11
1450
21
1100
0
LINE
5
1C6
100
AcDbEntity
8
8-grid
6
ByLayer
62
256
370
-1
100
AcDbLine
10
1400
20
-150
11
1400
21
1100
0
LINE
5
1C7
100
AcDbEntity
8
8-grid
6
ByLayer
62
256
370
-1
100
AcDbLine
10
1350
20
-150
11
1350
21
1100
0
LINE
5
1C8
100
AcDbEntity
8
8-grid
6
ByLayer
62
256
370
-1
100
AcDbLine
10
1300
20
-150
11
1300
21
1100
0
LINE
5
1C9
100
AcDbEntity
8
8-grid
6
ByLayer
62
256
370
-1
100
AcDbLine
10
1250
20
-150
11
1250
21
1100
0
LINE
5
1CA
100
AcDbEntity
8
8-grid
6
ByLayer
62
256
370
-1
100
AcDbLine
10
1200
20
-150
11
1200
21
1100
0
LINE
5
1CB
100
AcDbEntity
8
8-grid
6
ByLayer
62
256
370
-1
100
AcDbLine
10
1150
20
-150
11
1150
21
1100
0
LINE
5
1CC
100
AcDbEntity
8
8-grid
6
ByLayer
62
256
370
-1
100
AcDbLine
10
1100
20
-150
11
1100
21
1100
0
LINE
5
1CD
100
AcDbEntity
8
8-grid
6
ByLayer
62
256
370
-1
100
AcDbLine
10
1050
20
-150
11
1050
21
1100
0
LINE
5
1CE
100
AcDbEntity
8
8-grid
6
ByLayer
62
256
370
-1
100
AcDbLine
10
1000
20
-150
11
1000
21
1100
0
LINE
5
1CF
100
AcDbEntity
8
8-grid
6
ByLayer
62
256
370
-1
100
AcDbLine
10
950
20
-150
11
950
21
1100
0
LINE
5
1D0
100
AcDbEntity
8
8-grid
6
ByLayer
62
256
370
-1
100
AcDbLine
10
900
20
-150
11
900
21
1100
0
LINE
5
1D1
100
AcDbEntity
8
8-grid
6
ByLayer
62
256
370
-1
100
AcDbLine
10
850
20
-150
11
850
21
1100
0
LINE
5
1D2
100
AcDbEntity
8
8-grid
6
ByLayer
62
256
370
-1
100
AcDbLine
10
800
20
-150
11
800
21
1100
0
LINE
5
1D3
100
AcDbEntity
8
8-grid
6
ByLayer
62
256
370
-1
100
AcDbLine
10
750
20
-150
11
750
21
1100
0
LINE
5
1D4
100
AcDbEntity
8
8-grid
6
ByLayer
62
256
370
-1
100
AcDbLine
10
700
20
-150
11
700
21
1100
0
LINE
5
1D5
100
AcDbEntity
8
8-grid
6
ByLayer
62
256
370
-1
100
AcDbLine
10
650
20
-150
11
650
21
1100
0
LINE
5
1D6
100
AcDbEntity
8
8-grid
6
ByLayer
62
256
370
-1
100
AcDbLine
10
600
20
-150
11
600
21
1100
0
LINE
5
1D7
100
AcDbEntity
8
8-grid
6
ByLayer
62
256
370
-1
100
AcDbLine
10
550
20
-150
11
550
21
1100
0
LINE
5
1D8
100
AcDbEntity
8
8-grid
6
ByLayer
62
256
370
-1
100
AcDbLine
10
500
20
-150
11
500
21
1100
0
LINE
5
1D9
100
AcDbEntity
8
8-grid
6
ByLayer
62
256
370
-1
100
AcDbLine
10
450
20
-150
11
450
21
1100
0
LINE
5
1DA
100
AcDbEntity
8
8-grid
6
ByLayer
62
256
370
-1
100
AcDbLine
10
400
20
-150
11
400
21
1100
0
LINE
5
1DB
100
AcDbEntity
8
8-grid
6
ByLayer
62
256
370
-1
100
AcDbLine
10
350
20
-150
11
350
21
1100
0
LINE
5
1DC
100
AcDbEntity
8
8-grid
6
ByLayer
62
256
370
-1
100
AcDbLine
10
300
20
-150
11
300
21
1100
0
LINE
5
1DD
100
AcDbEntity
8
8-grid
6
ByLayer
62
256
370
-1
100
AcDbLine
10
250
20
-150
11
250
21
1100
0
LINE
5
1DE
100
AcDbEntity
8
8-grid
6
ByLayer
62
256
370
-1
100
AcDbLine
10
200
20
-150
11
200
21
1100
0
LINE
5
1DF
100
AcDbEntity
8
8-grid
6
ByLayer
62
256
370
-1
100
AcDbLine
10
150
20
-150
11
150
21
1100
0
LINE
5
1E0
100
AcDbEntity
8
8-grid
6
ByLayer
62
256
370
-1
100
AcDbLine
10
100
20
-150
11
100
21
1100
0
LINE
5
1E1
100
AcDbEntity
8
8-grid
6
ByLayer
62
256
370
-1
100
AcDbLine
10
50
20
-150
11
50
21
1100
0
LINE
5
1E2
100
AcDbEntity
8
8-grid
6
ByLayer
62
256
370
-1
100
AcDbLine
10
-0
20
-150
11
0
21
1100
0
LINE
5
1E3
100
AcDbEntity
8
8-grid
6
ByLayer
62
256
370
-1
100
AcDbLine
10
-50
20
-150
11
-50
21
1100
0
LINE
5
1E4
100
AcDbEntity
8
8-grid
6
ByLayer
62
256
370
-1
100
AcDbLine
10
-100
20
-150
11
-100
21
1100
0
LINE
5
1E5
100
AcDbEntity
8
8-grid
6
ByLayer
62
256
370
-1
100
AcDbLine
10
-150
20
-150
11
-150
21
1100
0
LINE
5
1E6
100
AcDbEntity
8
8-grid
6
ByLayer
62
256
370
-1
100
AcDbLine
10
-200
20
-150
11
-200
21
1100
0
LINE
5
1E7
100
AcDbEntity
8
8-grid
6
ByLayer
62
256
370
-1
100
AcDbLine
10
-250
20
-150
11
-250
21
1100
0
LINE
5
1E8
100
AcDbEntity
8
8-grid
6
ByLayer
62
256
370
-1
100
AcDbLine
10
-300
20
-150
11
-300
21
1100
0
LINE
5
1E9
100
AcDbEntity
8
8-grid
6
ByLayer
62
256
370
-1
100
AcDbLine
10
-350
20
-150
11
-350
21
1100
0
LINE
5
1EA
100
AcDbEntity
8
8-grid
6
ByLayer
62
256
370
-1
100
AcDbLine
10
-400
20
-150
11
-400
21
1100
0
LINE
5
1EB
100
AcDbEntity
8
8-grid
6
ByLayer
62
256
370
-1
100
AcDbLine
10
-450
20
-150
11
-450
21
1100
0
LINE
5
1EC
100
AcDbEntity
8
8-grid
6
ByLayer
62
256
370
-1
100
AcDbLine
10
-500
20
-150
11
-500
21
1100
0
LINE
5
1ED
100
AcDbEntity
8
8-grid
6
ByLayer
62
256
370
-1
100
AcDbLine
10
-550
20
-150
11
-550
21
1100
0
LINE
5
1EE
100
AcDbEntity
8
8-grid
6
ByLayer
62
256
370
-1
100
AcDbLine
10
-600
20
-150
11
-600
21
1100
0
LINE
5
1EF
100
AcDbEntity
8
8-grid
6
ByLayer
62
256
370
-1
100
AcDbLine
10
-650
20
-150
11
-650
21
1100
0
LINE
5
1F0
100
AcDbEntity
8
8-grid
6
ByLayer
62
256
370
-1
100
AcDbLine
10
-700
20
-150
11
-700
21
1100
0
LINE
5
1F1
100
AcDbEntity
8
8-grid
6
ByLayer
62
256
370
-1
100
AcDbLine
10
-750
20
-150
11
-750
21
1100
0
LINE
5
1F2
100
AcDbEntity
8
8-grid
6
ByLayer
62
256
370
-1
100
AcDbLine
10
-800
20
-150
11
-800
21
1100
0
LINE
5
1F3
100
AcDbEntity
8
8-grid
6
ByLayer
62
256
370
-1
100
AcDbLine
10
-850
20
-150
11
-850
21
1100
0
LINE
5
1F4
100
AcDbEntity
8
8-grid
6
ByLayer
62
256
370
-1
100
AcDbLine
10
-900
20
-150
11
-900
21
1100
0
LINE
5
1F5
100
AcDbEntity
8
8-grid
6
ByLayer
62
256
370
-1
100
AcDbLine
10
-950
20
-150
11
-950
21
1100
0
LINE
5
1F6
100
AcDbEntity
8
8-grid
6
ByLayer
62
256
370
-1
100
AcDbLine
10
-1000
20
-150
11
-1000
21
1100
0
LINE
5
1F7
100
AcDbEntity
8
8-grid
6
ByLayer
62
256
370
-1
100
AcDbLine
10
-1050
20
-150
11
-1050
21
1100
0
LINE
5
1F8
100
AcDbEntity
8
8-grid
6
ByLayer
62
256
370
-1
100
AcDbLine
10
-1100
20
-150
11
-1100
21
1100
0
LINE
5
1F9
100
AcDbEntity
8
8-grid
6
ByLayer
62
256
370
-1
100
AcDbLine
10
-1150
20
-150
11
-1150
21
1100
0
LINE
5
1FA
100
AcDbEntity
8
8-grid
6
ByLayer
62
256
370
-1
100
AcDbLine
10
-1200
20
-150
11
-1200
21
1100
0
LINE
5
1FB
100
AcDbEntity
8
8-grid
6
ByLayer
62
256
370
-1
100
AcDbLine
10
-1250
20
-150
11
-1250
21
1100
0
LINE
5
1FC
100
AcDbEntity
8
8-grid
6
ByLayer
62
256
370
-1
100
AcDbLine
10
-1300
20
-150
11
-1300
21
1100
0
LINE
5
1FD
100
AcDbEntity
8
8-grid
6
ByLayer
62
256
370
-1
100
AcDbLine
10
-1350
20
-150
11
-1350
21
1100
0
LINE
5
1FE
100
AcDbEntity
8
8-grid
6
ByLayer
62
256
370
-1
100
AcDbLine
10
-1400
20
-150
11
-1400
21
1100
0
LINE
5
1FF
100
AcDbEntity
8
8-grid
6
ByLayer
62
256
370
-1
100
AcDbLine
10
-1450
20
-150
11
-1450
21
1100
0
LINE
5
200
100
AcDbEntity
8
8-grid
6
ByLayer
62
256
370
-1
100
AcDbLine
10
-1500
20
-150
11
-1500
21
1100
0
LINE
5
201
100
AcDbEntity
8
8-grid
6
ByLayer
62
256
370
-1
100
AcDbLine
10
-1550
20
-150
11
-1550
21
1100
0
LINE
5
202
100
AcDbEntity
8
8-grid
6
ByLayer
62
256
370
-1
100
AcDbLine
10
-1600
20
-150
11
-1600
21
1100
0
LINE
5
203
100
AcDbEntity
8
8-grid
6
ByLayer
62
256
370
-1
100
AcDbLine
10
-1650
20
-150
11
-1650
21
1100
0
LINE
5
204
100
AcDbEntity
8
8-grid
6
ByLayer
62
256
370
-1
100
AcDbLine
10
-1700
20
-150
11
-1700
21
1100
0
LINE
5
205
100
AcDbEntity
8
8-grid
6
ByLayer
62
256
370
-1
100
AcDbLine
10
-1750
20
-150
11
-1750
21
1100
0
LINE
5
206
100
AcDbEntity
8
8-grid
6
ByLayer
62
256
370
-1
100
AcDbLine
10
-1800
20
-150
11
-1800
21
1100
0
LINE
5
207
100
AcDbEntity
8
8-grid
6
ByLayer
62
256
370
-1
100
AcDbLine
10
-1850
20
-150
11
-1850
21
1100
0
LINE
5
208
100
AcDbEntity
8
8-grid
6
ByLayer
62
256
370
-1
100
AcDbLine
10
-1900
20
-150
11
-1900
21
1100
0
LINE
5
209
100
AcDbEntity
8
8-grid
6
ByLayer
62
256
370
-1
100
AcDbLine
10
-1950
20
-150
11
-1950
21
1100
0
LINE
5
20A
100
AcDbEntity
8
8-grid
6
ByLayer
62
256
370
-1
100
AcDbLine
10
-2000
20
-150
11
-2000
21
1100
0
LINE
5
20B
100
AcDbEntity
8
8-grid
6
ByLayer
62
256
370
-1
100
AcDbLine
10
-2050
20
-150
11
-2050
21
1100
0
LINE
5
20C
100
AcDbEntity
8
8-grid
6
ByLayer
62
256
370
-1
100
AcDbLine
10
-2100
20
-150
11
-2100
21
1100
0
LINE
5
20D
100
AcDbEntity
8
8-grid
6
ByLayer
62
256
370
-1
100
AcDbLine
10
-2150
20
-150
11
-2150
21
1100
0
LINE
5
20E
100
AcDbEntity
8
8-grid
6
ByLayer
62
256
370
-1
100
AcDbLine
10
-2200
20
-150
11
-2200
21
1100
0
LINE
5
20F
100
AcDbEntity
8
8-grid
6
ByLayer
62
256
370
-1
100
AcDbLine
10
-2250
20
-150
11
-2250
21
1100
0
LINE
5
210
100
AcDbEntity
8
8-grid
6
ByLayer
62
256
370
-1
100
AcDbLine
10
-2300
20
-150
11
-2300
21
1100
0
LINE
5
211
100
AcDbEntity
8
8-grid
6
ByLayer
62
256
370
-1
100
AcDbLine
10
-2350
20
-150
11
-2350
21
1100
0
LINE
5
212
100
AcDbEntity
8
8-grid
6
ByLayer
62
256
370
-1
100
AcDbLine
10
-2400
20
-150
11
-2400
21
1100
0
LINE
5
213
100
AcDbEntity
8
8-grid
6
ByLayer
62
256
370
-1
100
AcDbLine
10
-2450
20
-150
11
-2450
21
1100
0
LINE
5
214
100
AcDbEntity
8
8-grid
6
ByLayer
62
256
370
-1
100
AcDbLine
10
-2500
20
-150
11
-2500
21
1100
0
LINE
5
215
100
AcDbEntity
8
8-grid
6
ByLayer
62
256
370
-1
100
AcDbLine
10
-2550
20
-150
11
-2550
21
1100
0
LINE
5
216
100
AcDbEntity
8
8-grid
6
ByLayer
62
256
370
-1
100
AcDbLine
10
-2600
20
-150
11
-2600
21
1100
0
LINE
5
217
100
AcDbEntity
8
8-grid
6
ByLayer
62
256
370
-1
100
AcDbLine
10
-2650
20
-150
11
-2650
21
1100
0
LINE
5
218
100
AcDbEntity
8
8-grid
6
ByLayer
62
256
370
-1
100
AcDbLine
10
-2700
20
-150
11
-2700
21
1100
0
LINE
5
219
100
AcDbEntity
8
8-grid
6
ByLayer
62
256
370
-1
100
AcDbLine
10
-2750
20
-150
11
-2750
21
1100
0
LINE
5
21A
100
AcDbEntity
8
8-grid
6
ByLayer
62
256
370
-1
100
AcDbLine
10
-2800
20
-150
11
-2800
21
1100
0
LINE
5
21B
100
AcDbEntity
8
8-grid
6
ByLayer
62
256
370
-1
100
AcDbLine
10
-2850
20
-150
11
-2850
21
1100
0
LINE
5
21C
100
AcDbEntity
8
8-grid
6
ByLayer
62
256
370
-1
100
AcDbLine
10
-2900
20
-150
11
-2900
21
1100
0
LINE
5
21D
100
AcDbEntity
8
8-grid
6
ByLayer
62
256
370
-1
100
AcDbLine
10
-2950
20
-150
11
-2950
21
1100
0
LINE
5
21E
100
AcDbEntity
8
8-grid
6
ByLayer
62
256
370
-1
100
AcDbLine
10
-3000
20
-150
11
-3000
21
1100
0
LINE
5
21F
100
AcDbEntity
8
8-grid
6
ByLayer
62
256
370
-1
100
AcDbLine
10
-3050
20
-150
11
-3050
21
1100
0
LINE
5
220
100
AcDbEntity
8
8-grid
6
ByLayer
62
256
370
-1
100
AcDbLine
10
-3100
20
-150
11
-3100
21
1100
0
LINE
5
221
100
AcDbEntity
8
8-grid
6
ByLayer
62
256
370
-1
100
AcDbLine
10
-3150
20
-150
11
-3150
21
1100
0
LINE
5
222
100
AcDbEntity
8
8-grid
6
ByLayer
62
256
370
-1
100
AcDbLine
10
-3200
20
-150
11
-3200
21
1100
0
LINE
5
223
100
AcDbEntity
8
8-grid
6
ByLayer
62
256
370
-1
100
AcDbLine
10
-3250
20
-150
11
-3250
21
1100
0
LINE
5
224
100
AcDbEntity
8
8-grid
6
ByLayer
62
256
370
-1
100
AcDbLine
10
-3300
20
-150
11
-3300
21
1100
0
LINE
5
225
100
AcDbEntity
8
8-grid
6
ByLayer
62
256
370
-1
100
AcDbLine
10
-3350
20
-150
11
-3350
21
1100
0
LINE
5
226
100
AcDbEntity
8
8-grid
6
ByLayer
62
256
370
-1
100
AcDbLine
10
-3400
20
-150
11
-3400
21
1100
0
LINE
5
227
100
AcDbEntity
8
8-grid
6
ByLayer
62
256
370
-1
100
AcDbLine
10
-3450
20
-150
11
-3450
21
1100
0
LINE
5
228
100
AcDbEntity
8
8-grid
6
ByLayer
62
256
370
-1
100
AcDbLine
10
-3500
20
-150
11
-3500
21
1100
0
LINE
5
229
100
AcDbEntity
8
8-grid
6
ByLayer
62
256
370
-1
100
AcDbLine
10
-3550
20
-150
11
-3550
21
1100
0
LINE
5
22A
100
AcDbEntity
8
8-grid
6
ByLayer
62
256
370
-1
100
AcDbLine
10
-3600
20
-150
11
-3600
21
1100
0
LINE
5
22B
100
AcDbEntity
8
8-grid
6
ByLayer
62
256
370
-1
100
AcDbLine
10
-3650
20
-150
11
-3650
21
1100
0
LINE
5
22C
100
AcDbEntity
8
8-grid
6
ByLayer
62
256
370
-1
100
AcDbLine
10
-3700
20
-150
11
-3700
21
1100
0
LINE
5
22D
100
AcDbEntity
8
8-grid
6
ByLayer
62
256
370
-1
100
AcDbLine
10
-3750
20
-150
11
-3750
21
1100
0
LINE
5
22E
100
AcDbEntity
8
8-grid
6
ByLayer
62
256
370
-1
100
AcDbLine
10
-3800
20
-150
11
-3800
21
1100
0
LINE
5
22F
100
AcDbEntity
8
8-grid
6
ByLayer
62
256
370
-1
100
AcDbLine
10
-3850
20
-150
11
-3850
21
1100
0
LINE
5
230
100
AcDbEntity
8
8-grid
6
ByLayer
62
256
370
-1
100
AcDbLine
10
-3900
20
-150
11
-3900
21
1100
0
LINE
5
231
100
AcDbEntity
8
8-grid
6
ByLayer
62
256
370
-1
100
AcDbLine
10
-3950
20
-150
11
-3950
21
1100
0
LINE
5
232
100
AcDbEntity
8
8-grid
6
ByLayer
62
256
370
-1
100
AcDbLine
10
-4000
20
-150
11
-4000
21
1100
0
LINE
5
233
100
AcDbEntity
8
8-grid
6
ByLayer
62
256
370
-1
100
AcDbLine
10
-4050
20
-150
11
-4050
21
1100
0
LINE
5
234
100
AcDbEntity
8
8-grid
6
ByLayer
62
256
370
-1
100
AcDbLine
10
-4100
20
-150
11
-4100
21
1100
0
LINE
5
235
100
AcDbEntity
8
8-grid
6
ByLayer
62
256
370
-1
100
AcDbLine
10
-4150
20
-150
11
-4150
21
1100
0
LINE
5
236
100
AcDbEntity
8
8-grid
6
ByLayer
62
256
370
-1
100
AcDbLine
10
-4200
20
-150
11
-4200
21
1100
0
LINE
5
237
100
AcDbEntity
8
8-grid
6
ByLayer
62
256
370
-1
100
AcDbLine
10
-4250
20
-150
11
-4250
21
1100
0
LINE
5
238
100
AcDbEntity
8
8-grid
6
ByLayer
62
256
370
-1
100
AcDbLine
10
-4300
20
-150
11
-4300
21
1100
0
LINE
5
239
100
AcDbEntity
8
8-grid
6
ByLayer
62
256
370
-1
100
AcDbLine
10
-4350
20
-150
11
-4350
21
1100
0
LINE
5
23A
100
AcDbEntity
8
8-grid
6
ByLayer
62
256
370
-1
100
AcDbLine
10
-4400
20
-150
11
-4400
21
1100
0
LINE
5
23B
100
AcDbEntity
8
8-grid
6
ByLayer
62
256
370
-1
100
AcDbLine
10
-4450
20
-150
11
-4450
21
1100
0
LINE
5
23C
100
AcDbEntity
8
8-grid
6
ByLayer
62
256
370
-1
100
AcDbLine
10
-4500
20
-150
11
-4500
21
1100
0
LINE
5
23D
100
AcDbEntity
8
8-grid
6
ByLayer
62
256
370
-1
100
AcDbLine
10
-4550
20
-150
11
-4550
21
1100
0
LINE
5
23E
100
AcDbEntity
8
8-grid
6
ByLayer
62
256
370
-1
100
AcDbLine
10
-4600
20
-150
11
-4600
21
1100
0
LINE
5
23F
100
AcDbEntity
8
8-grid
6
ByLayer
62
256
370
-1
100
AcDbLine
10
-4650
20
-150
11
-4650
21
1100
0
LINE
5
240
100
AcDbEntity
8
8-grid
6
ByLayer
62
256
370
-1
100
AcDbLine
10
-4700
20
-150
11
-4700
21
1100
0
LINE
5
241
100
AcDbEntity
8
8-grid
6
ByLayer
62
256
370
-1
100
AcDbLine
10
-4750
20
-150
11
-4750
21
1100
0
LINE
5
242
100
AcDbEntity
8
8-grid
6
ByLayer
62
256
370
-1
100
AcDbLine
10
-4800
20
-150
11
-4800
21
1100
0
LINE
5
243
100
AcDbEntity
8
8-grid
6
ByLayer
62
256
370
-1
100
AcDbLine
10
-4850
20
-150
11
-4850
21
1100
0
LINE
5
244
100
AcDbEntity
8
8-grid
6
ByLayer
62
256
370
-1
100
AcDbLine
10
-4900
20
-150
11
-4900
21
1100
0
LINE
5
245
100
AcDbEntity
8
8-grid
6
ByLayer
62
256
370
-1
100
AcDbLine
10
-4950
20
-150
11
-4950
21
1100
0
LINE
5
246
100
AcDbEntity
8
8-grid
6
ByLayer
62
256
370
-1
100
AcDbLine
10
-5000
20
-150
11
-5000
21
1100
0
LINE
5
247
100
AcDbEntity
8
8-grid
6
ByLayer
62
256
370
-1
100
AcDbLine
10
-5050
20
-150
11
-5050
21
1100
0
LINE
5
248
100
AcDbEntity
8
8-grid
6
ByLayer
62
256
370
-1
100
AcDbLine
10
-5100
20
-150
11
-5100
21
1100
0
LINE
5
249
100
AcDbEntity
8
8-grid
6
ByLayer
62
256
370
-1
100
AcDbLine
10
-5150
20
-150
11
-5150
21
1100
0
LINE
5
24A
100
AcDbEntity
8
8-grid
6
ByLayer
62
256
370
-1
100
AcDbLine
10
-5200
20
-150
11
-5200
21
1100
0
LINE
5
24B
100
AcDbEntity
8
8-grid
6
ByLayer
62
256
370
-1
100
AcDbLine
10
-5250
20
-150
11
-5250
21
1100
0
LINE
5
24C
100
AcDbEntity
8
8-grid
6
ByLayer
62
256
370
-1
100
AcDbLine
10
-5300
20
-150
11
-5300
21
1100
0
LINE
5
24D
100
AcDbEntity
8
8-grid
6
ByLayer
62
256
370
-1
100
AcDbLine
10
-5350
20
-150
11
-5350
21
1100
0
LINE
5
24E
100
AcDbEntity
8
8-grid
6
ByLayer
62
256
370
-1
100
AcDbLine
10
-5400
20
-150
11
-5400
21
1100
0
LINE
5
24F
100
AcDbEntity
8
8-grid
6
ByLayer
62
256
370
-1
100
AcDbLine
10
-5450
20
-150
11
-5450
21
1100
0
LINE
5
250
100
AcDbEntity
8
8-grid
6
ByLayer
62
256
370
-1
100
AcDbLine
10
-5500
20
-150
11
-5500
21
1100
0
LINE
5
251
100
AcDbEntity
8
8-grid
6
ByLayer
62
256
370
-1
100
AcDbLine
10
-5550
20
-150
11
-5550
21
1100
0
LINE
5
252
100
AcDbEntity
8
8-grid
6
ByLayer
62
256
370
-1
100
AcDbLine
10
-5550
20
500
11
5550
21
500
0
LINE
5
253
100
AcDbEntity
8
8-grid
6
ByLayer
62
256
370
-1
100
AcDbLine
10
-5550
20
450
11
5550
21
450
0
LINE
5
254
100
AcDbEntity
8
8-grid
6
ByLayer
62
256
370
-1
100
AcDbLine
10
-5550
20
400
11
5550
21
400
0
LINE
5
255
100
AcDbEntity
8
8-grid
6
ByLayer
62
256
370
-1
100
AcDbLine
10
-5550
20
350
11
5550
21
350
0
LINE
5
256
100
AcDbEntity
8
8-grid
6
ByLayer
62
256
370
-1
100
AcDbLine
10
-5550
20
300
11
5550
21
300
0
LINE
5
257
100
AcDbEntity
8
8-grid
6
ByLayer
62
256
370
-1
100
AcDbLine
10
-5550
20
250
11
5550
21
250
0
LINE
5
258
100
AcDbEntity
8
8-grid
6
ByLayer
62
256
370
-1
100
AcDbLine
10
-5550
20
200
11
5550
21
200
0
LINE
5
259
100
AcDbEntity
8
8-grid
6
ByLayer
62
256
370
-1
100
AcDbLine
10
-5550
20
150
11
5550
21
150
0
LINE
5
25A
100
AcDbEntity
8
8-grid
6
ByLayer
62
256
370
-1
100
AcDbLine
10
-5550
20
100
11
5550
21
100
0
LINE
5
25B
100
AcDbEntity
8
8-grid
6
ByLayer
62
256
370
-1
100
AcDbLine
10
-5550
20
50
11
5550
21
50
0
LINE
5
25C
100
AcDbEntity
8
8-grid
6
ByLayer
62
256
370
-1
100
AcDbLine
10
-5550
20
6.55195196343e-13
11
5550
21
-1.33731622267e-12
0
LINE
5
25D
100
AcDbEntity
8
8-grid
6
ByLayer
62
256
370
-1
100
AcDbLine
10
-5550
20
-50
11
5550
21
-50
0
LINE
5
25E
100
AcDbEntity
8
8-grid
6
ByLayer
62
256
370
-1
100
AcDbLine
10
-5550
20
-100
11
5550
21
-100
0
LINE
5
25F
100
AcDbEntity
8
8-grid
6
ByLayer
62
256
370
-1
100
AcDbLine
10
-5550
20
-150
11
5550
21
-150
0
LINE
5
260
100
AcDbEntity
8
8-grid
6
ByLayer
62
256
370
-1
100
AcDbLine
10
-5550
20
1100
11
5550
21
1100
0
LINE
5
261
100
AcDbEntity
8
8-grid
6
ByLayer
62
256
370
-1
100
AcDbLine
10
-5550
20
1050
11
5550
21
1050
0
LINE
5
262
100
AcDbEntity
8
8-grid
6
ByLayer
62
256
370
-1
100
AcDbLine
10
-5550
20
1000
11
5550
21
1000
0
LINE
5
263
100
AcDbEntity
8
8-grid
6
ByLayer
62
256
370
-1
100
AcDbLine
10
-5550
20
950
11
5550
21
950
0
LINE
5
264
100
AcDbEntity
8
8-grid
6
ByLayer
62
256
370
-1
100
AcDbLine
10
-5550
20
900
11
5550
21
900
0
LINE
5
265
100
AcDbEntity
8
8-grid
6
ByLayer
62
256
370
-1
100
AcDbLine
10
-5550
20
850
11
5550
21
850
0
LINE
5
266
100
AcDbEntity
8
8-grid
6
ByLayer
62
256
370
-1
100
AcDbLine
10
-5550
20
800
11
5550
21
800
0
LINE
5
267
100
AcDbEntity
8
8-grid
6
ByLayer
62
256
370
-1
100
AcDbLine
10
-5550
20
750
11
5550
21
750
0
LINE
5
268
100
AcDbEntity
8
8-grid
6
ByLayer
62
256
370
-1
100
AcDbLine
10
-5550
20
700
11
5550
21
700
0
LINE
5
269
100
AcDbEntity
8
8-grid
6
ByLayer
62
256
370
-1
100
AcDbLine
10
-5550
20
650
11
5550
21
650
0
LINE
5
26A
100
AcDbEntity
8
8-grid
6
ByLayer
62
256
370
-1
100
AcDbLine
10
-5550
20
600
11
5550
21
600
0
LINE
5
26B
100
AcDbEntity
8
8-grid
6
ByLayer
62
256
370
-1
100
AcDbLine
10
-5550
20
550
11
5550
21
550
0
ARC
5
26C
100
AcDbEntity
8
1-centerlines
6
ByLayer
62
256
370
-1
100
AcDbCircle
10
0
20
0
40
0
100
AcDbArc
50
0
51
0
0
LINE
5
26D
100
AcDbEntity
8
9-blocks
6
ByLayer
62
256
370
-1
100
AcDbLine
10
5550
20
-100
11
5500
21
-100
0
LINE
5
26E
100
AcDbEntity
8
9-blocks
6
ByLayer
62
256
370
-1
100
AcDbLine
10
5500
20
-100
11
5500
21
-150
0
LINE
5
26F
100
AcDbEntity
8
9-blocks
6
ByLayer
62
256
370
-1
100
AcDbLine
10
5500
20
-150
11
5550
21
-150
0
LINE
5
270
100
AcDbEntity
8
9-blocks
6
ByLayer
62
256
370
-1
100
AcDbLine
10
5550
20
-150
11
5550
21
-100
0
LINE
5
271
100
AcDbEntity
8
99-Temp
6
ByLayer
62
256
370
-1
100
AcDbLine
10
5550
20
-150
11
2150
21
-150
0
LINE
5
272
100
AcDbEntity
8
99-Temp
6
ByLayer
62
256
370
-1
100
AcDbLine
10
2150
20
-150
11
2150
21
1100
0
LINE
5
273
100
AcDbEntity
8
99-Temp
6
ByLayer
62
256
370
-1
100
AcDbLine
10
2150
20
1100
11
5550
21
1100
0
LINE
5
274
100
AcDbEntity
8
99-Temp
6
ByLayer
62
256
370
-1
100
AcDbLine
10
5550
20
1100
11
5550
21
-150
0
LINE
5
275
100
AcDbEntity
8
2-pavement
6
ByLayer
62
256
370
-1
100
AcDbLine
10
5000
20
600
11
5000
21
-100
0
LINE
5
276
100
AcDbEntity
8
2-pavement
6
ByLayer
62
256
370
-1
100
AcDbLine
10
5500
20
-140
11
5500
21
140
0
LINE
5
277
100
AcDbEntity
8
2-pavement
6
ByLayer
62
256
370
-1
100
AcDbLine
10
5500
20
140
11
5040
21
140
0
LINE
5
278
100
AcDbEntity
8
2-pavement
6
ByLayer
62
256
370
-1
100
AcDbLine
10
5000
20
-140
11
5500
21
-140
0
ARC
5
279
100
AcDbEntity
8
1-centerlines
6
ByLayer
62
256
370
-1
100
AcDbCircle
10
4844
20
885
40
115
100
AcDbArc
50
0
51
90
0
LINE
5
27A
100
AcDbEntity
8
1-centerlines
6
ByLayer
62
256
370
-1
100
AcDbLine
10
4959
20
600
11
4959
21
885
0
LINE
5
27B
100
AcDbEntity
8
1-centerlines
6
ByLayer
62
256
370
-1
100
AcDbLine
10
4844
20
1000
11
-4959
21
1000
0
ARC
5
27C
100
AcDbEntity
8
1-centerlines
6
ByLayer
62
256
370
-1
100
AcDbCircle
10
4844
20
715
40
115
100
AcDbArc
50
270
51
0
0
LINE
5
27D
100
AcDbEntity
8
1-centerlines
6
ByLayer
62
256
370
-1
100
AcDbLine
10
-4959
20
600
11
4844
21
600
0
ARC
5
27E
100
AcDbEntity
8
1-centerlines
6
ByLayer
62
256
370
-1
100
AcDbCircle
10
4839
20
480
40
120
100
AcDbArc
50
0
51
90
0
ARC
5
27F
100
AcDbEntity
8
1-centerlines
6
ByLayer
62
256
370
-1
100
AcDbCircle
10
2385.50598085
20
1505
40
1500
100
AcDbArc
50
270
51
300
0
LINE
5
280
100
AcDbEntity
8
1-centerlines
6
ByLayer
62
256
370
-1
100
AcDbLine
10
2385.50598085
20
5
11
2185.50598085
21
5
0
LINE
5
281
100
AcDbEntity
8
3.0-outlines
6
ByLayer
62
256
370
-1
100
AcDbLine
10
5025
20
280.5
11
5025
21
272.5
0
LINE
5
282
100
AcDbEntity
8
3.0-outlines
6
ByLayer
62
256
370
-1
100
AcDbLine
10
5025
20
272.5
11
4877
21
272.5
0
LINE
5
283
100
AcDbEntity
8
3.0-outlines
6
ByLayer
62
256
370
-1
100
AcDbLine
10
4877
20
272.5
11
4877
21
280.5
0
LINE
5
284
100
AcDbEntity
8
3.0-outlines
6
ByLayer
62
256
370
-1
100
AcDbLine
10
4877
20
280.5
11
5025
21
280.5
0
LINE
5
285
100
AcDbEntity
8
3.1-holdposition
6
ByLayer
62
256
370
-1
100
AcDbLine
10
5025
20
280
11
4877
21
280
0
LINE
5
286
100
AcDbEntity
8
3.1-holdposition
6
ByLayer
62
256
370
-1
100
AcDbLine
10
4877
20
280
11
4877
21
279
0
LINE
5
287
100
AcDbEntity
8
3.1-holdposition
6
ByLayer
62
256
370
-1
100
AcDbLine
10
4877
20
279
11
5025
21
279
0
LINE
5
288
100
AcDbEntity
8
3.1-holdposition
6
ByLayer
62
256
370
-1
100
AcDbLine
10
5025
20
279
11
5025
21
280
0
LINE
5
289
100
AcDbEntity
8
3.1-holdposition
6
ByLayer
62
256
370
-1
100
AcDbLine
10
4877
20
278
11
5025
21
278
0
LINE
5
28A
100
AcDbEntity
8
3.1-holdposition
6
ByLayer
62
256
370
-1
100
AcDbLine
10
5025
20
278
11
5025
21
277
0
LINE
5
28B
100
AcDbEntity
8
3.1-holdposition
6
ByLayer
62
256
370
-1
100
AcDbLine
10
5025
20
277
11
4877
21
277
0
LINE
5
28C
100
AcDbEntity
8
3.1-holdposition
6
ByLayer
62
256
370
-1
100
AcDbLine
10
4877
20
277
11
4877
21
278
0
LINE
5
28D
100
AcDbEntity
8
3.1-holdposition
6
ByLayer
62
256
370
-1
100
AcDbLine
10
4957.5
20
276
11
4960.5
21
276
0
LINE
5
28E
100
AcDbEntity
8
3.1-holdposition
6
ByLayer
62
256
370
-1
100
AcDbLine
10
4960.5
20
276
11
4960.5
21
275
0
LINE
5
28F
100
AcDbEntity
8
3.1-holdposition
6
ByLayer
62
256
370
-1
100
AcDbLine
10
4960.5
20
275
11
4957.5
21
275
0
LINE
5
290
100
AcDbEntity
8
3.1-holdposition
6
ByLayer
62
256
370
-1
100
AcDbLine
10
4957.5
20
275
11
4957.5
21
276
0
LINE
5
291
100
AcDbEntity
8
3.1-holdposition
6
ByLayer
62
256
370
-1
100
AcDbLine
10
4963.5
20
275
11
4966.5
21
275
0
LINE
5
292
100
AcDbEntity
8
3.1-holdposition
6
ByLayer
62
256
370
-1
100
AcDbLine
10
4966.5
20
275
11
4966.5
21
276
0
LINE
5
293
100
AcDbEntity
8
3.1-holdposition
6
ByLayer
62
256
370
-1
100
AcDbLine
10
4966.5
20
276
11
4963.5
21
276
0
LINE
5
294
100
AcDbEntity
8
3.1-holdposition
6
ByLayer
62
256
370
-1
100
AcDbLine
10
4963.5
20
276
11
4963.5
21
275
0
LINE
5
295
100
AcDbEntity
8
3.1-holdposition
6
ByLayer
62
256
370
-1
100
AcDbLine
10
4969.5
20
275
11
4972.5
21
275
0
LINE
5
296
100
AcDbEntity
8
3.1-holdposition
6
ByLayer
62
256
370
-1
100
AcDbLine
10
4972.5
20
275
11
4972.5
21
276
0
LINE
5
297
100
AcDbEntity
8
3.1-holdposition
6
ByLayer
62
256
370
-1
100
AcDbLine
10
4972.5
20
276
11
4969.5
21
276
0
LINE
5
298
100
AcDbEntity
8
3.1-holdposition
6
ByLayer
62
256
370
-1
100
AcDbLine
10
4969.5
20
276
11
4969.5
21
275
0
LINE
5
299
100
AcDbEntity
8
3.1-holdposition
6
ByLayer
62
256
370
-1
100
AcDbLine
10
4975.5
20
275
11
4978.5
21
275
0
LINE
5
29A
100
AcDbEntity
8
3.1-holdposition
6
ByLayer
62
256
370
-1
100
AcDbLine
10
4978.5
20
275
11
4978.5
21
276
0
LINE
5
29B
100
AcDbEntity
8
3.1-holdposition
6
ByLayer
62
256
370
-1
100
AcDbLine
10
4978.5
20
276
11
4975.5
21
276
0
LINE
5
29C
100
AcDbEntity
8
3.1-holdposition
6
ByLayer
62
256
370
-1
100
AcDbLine
10
4975.5
20
276
11
4975.5
21
275
0
LINE
5
29D
100
AcDbEntity
8
3.1-holdposition
6
ByLayer
62
256
370
-1
100
AcDbLine
10
4981.5
20
275
11
4984.5
21
275
0
LINE
5
29E
100
AcDbEntity
8
3.1-holdposition
6
ByLayer
62
256
370
-1
100
AcDbLine
10
4984.5
20
275
11
4984.5
21
276
0
LINE
5
29F
100
AcDbEntity
8
3.1-holdposition
6
ByLayer
62
256
370
-1
100
AcDbLine
10
4984.5
20
276
11
4981.5
21
276
0
LINE
5
2A0
100
AcDbEntity
8
3.1-holdposition
6
ByLayer
62
256
370
-1
100
AcDbLine
10
4981.5
20
276
11
4981.5
21
275
0
LINE
5
2A1
100
AcDbEntity
8
3.1-holdposition
6
ByLayer
62
256
370
-1
100
AcDbLine
10
4987.5
20
275
11
4990.5
21
275
0
LINE
5
2A2
100
AcDbEntity
8
3.1-holdposition
6
ByLayer
62
256
370
-1
100
AcDbLine
10
4990.5
20
275
11
4990.5
21
276
0
LINE
5
2A3
100
AcDbEntity
8
3.1-holdposition
6
ByLayer
62
256
370
-1
100
AcDbLine
10
4990.5
20
276
11
4987.5
21
276
0
LINE
5
2A4
100
AcDbEntity
8
3.1-holdposition
6
ByLayer
62
256
370
-1
100
AcDbLine
10
4987.5
20
276
11
4987.5
21
275
0
LINE
5
2A5
100
AcDbEntity
8
3.1-holdposition
6
ByLayer
62
256
370
-1
100
AcDbLine
10
4993.5
20
275
11
4996.5
21
275
0
LINE
5
2A6
100
AcDbEntity
8
3.1-holdposition
6
ByLayer
62
256
370
-1
100
AcDbLine
10
4996.5
20
275
11
4996.5
21
276
0
LINE
5
2A7
100
AcDbEntity
8
3.1-holdposition
6
ByLayer
62
256
370
-1
100
AcDbLine
10
4996.5
20
276
11
4993.5
21
276
0
LINE
5
2A8
100
AcDbEntity
8
3.1-holdposition
6
ByLayer
62
256
370
-1
100
AcDbLine
10
4993.5
20
276
11
4993.5
21
275
0
LINE
5
2A9
100
AcDbEntity
8
3.1-holdposition
6
ByLayer
62
256
370
-1
100
AcDbLine
10
4999.5
20
275
11
5002.5
21
275
0
LINE
5
2AA
100
AcDbEntity
8
3.1-holdposition
6
ByLayer
62
256
370
-1
100
AcDbLine
10
5002.5
20
275
11
5002.5
21
276
0
LINE
5
2AB
100
AcDbEntity
8
3.1-holdposition
6
ByLayer
62
256
370
-1
100
AcDbLine
10
5002.5
20
276
11
4999.5
21
276
0
LINE
5
2AC
100
AcDbEntity
8
3.1-holdposition
6
ByLayer
62
256
370
-1
100
AcDbLine
10
4999.5
20
276
11
4999.5
21
275
0
LINE
5
2AD
100
AcDbEntity
8
3.1-holdposition
6
ByLayer
62
256
370
-1
100
AcDbLine
10
5005.5
20
275
11
5008.5
21
275
0
LINE
5
2AE
100
AcDbEntity
8
3.1-holdposition
6
ByLayer
62
256
370
-1
100
AcDbLine
10
5008.5
20
275
11
5008.5
21
276
0
LINE
5
2AF
100
AcDbEntity
8
3.1-holdposition
6
ByLayer
62
256
370
-1
100
AcDbLine
10
5008.5
20
276
11
5005.5
21
276
0
LINE
5
2B0
100
AcDbEntity
8
3.1-holdposition
6
ByLayer
62
256
370
-1
100
AcDbLine
10
5005.5
20
276
11
5005.5
21
275
0
LINE
5
2B1
100
AcDbEntity
8
3.1-holdposition
6
ByLayer
62
256
370
-1
100
AcDbLine
10
5011.5
20
275
11
5014.5
21
275
0
LINE
5
2B2
100
AcDbEntity
8
3.1-holdposition
6
ByLayer
62
256
370
-1
100
AcDbLine
10
5014.5
20
275
11
5014.5
21
276
0
LINE
5
2B3
100
AcDbEntity
8
3.1-holdposition
6
ByLayer
62
256
370
-1
100
AcDbLine
10
5014.5
20
276
11
5011.5
21
276
0
LINE
5
2B4
100
AcDbEntity
8
3.1-holdposition
6
ByLayer
62
256
370
-1
100
AcDbLine
10
5011.5
20
276
11
5011.5
21
275
0
LINE
5
2B5
100
AcDbEntity
8
3.1-holdposition
6
ByLayer
62
256
370
-1
100
AcDbLine
10
5017.5
20
275
11
5020.5
21
275
0
LINE
5
2B6
100
AcDbEntity
8
3.1-holdposition
6
ByLayer
62
256
370
-1
100
AcDbLine
10
5020.5
20
275
11
5020.5
21
276
0
LINE
5
2B7
100
AcDbEntity
8
3.1-holdposition
6
ByLayer
62
256
370
-1
100
AcDbLine
10
5020.5
20
276
11
5017.5
21
276
0
LINE
5
2B8
100
AcDbEntity
8
3.1-holdposition
6
ByLayer
62
256
370
-1
100
AcDbLine
10
5017.5
20
276
11
5017.5
21
275
0
LINE
5
2B9
100
AcDbEntity
8
3.1-holdposition
6
ByLayer
62
256
370
-1
100
AcDbLine
10
5023.5
20
276
11
5023.5
21
275
0
LINE
5
2BA
100
AcDbEntity
8
3.1-holdposition
6
ByLayer
62
256
370
-1
100
AcDbLine
10
5023.5
20
275
11
5025
21
275
0
LINE
5
2BB
100
AcDbEntity
8
3.1-holdposition
6
ByLayer
62
256
370
-1
100
AcDbLine
10
5025
20
276
11
5023.5
21
276
0
LINE
5
2BC
100
AcDbEntity
8
3.1-holdposition
6
ByLayer
62
256
370
-1
100
AcDbLine
10
5025
20
275
11
5025
21
276
0
LINE
5
2BD
100
AcDbEntity
8
3.1-holdposition
6
ByLayer
62
256
370
-1
100
AcDbLine
10
4954.5
20
275
11
4951.5
21
275
0
LINE
5
2BE
100
AcDbEntity
8
3.1-holdposition
6
ByLayer
62
256
370
-1
100
AcDbLine
10
4951.5
20
275
11
4951.5
21
276
0
LINE
5
2BF
100
AcDbEntity
8
3.1-holdposition
6
ByLayer
62
256
370
-1
100
AcDbLine
10
4951.5
20
276
11
4954.5
21
276
0
LINE
5
2C0
100
AcDbEntity
8
3.1-holdposition
6
ByLayer
62
256
370
-1
100
AcDbLine
10
4954.5
20
276
11
4954.5
21
275
0
LINE
5
2C1
100
AcDbEntity
8
3.1-holdposition
6
ByLayer
62
256
370
-1
100
AcDbLine
10
4948.5
20
275
11
4945.5
21
275
0
LINE
5
2C2
100
AcDbEntity
8
3.1-holdposition
6
ByLayer
62
256
370
-1
100
AcDbLine
10
4945.5
20
275
11
4945.5
21
276
0
LINE
5
2C3
100
AcDbEntity
8
3.1-holdposition
6
ByLayer
62
256
370
-1
100
AcDbLine
10
4945.5
20
276
11
4948.5
21
276
0
LINE
5
2C4
100
AcDbEntity
8
3.1-holdposition
6
ByLayer
62
256
370
-1
100
AcDbLine
10
4948.5
20
276
11
4948.5
21
275
0
LINE
5
2C5
100
AcDbEntity
8
3.1-holdposition
6
ByLayer
62
256
370
-1
100
AcDbLine
10
4942.5
20
275
11
4939.5
21
275
0
LINE
5
2C6
100
AcDbEntity
8
3.1-holdposition
6
ByLayer
62
256
370
-1
100
AcDbLine
10
4939.5
20
275
11
4939.5
21
276
0
LINE
5
2C7
100
AcDbEntity
8
3.1-holdposition
6
ByLayer
62
256
370
-1
100
AcDbLine
10
4939.5
20
276
11
4942.5
21
276
0
LINE
5
2C8
100
AcDbEntity
8
3.1-holdposition
6
ByLayer
62
256
370
-1
100
AcDbLine
10
4942.5
20
276
11
4942.5
21
275
0
LINE
5
2C9
100
AcDbEntity
8
3.1-holdposition
6
ByLayer
62
256
370
-1
100
AcDbLine
10
4936.5
20
275
11
4933.5
21
275
0
LINE
5
2CA
100
AcDbEntity
8
3.1-holdposition
6
ByLayer
62
256
370
-1
100
AcDbLine
10
4933.5
20
275
11
4933.5
21
276
0
LINE
5
2CB
100
AcDbEntity
8
3.1-holdposition
6
ByLayer
62
256
370
-1
100
AcDbLine
10
4933.5
20
276
11
4936.5
21
276
0
LINE
5
2CC
100
AcDbEntity
8
3.1-holdposition
6
ByLayer
62
256
370
-1
100
AcDbLine
10
4936.5
20
276
11
4936.5
21
275
0
LINE
5
2CD
100
AcDbEntity
8
3.1-holdposition
6
ByLayer
62
256
370
-1
100
AcDbLine
10
4930.5
20
275
11
4927.5
21
275
0
LINE
5
2CE
100
AcDbEntity
8
3.1-holdposition
6
ByLayer
62
256
370
-1
100
AcDbLine
10
4927.5
20
275
11
4927.5
21
276
0
LINE
5
2CF
100
AcDbEntity
8
3.1-holdposition
6
ByLayer
62
256
370
-1
100
AcDbLine
10
4927.5
20
276
11
4930.5
21
276
0
LINE
5
2D0
100
AcDbEntity
8
3.1-holdposition
6
ByLayer
62
256
370
-1
100
AcDbLine
10
4930.5
20
276
11
4930.5
21
275
0
LINE
5
2D1
100
AcDbEntity
8
3.1-holdposition
6
ByLayer
62
256
370
-1
100
AcDbLine
10
4924.5
20
275
11
4921.5
21
275
0
LINE
5
2D2
100
AcDbEntity
8
3.1-holdposition
6
ByLayer
62
256
370
-1
100
AcDbLine
10
4921.5
20
275
11
4921.5
21
276
0
LINE
5
2D3
100
AcDbEntity
8
3.1-holdposition
6
ByLayer
62
256
370
-1
100
AcDbLine
10
4921.5
20
276
11
4924.5
21
276
0
LINE
5
2D4
100
AcDbEntity
8
3.1-holdposition
6
ByLayer
62
256
370
-1
100
AcDbLine
10
4924.5
20
276
11
4924.5
21
275
0
LINE
5
2D5
100
AcDbEntity
8
3.1-holdposition
6
ByLayer
62
256
370
-1
100
AcDbLine
10
4918.5
20
275
11
4915.5
21
275
0
LINE
5
2D6
100
AcDbEntity
8
3.1-holdposition
6
ByLayer
62
256
370
-1
100
AcDbLine
10
4915.5
20
275
11
4915.5
21
276
0
LINE
5
2D7
100
AcDbEntity
8
3.1-holdposition
6
ByLayer
62
256
370
-1
100
AcDbLine
10
4915.5
20
276
11
4918.5
21
276
0
LINE
5
2D8
100
AcDbEntity
8
3.1-holdposition
6
ByLayer
62
256
370
-1
100
AcDbLine
10
4918.5
20
276
11
4918.5
21
275
0
LINE
5
2D9
100
AcDbEntity
8
3.1-holdposition
6
ByLayer
62
256
370
-1
100
AcDbLine
10
4912.5
20
275
11
4909.5
21
275
0
LINE
5
2DA
100
AcDbEntity
8
3.1-holdposition
6
ByLayer
62
256
370
-1
100
AcDbLine
10
4909.5
20
275
11
4909.5
21
276
0
LINE
5
2DB
100
AcDbEntity
8
3.1-holdposition
6
ByLayer
62
256
370
-1
100
AcDbLine
10
4909.5
20
276
11
4912.5
21
276
0
LINE
5
2DC
100
AcDbEntity
8
3.1-holdposition
6
ByLayer
62
256
370
-1
100
AcDbLine
10
4912.5
20
276
11
4912.5
21
275
0
LINE
5
2DD
100
AcDbEntity
8
3.1-holdposition
6
ByLayer
62
256
370
-1
100
AcDbLine
10
4906.5
20
275
11
4903.5
21
275
0
LINE
5
2DE
100
AcDbEntity
8
3.1-holdposition
6
ByLayer
62
256
370
-1
100
AcDbLine
10
4903.5
20
275
11
4903.5
21
276
0
LINE
5
2DF
100
AcDbEntity
8
3.1-holdposition
6
ByLayer
62
256
370
-1
100
AcDbLine
10
4903.5
20
276
11
4906.5
21
276
0
LINE
5
2E0
100
AcDbEntity
8
3.1-holdposition
6
ByLayer
62
256
370
-1
100
AcDbLine
10
4906.5
20
276
11
4906.5
21
275
0
LINE
5
2E1
100
AcDbEntity
8
3.1-holdposition
6
ByLayer
62
256
370
-1
100
AcDbLine
10
4900.5
20
275
11
4897.5
21
275
0
LINE
5
2E2
100
AcDbEntity
8
3.1-holdposition
6
ByLayer
62
256
370
-1
100
AcDbLine
10
4897.5
20
275
11
4897.5
21
276
0
LINE
5
2E3
100
AcDbEntity
8
3.1-holdposition
6
ByLayer
62
256
370
-1
100
AcDbLine
10
4897.5
20
276
11
4900.5
21
276
0
LINE
5
2E4
100
AcDbEntity
8
3.1-holdposition
6
ByLayer
62
256
370
-1
100
AcDbLine
10
4900.5
20
276
11
4900.5
21
275
0
LINE
5
2E5
100
AcDbEntity
8
3.1-holdposition
6
ByLayer
62
256
370
-1
100
AcDbLine
10
4894.5
20
275
11
4891.5
21
275
0
LINE
5
2E6
100
AcDbEntity
8
3.1-holdposition
6
ByLayer
62
256
370
-1
100
AcDbLine
10
4891.5
20
275
11
4891.5
21
276
0
LINE
5
2E7
100
AcDbEntity
8
3.1-holdposition
6
ByLayer
62
256
370
-1
100
AcDbLine
10
4891.5
20
276
11
4894.5
21
276
0
LINE
5
2E8
100
AcDbEntity
8
3.1-holdposition
6
ByLayer
62
256
370
-1
100
AcDbLine
10
4894.5
20
276
11
4894.5
21
275
0
LINE
5
2E9
100
AcDbEntity
8
3.1-holdposition
6
ByLayer
62
256
370
-1
100
AcDbLine
10
4888.5
20
276
11
4885.5
21
276
0
LINE
5
2EA
100
AcDbEntity
8
3.1-holdposition
6
ByLayer
62
256
370
-1
100
AcDbLine
10
4885.5
20
276
11
4885.5
21
275
0
LINE
5
2EB
100
AcDbEntity
8
3.1-holdposition
6
ByLayer
62
256
370
-1
100
AcDbLine
10
4885.5
20
275
11
4888.5
21
275
0
LINE
5
2EC
100
AcDbEntity
8
3.1-holdposition
6
ByLayer
62
256
370
-1
100
AcDbLine
10
4888.5
20
275
11
4888.5
21
276
0
LINE
5
2ED
100
AcDbEntity
8
3.1-holdposition
6
ByLayer
62
256
370
-1
100
AcDbLine
10
4882.5
20
276
11
4879.5
21
276
0
LINE
5
2EE
100
AcDbEntity
8
3.1-holdposition
6
ByLayer
62
256
370
-1
100
AcDbLine
10
4879.5
20
276
11
4879.5
21
275
0
LINE
5
2EF
100
AcDbEntity
8
3.1-holdposition
6
ByLayer
62
256
370
-1
100
AcDbLine
10
4879.5
20
275
11
4882.5
21
275
0
LINE
5
2F0
100
AcDbEntity
8
3.1-holdposition
6
ByLayer
62
256
370
-1
100
AcDbLine
10
4882.5
20
275
11
4882.5
21
276
0
LINE
5
2F1
100
AcDbEntity
8
3.1-holdposition
6
ByLayer
62
256
370
-1
100
AcDbLine
10
4957.5
20
274
11
4960.5
21
274
0
LINE
5
2F2
100
AcDbEntity
8
3.1-holdposition
6
ByLayer
62
256
370
-1
100
AcDbLine
10
4960.5
20
274
11
4960.5
21
273
0
LINE
5
2F3
100
AcDbEntity
8
3.1-holdposition
6
ByLayer
62
256
370
-1
100
AcDbLine
10
4960.5
20
273
11
4957.5
21
273
0
LINE
5
2F4
100
AcDbEntity
8
3.1-holdposition
6
ByLayer
62
256
370
-1
100
AcDbLine
10
4957.5
20
273
11
4957.5
21
274
0
LINE
5
2F5
100
AcDbEntity
8
3.1-holdposition
6
ByLayer
62
256
370
-1
100
AcDbLine
10
4963.5
20
273
11
4966.5
21
273
0
LINE
5
2F6
100
AcDbEntity
8
3.1-holdposition
6
ByLayer
62
256
370
-1
100
AcDbLine
10
4966.5
20
273
11
4966.5
21
274
0
LINE
5
2F7
100
AcDbEntity
8
3.1-holdposition
6
ByLayer
62
256
370
-1
100
AcDbLine
10
4966.5
20
274
11
4963.5
21
274
0
LINE
5
2F8
100
AcDbEntity
8
3.1-holdposition
6
ByLayer
62
256
370
-1
100
AcDbLine
10
4963.5
20
274
11
4963.5
21
273
0
LINE
5
2F9
100
AcDbEntity
8
3.1-holdposition
6
ByLayer
62
256
370
-1
100
AcDbLine
10
4969.5
20
273
11
4972.5
21
273
0
LINE
5
2FA
100
AcDbEntity
8
3.1-holdposition
6
ByLayer
62
256
370
-1
100
AcDbLine
10
4972.5
20
273
11
4972.5
21
274
0
LINE
5
2FB
100
AcDbEntity
8
3.1-holdposition
6
ByLayer
62
256
370
-1
100
AcDbLine
10
4972.5
20
274
11
4969.5
21
274
0
LINE
5
2FC
100
AcDbEntity
8
3.1-holdposition
6
ByLayer
62
256
370
-1
100
AcDbLine
10
4969.5
20
274
11
4969.5
21
273
0
LINE
5
2FD
100
AcDbEntity
8
3.1-holdposition
6
ByLayer
62
256
370
-1
100
AcDbLine
10
4975.5
20
273
11
4978.5
21
273
0
LINE
5
2FE
100
AcDbEntity
8
3.1-holdposition
6
ByLayer
62
256
370
-1
100
AcDbLine
10
4978.5
20
273
11
4978.5
21
274
0
LINE
5
2FF
100
AcDbEntity
8
3.1-holdposition
6
ByLayer
62
256
370
-1
100
AcDbLine
10
4978.5
20
274
11
4975.5
21
274
0
LINE
5
300
100
AcDbEntity
8
3.1-holdposition
6
ByLayer
62
256
370
-1
100
AcDbLine
10
4975.5
20
274
11
4975.5
21
273
0
LINE
5
301
100
AcDbEntity
8
3.1-holdposition
6
ByLayer
62
256
370
-1
100
AcDbLine
10
4981.5
20
273
11
4984.5
21
273
0
LINE
5
302
100
AcDbEntity
8
3.1-holdposition
6
ByLayer
62
256
370
-1
100
AcDbLine
10
4984.5
20
273
11
4984.5
21
274
0
LINE
5
303
100
AcDbEntity
8
3.1-holdposition
6
ByLayer
62
256
370
-1
100
AcDbLine
10
4984.5
20
274
11
4981.5
21
274
0
LINE
5
304
100
AcDbEntity
8
3.1-holdposition
6
ByLayer
62
256
370
-1
100
AcDbLine
10
4981.5
20
274
11
4981.5
21
273
0
LINE
5
305
100
AcDbEntity
8
3.1-holdposition
6
ByLayer
62
256
370
-1
100
AcDbLine
10
4987.5
20
273
11
4990.5
21
273
0
LINE
5
306
100
AcDbEntity
8
3.1-holdposition
6
ByLayer
62
256
370
-1
100
AcDbLine
10
4990.5
20
273
11
4990.5
21
274
0
LINE
5
307
100
AcDbEntity
8
3.1-holdposition
6
ByLayer
62
256
370
-1
100
AcDbLine
10
4990.5
20
274
11
4987.5
21
274
0
LINE
5
308
100
AcDbEntity
8
3.1-holdposition
6
ByLayer
62
256
370
-1
100
AcDbLine
10
4987.5
20
274
11
4987.5
21
273
0
LINE
5
309
100
AcDbEntity
8
3.1-holdposition
6
ByLayer
62
256
370
-1
100
AcDbLine
10
4993.5
20
273
11
4996.5
21
273
0
LINE
5
30A
100
AcDbEntity
8
3.1-holdposition
6
ByLayer
62
256
370
-1
100
AcDbLine
10
4996.5
20
273
11
4996.5
21
274
0
LINE
5
30B
100
AcDbEntity
8
3.1-holdposition
6
ByLayer
62
256
370
-1
100
AcDbLine
10
4996.5
20
274
11
4993.5
21
274
0
LINE
5
30C
100
AcDbEntity
8
3.1-holdposition
6
ByLayer
62
256
370
-1
100
AcDbLine
10
4993.5
20
274
11
4993.5
21
273
0
LINE
5
30D
100
AcDbEntity
8
3.1-holdposition
6
ByLayer
62
256
370
-1
100
AcDbLine
10
4999.5
20
273
11
5002.5
21
273
0
LINE
5
30E
100
AcDbEntity
8
3.1-holdposition
6
ByLayer
62
256
370
-1
100
AcDbLine
10
5002.5
20
273
11
5002.5
21
274
0
LINE
5
30F
100
AcDbEntity
8
3.1-holdposition
6
ByLayer
62
256
370
-1
100
AcDbLine
10
5002.5
20
274
11
4999.5
21
274
0
LINE
5
310
100
AcDbEntity
8
3.1-holdposition
6
ByLayer
62
256
370
-1
100
AcDbLine
10
4999.5
20
274
11
4999.5
21
273
0
LINE
5
311
100
AcDbEntity
8
3.1-holdposition
6
ByLayer
62
256
370
-1
100
AcDbLine
10
5005.5
20
273
11
5008.5
21
273
0
LINE
5
312
100
AcDbEntity
8
3.1-holdposition
6
ByLayer
62
256
370
-1
100
AcDbLine
10
5008.5
20
273
11
5008.5
21
274
0
LINE
5
313
100
AcDbEntity
8
3.1-holdposition
6
ByLayer
62
256
370
-1
100
AcDbLine
10
5008.5
20
274
11
5005.5
21
274
0
LINE
5
314
100
AcDbEntity
8
3.1-holdposition
6
ByLayer
62
256
370
-1
100
AcDbLine
10
5005.5
20
274
11
5005.5
21
273
0
LINE
5
315
100
AcDbEntity
8
3.1-holdposition
6
ByLayer
62
256
370
-1
100
AcDbLine
10
5011.5
20
273
11
5014.5
21
273
0
LINE
5
316
100
AcDbEntity
8
3.1-holdposition
6
ByLayer
62
256
370
-1
100
AcDbLine
10
5014.5
20
273
11
5014.5
21
274
0
LINE
5
317
100
AcDbEntity
8
3.1-holdposition
6
ByLayer
62
256
370
-1
100
AcDbLine
10
5014.5
20
274
11
5011.5
21
274
0
LINE
5
318
100
AcDbEntity
8
3.1-holdposition
6
ByLayer
62
256
370
-1
100
AcDbLine
10
5011.5
20
274
11
5011.5
21
273
0
LINE
5
319
100
AcDbEntity
8
3.1-holdposition
6
ByLayer
62
256
370
-1
100
AcDbLine
10
5017.5
20
273
11
5020.5
21
273
0
LINE
5
31A
100
AcDbEntity
8
3.1-holdposition
6
ByLayer
62
256
370
-1
100
AcDbLine
10
5020.5
20
273
11
5020.5
21
274
0
LINE
5
31B
100
AcDbEntity
8
3.1-holdposition
6
ByLayer
62
256
370
-1
100
AcDbLine
10
5020.5
20
274
11
5017.5
21
274
0
LINE
5
31C
100
AcDbEntity
8
3.1-holdposition
6
ByLayer
62
256
370
-1
100
AcDbLine
10
5017.5
20
274
11
5017.5
21
273
0
LINE
5
31D
100
AcDbEntity
8
3.1-holdposition
6
ByLayer
62
256
370
-1
100
AcDbLine
10
5023.5
20
274
11
5023.5
21
273
0
LINE
5
31E
100
AcDbEntity
8
3.1-holdposition
6
ByLayer
62
256
370
-1
100
AcDbLine
10
5023.5
20
273
11
5025
21
273
0
LINE
5
31F
100
AcDbEntity
8
3.1-holdposition
6
ByLayer
62
256
370
-1
100
AcDbLine
10
5025
20
274
11
5023.5
21
274
0
LINE
5
320
100
AcDbEntity
8
3.1-holdposition
6
ByLayer
62
256
370
-1
100
AcDbLine
10
5025
20
273
11
5025
21
274
0
LINE
5
321
100
AcDbEntity
8
3.1-holdposition
6
ByLayer
62
256
370
-1
100
AcDbLine
10
4954.5
20
273
11
4951.5
21
273
0
LINE
5
322
100
AcDbEntity
8
3.1-holdposition
6
ByLayer
62
256
370
-1
100
AcDbLine
10
4951.5
20
273
11
4951.5
21
274
0
LINE
5
323
100
AcDbEntity
8
3.1-holdposition
6
ByLayer
62
256
370
-1
100
AcDbLine
10
4951.5
20
274
11
4954.5
21
274
0
LINE
5
324
100
AcDbEntity
8
3.1-holdposition
6
ByLayer
62
256
370
-1
100
AcDbLine
10
4954.5
20
274
11
4954.5
21
273
0
LINE
5
325
100
AcDbEntity
8
3.1-holdposition
6
ByLayer
62
256
370
-1
100
AcDbLine
10
4948.5
20
273
11
4945.5
21
273
0
LINE
5
326
100
AcDbEntity
8
3.1-holdposition
6
ByLayer
62
256
370
-1
100
AcDbLine
10
4945.5
20
273
11
4945.5
21
274
0
LINE
5
327
100
AcDbEntity
8
3.1-holdposition
6
ByLayer
62
256
370
-1
100
AcDbLine
10
4945.5
20
274
11
4948.5
21
274
0
LINE
5
328
100
AcDbEntity
8
3.1-holdposition
6
ByLayer
62
256
370
-1
100
AcDbLine
10
4948.5
20
274
11
4948.5
21
273
0
LINE
5
329
100
AcDbEntity
8
3.1-holdposition
6
ByLayer
62
256
370
-1
100
AcDbLine
10
4942.5
20
273
11
4939.5
21
273
0
LINE
5
32A
100
AcDbEntity
8
3.1-holdposition
6
ByLayer
62
256
370
-1
100
AcDbLine
10
4939.5
20
273
11
4939.5
21
274
0
LINE
5
32B
100
AcDbEntity
8
3.1-holdposition
6
ByLayer
62
256
370
-1
100
AcDbLine
10
4939.5
20
274
11
4942.5
21
274
0
LINE
5
32C
100
AcDbEntity
8
3.1-holdposition
6
ByLayer
62
256
370
-1
100
AcDbLine
10
4942.5
20
274
11
4942.5
21
273
0
LINE
5
32D
100
AcDbEntity
8
3.1-holdposition
6
ByLayer
62
256
370
-1
100
AcDbLine
10
4936.5
20
273
11
4933.5
21
273
0
LINE
5
32E
100
AcDbEntity
8
3.1-holdposition
6
ByLayer
62
256
370
-1
100
AcDbLine
10
4933.5
20
273
11
4933.5
21
274
0
LINE
5
32F
100
AcDbEntity
8
3.1-holdposition
6
ByLayer
62
256
370
-1
100
AcDbLine
10
4933.5
20
274
11
4936.5
21
274
0
LINE
5
330
100
AcDbEntity
8
3.1-holdposition
6
ByLayer
62
256
370
-1
100
AcDbLine
10
4936.5
20
274
11
4936.5
21
273
0
LINE
5
331
100
AcDbEntity
8
3.1-holdposition
6
ByLayer
62
256
370
-1
100
AcDbLine
10
4930.5
20
273
11
4927.5
21
273
0
LINE
5
332
100
AcDbEntity
8
3.1-holdposition
6
ByLayer
62
256
370
-1
100
AcDbLine
10
4927.5
20
273
11
4927.5
21
274
0
LINE
5
333
100
AcDbEntity
8
3.1-holdposition
6
ByLayer
62
256
370
-1
100
AcDbLine
10
4927.5
20
274
11
4930.5
21
274
0
LINE
5
334
100
AcDbEntity
8
3.1-holdposition
6
ByLayer
62
256
370
-1
100
AcDbLine
10
4930.5
20
274
11
4930.5
21
273
0
LINE
5
335
100
AcDbEntity
8
3.1-holdposition
6
ByLayer
62
256
370
-1
100
AcDbLine
10
4924.5
20
273
11
4921.5
21
273
0
LINE
5
336
100
AcDbEntity
8
3.1-holdposition
6
ByLayer
62
256
370
-1
100
AcDbLine
10
4921.5
20
273
11
4921.5
21
274
0
LINE
5
337
100
AcDbEntity
8
3.1-holdposition
6
ByLayer
62
256
370
-1
100
AcDbLine
10
4921.5
20
274
11
4924.5
21
274
0
LINE
5
338
100
AcDbEntity
8
3.1-holdposition
6
ByLayer
62
256
370
-1
100
AcDbLine
10
4924.5
20
274
11
4924.5
21
273
0
LINE
5
339
100
AcDbEntity
8
3.1-holdposition
6
ByLayer
62
256
370
-1
100
AcDbLine
10
4918.5
20
273
11
4915.5
21
273
0
LINE
5
33A
100
AcDbEntity
8
3.1-holdposition
6
ByLayer
62
256
370
-1
100
AcDbLine
10
4915.5
20
273
11
4915.5
21
274
0
LINE
5
33B
100
AcDbEntity
8
3.1-holdposition
6
ByLayer
62
256
370
-1
100
AcDbLine
10
4915.5
20
274
11
4918.5
21
274
0
LINE
5
33C
100
AcDbEntity
8
3.1-holdposition
6
ByLayer
62
256
370
-1
100
AcDbLine
10
4918.5
20
274
11
4918.5
21
273
0
LINE
5
33D
100
AcDbEntity
8
3.1-holdposition
6
ByLayer
62
256
370
-1
100
AcDbLine
10
4912.5
20
273
11
4909.5
21
273
0
LINE
5
33E
100
AcDbEntity
8
3.1-holdposition
6
ByLayer
62
256
370
-1
100
AcDbLine
10
4909.5
20
273
11
4909.5
21
274
0
LINE
5
33F
100
AcDbEntity
8
3.1-holdposition
6
ByLayer
62
256
370
-1
100
AcDbLine
10
4909.5
20
274
11
4912.5
21
274
0
LINE
5
340
100
AcDbEntity
8
3.1-holdposition
6
ByLayer
62
256
370
-1
100
AcDbLine
10
4912.5
20
274
11
4912.5
21
273
0
LINE
5
341
100
AcDbEntity
8
3.1-holdposition
6
ByLayer
62
256
370
-1
100
AcDbLine
10
4906.5
20
273
11
4903.5
21
273
0
LINE
5
342
100
AcDbEntity
8
3.1-holdposition
6
ByLayer
62
256
370
-1
100
AcDbLine
10
4903.5
20
273
11
4903.5
21
274
0
LINE
5
343
100
AcDbEntity
8
3.1-holdposition
6
ByLayer
62
256
370
-1
100
AcDbLine
10
4903.5
20
274
11
4906.5
21
274
0
LINE
5
344
100
AcDbEntity
8
3.1-holdposition
6
ByLayer
62
256
370
-1
100
AcDbLine
10
4906.5
20
274
11
4906.5
21
273
0
LINE
5
345
100
AcDbEntity
8
3.1-holdposition
6
ByLayer
62
256
370
-1
100
AcDbLine
10
4900.5
20
273
11
4897.5
21
273
0
LINE
5
346
100
AcDbEntity
8
3.1-holdposition
6
ByLayer
62
256
370
-1
100
AcDbLine
10
4897.5
20
273
11
4897.5
21
274
0
LINE
5
347
100
AcDbEntity
8
3.1-holdposition
6
ByLayer
62
256
370
-1
100
AcDbLine
10
4897.5
20
274
11
4900.5
21
274
0
LINE
5
348
100
AcDbEntity
8
3.1-holdposition
6
ByLayer
62
256
370
-1
100
AcDbLine
10
4900.5
20
274
11
4900.5
21
273
0
LINE
5
349
100
AcDbEntity
8
3.1-holdposition
6
ByLayer
62
256
370
-1
100
AcDbLine
10
4894.5
20
273
11
4891.5
21
273
0
LINE
5
34A
100
AcDbEntity
8
3.1-holdposition
6
ByLayer
62
256
370
-1
100
AcDbLine
10
4891.5
20
273
11
4891.5
21
274
0
LINE
5
34B
100
AcDbEntity
8
3.1-holdposition
6
ByLayer
62
256
370
-1
100
AcDbLine
10
4891.5
20
274
11
4894.5
21
274
0
LINE
5
34C
100
AcDbEntity
8
3.1-holdposition
6
ByLayer
62
256
370
-1
100
AcDbLine
10
4894.5
20
274
11
4894.5
21
273
0
LINE
5
34D
100
AcDbEntity
8
3.1-holdposition
6
ByLayer
62
256
370
-1
100
AcDbLine
10
4888.5
20
274
11
4885.5
21
274
0
LINE
5
34E
100
AcDbEntity
8
3.1-holdposition
6
ByLayer
62
256
370
-1
100
AcDbLine
10
4885.5
20
274
11
4885.5
21
273
0
LINE
5
34F
100
AcDbEntity
8
3.1-holdposition
6
ByLayer
62
256
370
-1
100
AcDbLine
10
4885.5
20
273
11
4888.5
21
273
0
LINE
5
350
100
AcDbEntity
8
3.1-holdposition
6
ByLayer
62
256
370
-1
100
AcDbLine
10
4888.5
20
273
11
4888.5
21
274
0
LINE
5
351
100
AcDbEntity
8
3.1-holdposition
6
ByLayer
62
256
370
-1
100
AcDbLine
10
4882.5
20
274
11
4879.5
21
274
0
LINE
5
352
100
AcDbEntity
8
3.1-holdposition
6
ByLayer
62
256
370
-1
100
AcDbLine
10
4879.5
20
274
11
4879.5
21
273
0
LINE
5
353
100
AcDbEntity
8
3.1-holdposition
6
ByLayer
62
256
370
-1
100
AcDbLine
10
4879.5
20
273
11
4882.5
21
273
0
LINE
5
354
100
AcDbEntity
8
3.1-holdposition
6
ByLayer
62
256
370
-1
100
AcDbLine
10
4882.5
20
273
11
4882.5
21
274
0
ARC
5
355
100
AcDbEntity
8
1-centerlines
6
ByLayer
62
256
370
-1
100
AcDbCircle
10
4839
20
125
40
120
100
AcDbArc
50
270
51
0
0
LINE
5
356
100
AcDbEntity
8
1-centerlines
6
ByLayer
62
256
370
-1
100
AcDbLine
10
4959
20
600
11
4959
21
125
0
LINE
5
357
100
AcDbEntity
8
1-centerlines
6
ByLayer
62
256
370
-1
100
AcDbLine
10
4839
20
5
11
4639
21
5
0
LINE
5
358
100
AcDbEntity
8
99-Temp
6
ByLayer
62
256
370
-1
100
AcDbLine
10
4839
20
5
11
4839
21
125
0
LINE
5
359
100
AcDbEntity
8
99-Temp
6
ByLayer
62
256
370
-1
100
AcDbLine
10
4839
20
125
11
4959
21
125
0
LINE
5
35A
100
AcDbEntity
8
99-Temp
6
ByLayer
62
256
370
-1
100
AcDbLine
10
4839
20
125
11
4859.83778132
21
6.82306963854
0
LINE
5
35B
100
AcDbEntity
8
99-Temp
6
ByLayer
62
256
370
-1
100
AcDbLine
10
4839
20
125
11
4880.0424172
21
12.2368855057
0
LINE
5
35C
100
AcDbEntity
8
99-Temp
6
ByLayer
62
256
370
-1
100
AcDbLine
10
4839
20
125
11
4899
21
21.0769515459
0
LINE
5
35D
100
AcDbEntity
8
99-Temp
6
ByLayer
62
256
370
-1
100
AcDbLine
10
4839
20
125
11
4916.13451316
21
33.0746668257
0
LINE
5
35E
100
AcDbEntity
8
99-Temp
6
ByLayer
62
256
370
-1
100
AcDbLine
10
4839
20
125
11
4930.92533317
21
47.8654868376
0
LINE
5
35F
100
AcDbEntity
8
99-Temp
6
ByLayer
62
256
370
-1
100
AcDbLine
10
4839
20
125
11
4942.92304845
21
65
0
LINE
5
360
100
AcDbEntity
8
99-Temp
6
ByLayer
62
256
370
-1
100
AcDbLine
10
4839
20
125
11
4951.76311449
21
83.9575828009
0
LINE
5
361
100
AcDbEntity
8
99-Temp
6
ByLayer
62
256
370
-1
100
AcDbLine
10
4839
20
125
11
4957.17693036
21
104.16221868
0
LINE
5
362
100
AcDbEntity
8
99-Temp
6
ByLayer
62
256
370
-1
100
AcDbLine
10
4959
20
280.5
11
4959
21
430.5
0
ARC
5
363
100
AcDbEntity
8
1-centerlines
6
ByLayer
62
256
370
-1
100
AcDbCircle
10
3951.97459622
20
100
40
500
100
AcDbArc
50
90
51
120
0
LINE
5
364
100
AcDbEntity
8
1-centerlines
6
ByLayer
62
256
370
-1
100
AcDbLine
10
3701.97452146
20
533.012658734
11
3135.50598085
21
205.961894324
0
LINE
5
365
100
AcDbEntity
8
3.0-outlines
6
ByLayer
62
256
370
-1
100
AcDbLine
10
3371.60976698
20
280.5
11
3371.60976698
21
272.5
0
LINE
5
366
100
AcDbEntity
8
3.0-outlines
6
ByLayer
62
256
370
-1
100
AcDbLine
10
3137.43734095
20
272.5
11
3137.43734095
21
280.5
0
LINE
5
367
100
AcDbEntity
8
3.0-outlines
6
ByLayer
62
256
370
-1
100
AcDbLine
10
3137.43734095
20
280.5
11
3371.60976698
21
280.5
0
LINE
5
368
100
AcDbEntity
8
3.0-outlines
6
ByLayer
62
256
370
-1
100
AcDbLine
10
3137.43734095
20
272.5
11
3371.60976698
21
272.5
0
ARC
5
369
100
AcDbEntity
8
99-Temp
6
ByLayer
62
256
370
-1
100
AcDbCircle
10
3258.19237886
20
450
40
150
100
AcDbArc
50
300.000295511
51
327.046495511
0
LINE
5
36A
100
AcDbEntity
8
3.1-holdposition
6
ByLayer
62
256
370
-1
100
AcDbLine
10
3137.43734095
20
280
11
3371.60976698
21
280
0
LINE
5
36B
100
AcDbEntity
8
3.1-holdposition
6
ByLayer
62
256
370
-1
100
AcDbLine
10
3371.60976698
20
280
11
3371.60976698
21
279
0
LINE
5
36C
100
AcDbEntity
8
3.1-holdposition
6
ByLayer
62
256
370
-1
100
AcDbLine
10
3371.60976698
20
279
11
3137.43734095
21
279
0
LINE
5
36D
100
AcDbEntity
8
3.1-holdposition
6
ByLayer
62
256
370
-1
100
AcDbLine
10
3137.43734095
20
279
11
3137.43734095
21
280
0
LINE
5
36E
100
AcDbEntity
8
3.1-holdposition
6
ByLayer
62
256
370
-1
100
AcDbLine
10
3137.43734095
20
278
11
3371.60976698
21
278
0
LINE
5
36F
100
AcDbEntity
8
3.1-holdposition
6
ByLayer
62
256
370
-1
100
AcDbLine
10
3371.60976698
20
278
11
3371.60976698
21
277
0
LINE
5
370
100
AcDbEntity
8
3.1-holdposition
6
ByLayer
62
256
370
-1
100
AcDbLine
10
3371.60976698
20
277
11
3137.43734095
21
277
0
LINE
5
371
100
AcDbEntity
8
3.1-holdposition
6
ByLayer
62
256
370
-1
100
AcDbLine
10
3137.43734095
20
277
11
3137.43734095
21
278
0
LINE
5
372
100
AcDbEntity
8
3.1-holdposition
6
ByLayer
62
256
370
-1
100
AcDbLine
10
3251.61938592
20
273
11
3250.11938592
21
273
0
LINE
5
373
100
AcDbEntity
8
3.1-holdposition
6
ByLayer
62
256
370
-1
100
AcDbLine
10
3250.11938592
20
273
11
3250.11938592
21
274
0
LINE
5
374
100
AcDbEntity
8
3.1-holdposition
6
ByLayer
62
256
370
-1
100
AcDbLine
10
3250.11938592
20
274
11
3253.11938592
21
274
0
LINE
5
375
100
AcDbEntity
8
3.1-holdposition
6
ByLayer
62
256
370
-1
100
AcDbLine
10
3253.11938592
20
274
11
3253.11938592
21
273
0
LINE
5
376
100
AcDbEntity
8
3.1-holdposition
6
ByLayer
62
256
370
-1
100
AcDbLine
10
3253.11938592
20
273
11
3251.61938592
21
273
0
LINE
5
377
100
AcDbEntity
8
3.1-holdposition
6
ByLayer
62
256
370
-1
100
AcDbLine
10
3250.11938592
20
275
11
3253.11938592
21
275
0
LINE
5
378
100
AcDbEntity
8
3.1-holdposition
6
ByLayer
62
256
370
-1
100
AcDbLine
10
3253.11938592
20
275
11
3253.11938592
21
276
0
LINE
5
379
100
AcDbEntity
8
3.1-holdposition
6
ByLayer
62
256
370
-1
100
AcDbLine
10
3253.11938592
20
276
11
3250.11938592
21
276
0
LINE
5
37A
100
AcDbEntity
8
3.1-holdposition
6
ByLayer
62
256
370
-1
100
AcDbLine
10
3250.11938592
20
276
11
3250.11938592
21
275
0
LINE
5
37B
100
AcDbEntity
8
3.1-holdposition
6
ByLayer
62
256
370
-1
100
AcDbLine
10
3256.11938592
20
276
11
3259.11938592
21
276
0
LINE
5
37C
100
AcDbEntity
8
3.1-holdposition
6
ByLayer
62
256
370
-1
100
AcDbLine
10
3259.11938592
20
276
11
3259.11938592
21
275
0
LINE
5
37D
100
AcDbEntity
8
3.1-holdposition
6
ByLayer
62
256
370
-1
100
AcDbLine
10
3259.11938592
20
275
11
3256.11938592
21
275
0
LINE
5
37E
100
AcDbEntity
8
3.1-holdposition
6
ByLayer
62
256
370
-1
100
AcDbLine
10
3256.11938592
20
275
11
3256.11938592
21
276
0
LINE
5
37F
100
AcDbEntity
8
3.1-holdposition
6
ByLayer
62
256
370
-1
100
AcDbLine
10
3259.11938592
20
274
11
3256.11938592
21
274
0
LINE
5
380
100
AcDbEntity
8
3.1-holdposition
6
ByLayer
62
256
370
-1
100
AcDbLine
10
3256.11938592
20
274
11
3256.11938592
21
273
0
LINE
5
381
100
AcDbEntity
8
3.1-holdposition
6
ByLayer
62
256
370
-1
100
AcDbLine
10
3256.11938592
20
273
11
3259.11938592
21
273
0
LINE
5
382
100
AcDbEntity
8
3.1-holdposition
6
ByLayer
62
256
370
-1
100
AcDbLine
10
3259.11938592
20
273
11
3259.11938592
21
274
0
LINE
5
383
100
AcDbEntity
8
3.1-holdposition
6
ByLayer
62
256
370
-1
100
AcDbLine
10
3263.61938592
20
273
11
3262.11938592
21
273
0
LINE
5
384
100
AcDbEntity
8
3.1-holdposition
6
ByLayer
62
256
370
-1
100
AcDbLine
10
3262.11938592
20
273
11
3262.11938592
21
274
0
LINE
5
385
100
AcDbEntity
8
3.1-holdposition
6
ByLayer
62
256
370
-1
100
AcDbLine
10
3262.11938592
20
274
11
3265.11938592
21
274
0
LINE
5
386
100
AcDbEntity
8
3.1-holdposition
6
ByLayer
62
256
370
-1
100
AcDbLine
10
3265.11938592
20
274
11
3265.11938592
21
273
0
LINE
5
387
100
AcDbEntity
8
3.1-holdposition
6
ByLayer
62
256
370
-1
100
AcDbLine
10
3265.11938592
20
273
11
3263.61938592
21
273
0
LINE
5
388
100
AcDbEntity
8
3.1-holdposition
6
ByLayer
62
256
370
-1
100
AcDbLine
10
3262.11938592
20
275
11
3265.11938592
21
275
0
LINE
5
389
100
AcDbEntity
8
3.1-holdposition
6
ByLayer
62
256
370
-1
100
AcDbLine
10
3265.11938592
20
275
11
3265.11938592
21
276
0
LINE
5
38A
100
AcDbEntity
8
3.1-holdposition
6
ByLayer
62
256
370
-1
100
AcDbLine
10
3265.11938592
20
276
11
3262.11938592
21
276
0
LINE
5
38B
100
AcDbEntity
8
3.1-holdposition
6
ByLayer
62
256
370
-1
100
AcDbLine
10
3262.11938592
20
276
11
3262.11938592
21
275
0
LINE
5
38C
100
AcDbEntity
8
3.1-holdposition
6
ByLayer
62
256
370
-1
100
AcDbLine
10
3268.11938592
20
276
11
3271.11938592
21
276
0
LINE
5
38D
100
AcDbEntity
8
3.1-holdposition
6
ByLayer
62
256
370
-1
100
AcDbLine
10
3271.11938592
20
276
11
3271.11938592
21
275
0
LINE
5
38E
100
AcDbEntity
8
3.1-holdposition
6
ByLayer
62
256
370
-1
100
AcDbLine
10
3271.11938592
20
275
11
3268.11938592
21
275
0
LINE
5
38F
100
AcDbEntity
8
3.1-holdposition
6
ByLayer
62
256
370
-1
100
AcDbLine
10
3268.11938592
20
275
11
3268.11938592
21
276
0
LINE
5
390
100
AcDbEntity
8
3.1-holdposition
6
ByLayer
62
256
370
-1
100
AcDbLine
10
3271.11938592
20
274
11
3268.11938592
21
274
0
LINE
5
391
100
AcDbEntity
8
3.1-holdposition
6
ByLayer
62
256
370
-1
100
AcDbLine
10
3268.11938592
20
274
11
3268.11938592
21
273
0
LINE
5
392
100
AcDbEntity
8
3.1-holdposition
6
ByLayer
62
256
370
-1
100
AcDbLine
10
3268.11938592
20
273
11
3271.11938592
21
273
0
LINE
5
393
100
AcDbEntity
8
3.1-holdposition
6
ByLayer
62
256
370
-1
100
AcDbLine
10
3271.11938592
20
273
11
3271.11938592
21
274
0
LINE
5
394
100
AcDbEntity
8
3.1-holdposition
6
ByLayer
62
256
370
-1
100
AcDbLine
10
3275.61938592
20
273
11
3274.11938592
21
273
0
LINE
5
395
100
AcDbEntity
8
3.1-holdposition
6
ByLayer
62
256
370
-1
100
AcDbLine
10
3274.11938592
20
273
11
3274.11938592
21
274
0
LINE
5
396
100
AcDbEntity
8
3.1-holdposition
6
ByLayer
62
256
370
-1
100
AcDbLine
10
3274.11938592
20
274
11
3277.11938592
21
274
0
LINE
5
397
100
AcDbEntity
8
3.1-holdposition
6
ByLayer
62
256
370
-1
100
AcDbLine
10
3277.11938592
20
274
11
3277.11938592
21
273
0
LINE
5
398
100
AcDbEntity
8
3.1-holdposition
6
ByLayer
62
256
370
-1
100
AcDbLine
10
3277.11938592
20
273
11
3275.61938592
21
273
0
LINE
5
399
100
AcDbEntity
8
3.1-holdposition
6
ByLayer
62
256
370
-1
100
AcDbLine
10
3274.11938592
20
275
11
3277.11938592
21
275
0
LINE
5
39A
100
AcDbEntity
8
3.1-holdposition
6
ByLayer
62
256
370
-1
100
AcDbLine
10
3277.11938592
20
275
11
3277.11938592
21
276
0
LINE
5
39B
100
AcDbEntity
8
3.1-holdposition
6
ByLayer
62
256
370
-1
100
AcDbLine
10
3277.11938592
20
276
11
3274.11938592
21
276
0
LINE
5
39C
100
AcDbEntity
8
3.1-holdposition
6
ByLayer
62
256
370
-1
100
AcDbLine
10
3274.11938592
20
276
11
3274.11938592
21
275
0
LINE
5
39D
100
AcDbEntity
8
3.1-holdposition
6
ByLayer
62
256
370
-1
100
AcDbLine
10
3280.11938592
20
276
11
3283.11938592
21
276
0
LINE
5
39E
100
AcDbEntity
8
3.1-holdposition
6
ByLayer
62
256
370
-1
100
AcDbLine
10
3283.11938592
20
276
11
3283.11938592
21
275
0
LINE
5
39F
100
AcDbEntity
8
3.1-holdposition
6
ByLayer
62
256
370
-1
100
AcDbLine
10
3283.11938592
20
275
11
3280.11938592
21
275
0
LINE
5
3A0
100
AcDbEntity
8
3.1-holdposition
6
ByLayer
62
256
370
-1
100
AcDbLine
10
3280.11938592
20
275
11
3280.11938592
21
276
0
LINE
5
3A1
100
AcDbEntity
8
3.1-holdposition
6
ByLayer
62
256
370
-1
100
AcDbLine
10
3283.11938592
20
274
11
3280.11938592
21
274
0
LINE
5
3A2
100
AcDbEntity
8
3.1-holdposition
6
ByLayer
62
256
370
-1
100
AcDbLine
10
3280.11938592
20
274
11
3280.11938592
21
273
0
LINE
5
3A3
100
AcDbEntity
8
3.1-holdposition
6
ByLayer
62
256
370
-1
100
AcDbLine
10
3280.11938592
20
273
11
3283.11938592
21
273
0
LINE
5
3A4
100
AcDbEntity
8
3.1-holdposition
6
ByLayer
62
256
370
-1
100
AcDbLine
10
3283.11938592
20
273
11
3283.11938592
21
274
0
LINE
5
3A5
100
AcDbEntity
8
3.1-holdposition
6
ByLayer
62
256
370
-1
100
AcDbLine
10
3287.61938592
20
273
11
3286.11938592
21
273
0
LINE
5
3A6
100
AcDbEntity
8
3.1-holdposition
6
ByLayer
62
256
370
-1
100
AcDbLine
10
3286.11938592
20
273
11
3286.11938592
21
274
0
LINE
5
3A7
100
AcDbEntity
8
3.1-holdposition
6
ByLayer
62
256
370
-1
100
AcDbLine
10
3286.11938592
20
274
11
3289.11938592
21
274
0
LINE
5
3A8
100
AcDbEntity
8
3.1-holdposition
6
ByLayer
62
256
370
-1
100
AcDbLine
10
3289.11938592
20
274
11
3289.11938592
21
273
0
LINE
5
3A9
100
AcDbEntity
8
3.1-holdposition
6
ByLayer
62
256
370
-1
100
AcDbLine
10
3289.11938592
20
273
11
3287.61938592
21
273
0
LINE
5
3AA
100
AcDbEntity
8
3.1-holdposition
6
ByLayer
62
256
370
-1
100
AcDbLine
10
3286.11938592
20
275
11
3289.11938592
21
275
0
LINE
5
3AB
100
AcDbEntity
8
3.1-holdposition
6
ByLayer
62
256
370
-1
100
AcDbLine
10
3289.11938592
20
275
11
3289.11938592
21
276
0
LINE
5
3AC
100
AcDbEntity
8
3.1-holdposition
6
ByLayer
62
256
370
-1
100
AcDbLine
10
3289.11938592
20
276
11
3286.11938592
21
276
0
LINE
5
3AD
100
AcDbEntity
8
3.1-holdposition
6
ByLayer
62
256
370
-1
100
AcDbLine
10
3286.11938592
20
276
11
3286.11938592
21
275
0
LINE
5
3AE
100
AcDbEntity
8
3.1-holdposition
6
ByLayer
62
256
370
-1
100
AcDbLine
10
3292.11938592
20
276
11
3295.11938592
21
276
0
LINE
5
3AF
100
AcDbEntity
8
3.1-holdposition
6
ByLayer
62
256
370
-1
100
AcDbLine
10
3295.11938592
20
276
11
3295.11938592
21
275
0
LINE
5
3B0
100
AcDbEntity
8
3.1-holdposition
6
ByLayer
62
256
370
-1
100
AcDbLine
10
3295.11938592
20
275
11
3292.11938592
21
275
0
LINE
5
3B1
100
AcDbEntity
8
3.1-holdposition
6
ByLayer
62
256
370
-1
100
AcDbLine
10
3292.11938592
20
275
11
3292.11938592
21
276
0
LINE
5
3B2
100
AcDbEntity
8
3.1-holdposition
6
ByLayer
62
256
370
-1
100
AcDbLine
10
3295.11938592
20
274
11
3292.11938592
21
274
0
LINE
5
3B3
100
AcDbEntity
8
3.1-holdposition
6
ByLayer
62
256
370
-1
100
AcDbLine
10
3292.11938592
20
274
11
3292.11938592
21
273
0
LINE
5
3B4
100
AcDbEntity
8
3.1-holdposition
6
ByLayer
62
256
370
-1
100
AcDbLine
10
3292.11938592
20
273
11
3295.11938592
21
273
0
LINE
5
3B5
100
AcDbEntity
8
3.1-holdposition
6
ByLayer
62
256
370
-1
100
AcDbLine
10
3295.11938592
20
273
11
3295.11938592
21
274
0
LINE
5
3B6
100
AcDbEntity
8
3.1-holdposition
6
ByLayer
62
256
370
-1
100
AcDbLine
10
3299.61938592
20
273
11
3298.11938592
21
273
0
LINE
5
3B7
100
AcDbEntity
8
3.1-holdposition
6
ByLayer
62
256
370
-1
100
AcDbLine
10
3298.11938592
20
273
11
3298.11938592
21
274
0
LINE
5
3B8
100
AcDbEntity
8
3.1-holdposition
6
ByLayer
62
256
370
-1
100
AcDbLine
10
3298.11938592
20
274
11
3301.11938592
21
274
0
LINE
5
3B9
100
AcDbEntity
8
3.1-holdposition
6
ByLayer
62
256
370
-1
100
AcDbLine
10
3301.11938592
20
274
11
3301.11938592
21
273
0
LINE
5
3BA
100
AcDbEntity
8
3.1-holdposition
6
ByLayer
62
256
370
-1
100
AcDbLine
10
3301.11938592
20
273
11
3299.61938592
21
273
0
LINE
5
3BB
100
AcDbEntity
8
3.1-holdposition
6
ByLayer
62
256
370
-1
100
AcDbLine
10
3298.11938592
20
275
11
3301.11938592
21
275
0
LINE
5
3BC
100
AcDbEntity
8
3.1-holdposition
6
ByLayer
62
256
370
-1
100
AcDbLine
10
3301.11938592
20
275
11
3301.11938592
21
276
0
LINE
5
3BD
100
AcDbEntity
8
3.1-holdposition
6
ByLayer
62
256
370
-1
100
AcDbLine
10
3301.11938592
20
276
11
3298.11938592
21
276
0
LINE
5
3BE
100
AcDbEntity
8
3.1-holdposition
6
ByLayer
62
256
370
-1
100
AcDbLine
10
3298.11938592
20
276
11
3298.11938592
21
275
0
LINE
5
3BF
100
AcDbEntity
8
3.1-holdposition
6
ByLayer
62
256
370
-1
100
AcDbLine
10
3304.11938592
20
276
11
3307.11938592
21
276
0
LINE
5
3C0
100
AcDbEntity
8
3.1-holdposition
6
ByLayer
62
256
370
-1
100
AcDbLine
10
3307.11938592
20
276
11
3307.11938592
21
275
0
LINE
5
3C1
100
AcDbEntity
8
3.1-holdposition
6
ByLayer
62
256
370
-1
100
AcDbLine
10
3307.11938592
20
275
11
3304.11938592
21
275
0
LINE
5
3C2
100
AcDbEntity
8
3.1-holdposition
6
ByLayer
62
256
370
-1
100
AcDbLine
10
3304.11938592
20
275
11
3304.11938592
21
276
0
LINE
5
3C3
100
AcDbEntity
8
3.1-holdposition
6
ByLayer
62
256
370
-1
100
AcDbLine
10
3307.11938592
20
274
11
3304.11938592
21
274
0
LINE
5
3C4
100
AcDbEntity
8
3.1-holdposition
6
ByLayer
62
256
370
-1
100
AcDbLine
10
3304.11938592
20
274
11
3304.11938592
21
273
0
LINE
5
3C5
100
AcDbEntity
8
3.1-holdposition
6
ByLayer
62
256
370
-1
100
AcDbLine
10
3304.11938592
20
273
11
3307.11938592
21
273
0
LINE
5
3C6
100
AcDbEntity
8
3.1-holdposition
6
ByLayer
62
256
370
-1
100
AcDbLine
10
3307.11938592
20
273
11
3307.11938592
21
274
0
LINE
5
3C7
100
AcDbEntity
8
3.1-holdposition
6
ByLayer
62
256
370
-1
100
AcDbLine
10
3311.61938592
20
273
11
3310.11938592
21
273
0
LINE
5
3C8
100
AcDbEntity
8
3.1-holdposition
6
ByLayer
62
256
370
-1
100
AcDbLine
10
3310.11938592
20
273
11
3310.11938592
21
274
0
LINE
5
3C9
100
AcDbEntity
8
3.1-holdposition
6
ByLayer
62
256
370
-1
100
AcDbLine
10
3310.11938592
20
274
11
3313.11938592
21
274
0
LINE
5
3CA
100
AcDbEntity
8
3.1-holdposition
6
ByLayer
62
256
370
-1
100
AcDbLine
10
3313.11938592
20
274
11
3313.11938592
21
273
0
LINE
5
3CB
100
AcDbEntity
8
3.1-holdposition
6
ByLayer
62
256
370
-1
100
AcDbLine
10
3313.11938592
20
273
11
3311.61938592
21
273
0
LINE
5
3CC
100
AcDbEntity
8
3.1-holdposition
6
ByLayer
62
256
370
-1
100
AcDbLine
10
3310.11938592
20
275
11
3313.11938592
21
275
0
LINE
5
3CD
100
AcDbEntity
8
3.1-holdposition
6
ByLayer
62
256
370
-1
100
AcDbLine
10
3313.11938592
20
275
11
3313.11938592
21
276
0
LINE
5
3CE
100
AcDbEntity
8
3.1-holdposition
6
ByLayer
62
256
370
-1
100
AcDbLine
10
3313.11938592
20
276
11
3310.11938592
21
276
0
LINE
5
3CF
100
AcDbEntity
8
3.1-holdposition
6
ByLayer
62
256
370
-1
100
AcDbLine
10
3310.11938592
20
276
11
3310.11938592
21
275
0
LINE
5
3D0
100
AcDbEntity
8
3.1-holdposition
6
ByLayer
62
256
370
-1
100
AcDbLine
10
3316.11938592
20
276
11
3319.11938592
21
276
0
LINE
5
3D1
100
AcDbEntity
8
3.1-holdposition
6
ByLayer
62
256
370
-1
100
AcDbLine
10
3319.11938592
20
276
11
3319.11938592
21
275
0
LINE
5
3D2
100
AcDbEntity
8
3.1-holdposition
6
ByLayer
62
256
370
-1
100
AcDbLine
10
3319.11938592
20
275
11
3316.11938592
21
275
0
LINE
5
3D3
100
AcDbEntity
8
3.1-holdposition
6
ByLayer
62
256
370
-1
100
AcDbLine
10
3316.11938592
20
275
11
3316.11938592
21
276
0
LINE
5
3D4
100
AcDbEntity
8
3.1-holdposition
6
ByLayer
62
256
370
-1
100
AcDbLine
10
3319.11938592
20
274
11
3316.11938592
21
274
0
LINE
5
3D5
100
AcDbEntity
8
3.1-holdposition
6
ByLayer
62
256
370
-1
100
AcDbLine
10
3316.11938592
20
274
11
3316.11938592
21
273
0
LINE
5
3D6
100
AcDbEntity
8
3.1-holdposition
6
ByLayer
62
256
370
-1
100
AcDbLine
10
3316.11938592
20
273
11
3319.11938592
21
273
0
LINE
5
3D7
100
AcDbEntity
8
3.1-holdposition
6
ByLayer
62
256
370
-1
100
AcDbLine
10
3319.11938592
20
273
11
3319.11938592
21
274
0
LINE
5
3D8
100
AcDbEntity
8
3.1-holdposition
6
ByLayer
62
256
370
-1
100
AcDbLine
10
3323.61938592
20
273
11
3322.11938592
21
273
0
LINE
5
3D9
100
AcDbEntity
8
3.1-holdposition
6
ByLayer
62
256
370
-1
100
AcDbLine
10
3322.11938592
20
273
11
3322.11938592
21
274
0
LINE
5
3DA
100
AcDbEntity
8
3.1-holdposition
6
ByLayer
62
256
370
-1
100
AcDbLine
10
3322.11938592
20
274
11
3325.11938592
21
274
0
LINE
5
3DB
100
AcDbEntity
8
3.1-holdposition
6
ByLayer
62
256
370
-1
100
AcDbLine
10
3325.11938592
20
274
11
3325.11938592
21
273
0
LINE
5
3DC
100
AcDbEntity
8
3.1-holdposition
6
ByLayer
62
256
370
-1
100
AcDbLine
10
3325.11938592
20
273
11
3323.61938592
21
273
0
LINE
5
3DD
100
AcDbEntity
8
3.1-holdposition
6
ByLayer
62
256
370
-1
100
AcDbLine
10
3322.11938592
20
275
11
3325.11938592
21
275
0
LINE
5
3DE
100
AcDbEntity
8
3.1-holdposition
6
ByLayer
62
256
370
-1
100
AcDbLine
10
3325.11938592
20
275
11
3325.11938592
21
276
0
LINE
5
3DF
100
AcDbEntity
8
3.1-holdposition
6
ByLayer
62
256
370
-1
100
AcDbLine
10
3325.11938592
20
276
11
3322.11938592
21
276
0
LINE
5
3E0
100
AcDbEntity
8
3.1-holdposition
6
ByLayer
62
256
370
-1
100
AcDbLine
10
3322.11938592
20
276
11
3322.11938592
21
275
0
LINE
5
3E1
100
AcDbEntity
8
3.1-holdposition
6
ByLayer
62
256
370
-1
100
AcDbLine
10
3328.11938592
20
276
11
3331.11938592
21
276
0
LINE
5
3E2
100
AcDbEntity
8
3.1-holdposition
6
ByLayer
62
256
370
-1
100
AcDbLine
10
3331.11938592
20
276
11
3331.11938592
21
275
0
LINE
5
3E3
100
AcDbEntity
8
3.1-holdposition
6
ByLayer
62
256
370
-1
100
AcDbLine
10
3331.11938592
20
275
11
3328.11938592
21
275
0
LINE
5
3E4
100
AcDbEntity
8
3.1-holdposition
6
ByLayer
62
256
370
-1
100
AcDbLine
10
3328.11938592
20
275
11
3328.11938592
21
276
0
LINE
5
3E5
100
AcDbEntity
8
3.1-holdposition
6
ByLayer
62
256
370
-1
100
AcDbLine
10
3331.11938592
20
274
11
3328.11938592
21
274
0
LINE
5
3E6
100
AcDbEntity
8
3.1-holdposition
6
ByLayer
62
256
370
-1
100
AcDbLine
10
3328.11938592
20
274
11
3328.11938592
21
273
0
LINE
5
3E7
100
AcDbEntity
8
3.1-holdposition
6
ByLayer
62
256
370
-1
100
AcDbLine
10
3328.11938592
20
273
11
3331.11938592
21
273
0
LINE
5
3E8
100
AcDbEntity
8
3.1-holdposition
6
ByLayer
62
256
370
-1
100
AcDbLine
10
3331.11938592
20
273
11
3331.11938592
21
274
0
LINE
5
3E9
100
AcDbEntity
8
3.1-holdposition
6
ByLayer
62
256
370
-1
100
AcDbLine
10
3335.61938592
20
273
11
3334.11938592
21
273
0
LINE
5
3EA
100
AcDbEntity
8
3.1-holdposition
6
ByLayer
62
256
370
-1
100
AcDbLine
10
3334.11938592
20
273
11
3334.11938592
21
274
0
LINE
5
3EB
100
AcDbEntity
8
3.1-holdposition
6
ByLayer
62
256
370
-1
100
AcDbLine
10
3334.11938592
20
274
11
3337.11938592
21
274
0
LINE
5
3EC
100
AcDbEntity
8
3.1-holdposition
6
ByLayer
62
256
370
-1
100
AcDbLine
10
3337.11938592
20
274
11
3337.11938592
21
273
0
LINE
5
3ED
100
AcDbEntity
8
3.1-holdposition
6
ByLayer
62
256
370
-1
100
AcDbLine
10
3337.11938592
20
273
11
3335.61938592
21
273
0
LINE
5
3EE
100
AcDbEntity
8
3.1-holdposition
6
ByLayer
62
256
370
-1
100
AcDbLine
10
3334.11938592
20
275
11
3337.11938592
21
275
0
LINE
5
3EF
100
AcDbEntity
8
3.1-holdposition
6
ByLayer
62
256
370
-1
100
AcDbLine
10
3337.11938592
20
275
11
3337.11938592
21
276
0
LINE
5
3F0
100
AcDbEntity
8
3.1-holdposition
6
ByLayer
62
256
370
-1
100
AcDbLine
10
3337.11938592
20
276
11
3334.11938592
21
276
0
LINE
5
3F1
100
AcDbEntity
8
3.1-holdposition
6
ByLayer
62
256
370
-1
100
AcDbLine
10
3334.11938592
20
276
11
3334.11938592
21
275
0
LINE
5
3F2
100
AcDbEntity
8
3.1-holdposition
6
ByLayer
62
256
370
-1
100
AcDbLine
10
3340.11938592
20
276
11
3343.11938592
21
276
0
LINE
5
3F3
100
AcDbEntity
8
3.1-holdposition
6
ByLayer
62
256
370
-1
100
AcDbLine
10
3343.11938592
20
276
11
3343.11938592
21
275
0
LINE
5
3F4
100
AcDbEntity
8
3.1-holdposition
6
ByLayer
62
256
370
-1
100
AcDbLine
10
3343.11938592
20
275
11
3340.11938592
21
275
0
LINE
5
3F5
100
AcDbEntity
8
3.1-holdposition
6
ByLayer
62
256
370
-1
100
AcDbLine
10
3340.11938592
20
275
11
3340.11938592
21
276
0
LINE
5
3F6
100
AcDbEntity
8
3.1-holdposition
6
ByLayer
62
256
370
-1
100
AcDbLine
10
3343.11938592
20
274
11
3340.11938592
21
274
0
LINE
5
3F7
100
AcDbEntity
8
3.1-holdposition
6
ByLayer
62
256
370
-1
100
AcDbLine
10
3340.11938592
20
274
11
3340.11938592
21
273
0
LINE
5
3F8
100
AcDbEntity
8
3.1-holdposition
6
ByLayer
62
256
370
-1
100
AcDbLine
10
3340.11938592
20
273
11
3343.11938592
21
273
0
LINE
5
3F9
100
AcDbEntity
8
3.1-holdposition
6
ByLayer
62
256
370
-1
100
AcDbLine
10
3343.11938592
20
273
11
3343.11938592
21
274
0
LINE
5
3FA
100
AcDbEntity
8
3.1-holdposition
6
ByLayer
62
256
370
-1
100
AcDbLine
10
3347.61938592
20
273
11
3346.11938592
21
273
0
LINE
5
3FB
100
AcDbEntity
8
3.1-holdposition
6
ByLayer
62
256
370
-1
100
AcDbLine
10
3346.11938592
20
273
11
3346.11938592
21
274
0
LINE
5
3FC
100
AcDbEntity
8
3.1-holdposition
6
ByLayer
62
256
370
-1
100
AcDbLine
10
3346.11938592
20
274
11
3349.11938592
21
274
0
LINE
5
3FD
100
AcDbEntity
8
3.1-holdposition
6
ByLayer
62
256
370
-1
100
AcDbLine
10
3349.11938592
20
274
11
3349.11938592
21
273
0
LINE
5
3FE
100
AcDbEntity
8
3.1-holdposition
6
ByLayer
62
256
370
-1
100
AcDbLine
10
3349.11938592
20
273
11
3347.61938592
21
273
0
LINE
5
3FF
100
AcDbEntity
8
3.1-holdposition
6
ByLayer
62
256
370
-1
100
AcDbLine
10
3346.11938592
20
275
11
3349.11938592
21
275
0
LINE
5
400
100
AcDbEntity
8
3.1-holdposition
6
ByLayer
62
256
370
-1
100
AcDbLine
10
3349.11938592
20
275
11
3349.11938592
21
276
0
LINE
5
401
100
AcDbEntity
8
3.1-holdposition
6
ByLayer
62
256
370
-1
100
AcDbLine
10
3349.11938592
20
276
11
3346.11938592
21
276
0
LINE
5
402
100
AcDbEntity
8
3.1-holdposition
6
ByLayer
62
256
370
-1
100
AcDbLine
10
3346.11938592
20
276
11
3346.11938592
21
275
0
LINE
5
403
100
AcDbEntity
8
3.1-holdposition
6
ByLayer
62
256
370
-1
100
AcDbLine
10
3352.11938592
20
276
11
3355.11938592
21
276
0
LINE
5
404
100
AcDbEntity
8
3.1-holdposition
6
ByLayer
62
256
370
-1
100
AcDbLine
10
3355.11938592
20
276
11
3355.11938592
21
275
0
LINE
5
405
100
AcDbEntity
8
3.1-holdposition
6
ByLayer
62
256
370
-1
100
AcDbLine
10
3355.11938592
20
275
11
3352.11938592
21
275
0
LINE
5
406
100
AcDbEntity
8
3.1-holdposition
6
ByLayer
62
256
370
-1
100
AcDbLine
10
3352.11938592
20
275
11
3352.11938592
21
276
0
LINE
5
407
100
AcDbEntity
8
3.1-holdposition
6
ByLayer
62
256
370
-1
100
AcDbLine
10
3355.11938592
20
274
11
3352.11938592
21
274
0
LINE
5
408
100
AcDbEntity
8
3.1-holdposition
6
ByLayer
62
256
370
-1
100
AcDbLine
10
3352.11938592
20
274
11
3352.11938592
21
273
0
LINE
5
409
100
AcDbEntity
8
3.1-holdposition
6
ByLayer
62
256
370
-1
100
AcDbLine
10
3352.11938592
20
273
11
3355.11938592
21
273
0
LINE
5
40A
100
AcDbEntity
8
3.1-holdposition
6
ByLayer
62
256
370
-1
100
AcDbLine
10
3355.11938592
20
273
11
3355.11938592
21
274
0
LINE
5
40B
100
AcDbEntity
8
3.1-holdposition
6
ByLayer
62
256
370
-1
100
AcDbLine
10
3359.61938592
20
273
11
3358.11938592
21
273
0
LINE
5
40C
100
AcDbEntity
8
3.1-holdposition
6
ByLayer
62
256
370
-1
100
AcDbLine
10
3358.11938592
20
273
11
3358.11938592
21
274
0
LINE
5
40D
100
AcDbEntity
8
3.1-holdposition
6
ByLayer
62
256
370
-1
100
AcDbLine
10
3358.11938592
20
274
11
3361.11938592
21
274
0
LINE
5
40E
100
AcDbEntity
8
3.1-holdposition
6
ByLayer
62
256
370
-1
100
AcDbLine
10
3361.11938592
20
274
11
3361.11938592
21
273
0
LINE
5
40F
100
AcDbEntity
8
3.1-holdposition
6
ByLayer
62
256
370
-1
100
AcDbLine
10
3361.11938592
20
273
11
3359.61938592
21
273
0
LINE
5
410
100
AcDbEntity
8
3.1-holdposition
6
ByLayer
62
256
370
-1
100
AcDbLine
10
3358.11938592
20
275
11
3361.11938592
21
275
0
LINE
5
411
100
AcDbEntity
8
3.1-holdposition
6
ByLayer
62
256
370
-1
100
AcDbLine
10
3361.11938592
20
275
11
3361.11938592
21
276
0
LINE
5
412
100
AcDbEntity
8
3.1-holdposition
6
ByLayer
62
256
370
-1
100
AcDbLine
10
3361.11938592
20
276
11
3358.11938592
21
276
0
LINE
5
413
100
AcDbEntity
8
3.1-holdposition
6
ByLayer
62
256
370
-1
100
AcDbLine
10
3358.11938592
20
276
11
3358.11938592
21
275
0
LINE
5
414
100
AcDbEntity
8
3.1-holdposition
6
ByLayer
62
256
370
-1
100
AcDbLine
10
3364.11938592
20
276
11
3367.11938592
21
276
0
LINE
5
415
100
AcDbEntity
8
3.1-holdposition
6
ByLayer
62
256
370
-1
100
AcDbLine
10
3367.11938592
20
276
11
3367.11938592
21
275
0
LINE
5
416
100
AcDbEntity
8
3.1-holdposition
6
ByLayer
62
256
370
-1
100
AcDbLine
10
3367.11938592
20
275
11
3364.11938592
21
275
0
LINE
5
417
100
AcDbEntity
8
3.1-holdposition
6
ByLayer
62
256
370
-1
100
AcDbLine
10
3364.11938592
20
275
11
3364.11938592
21
276
0
LINE
5
418
100
AcDbEntity
8
3.1-holdposition
6
ByLayer
62
256
370
-1
100
AcDbLine
10
3367.11938592
20
274
11
3364.11938592
21
274
0
LINE
5
419
100
AcDbEntity
8
3.1-holdposition
6
ByLayer
62
256
370
-1
100
AcDbLine
10
3364.11938592
20
274
11
3364.11938592
21
273
0
LINE
5
41A
100
AcDbEntity
8
3.1-holdposition
6
ByLayer
62
256
370
-1
100
AcDbLine
10
3364.11938592
20
273
11
3367.11938592
21
273
0
LINE
5
41B
100
AcDbEntity
8
3.1-holdposition
6
ByLayer
62
256
370
-1
100
AcDbLine
10
3367.11938592
20
273
11
3367.11938592
21
274
0
LINE
5
41C
100
AcDbEntity
8
3.1-holdposition
6
ByLayer
62
256
370
-1
100
AcDbLine
10
3370.11938592
20
273
11
3370.11938592
21
274
0
LINE
5
41D
100
AcDbEntity
8
3.1-holdposition
6
ByLayer
62
256
370
-1
100
AcDbLine
10
3370.11938592
20
276
11
3370.11938592
21
275
0
LINE
5
41E
100
AcDbEntity
8
3.1-holdposition
6
ByLayer
62
256
370
-1
100
AcDbLine
10
3371.60976698
20
276
11
3371.60976698
21
275
0
LINE
5
41F
100
AcDbEntity
8
3.1-holdposition
6
ByLayer
62
256
370
-1
100
AcDbLine
10
3371.60976698
20
274
11
3371.61938592
21
273
0
LINE
5
420
100
AcDbEntity
8
3.1-holdposition
6
ByLayer
62
256
370
-1
100
AcDbLine
10
3371.60976698
20
276
11
3370.11938592
21
276
0
LINE
5
421
100
AcDbEntity
8
3.1-holdposition
6
ByLayer
62
256
370
-1
100
AcDbLine
10
3370.11938592
20
275
11
3371.60976698
21
275
0
LINE
5
422
100
AcDbEntity
8
3.1-holdposition
6
ByLayer
62
256
370
-1
100
AcDbLine
10
3370.11938592
20
274
11
3371.60976698
21
274
0
LINE
5
423
100
AcDbEntity
8
3.1-holdposition
6
ByLayer
62
256
370
-1
100
AcDbLine
10
3371.60976698
20
273
11
3370.11938592
21
273
0
LINE
5
424
100
AcDbEntity
8
3.1-holdposition
6
ByLayer
62
256
370
-1
100
AcDbLine
10
3139.11938592
20
276
11
3139.11938592
21
275
0
LINE
5
425
100
AcDbEntity
8
3.1-holdposition
6
ByLayer
62
256
370
-1
100
AcDbLine
10
3139.11938592
20
273
11
3139.11938592
21
274
0
LINE
5
426
100
AcDbEntity
8
3.1-holdposition
6
ByLayer
62
256
370
-1
100
AcDbLine
10
3143.61938592
20
273
11
3142.11938592
21
273
0
LINE
5
427
100
AcDbEntity
8
3.1-holdposition
6
ByLayer
62
256
370
-1
100
AcDbLine
10
3142.11938592
20
273
11
3142.11938592
21
274
0
LINE
5
428
100
AcDbEntity
8
3.1-holdposition
6
ByLayer
62
256
370
-1
100
AcDbLine
10
3142.11938592
20
274
11
3145.11938592
21
274
0
LINE
5
429
100
AcDbEntity
8
3.1-holdposition
6
ByLayer
62
256
370
-1
100
AcDbLine
10
3145.11938592
20
274
11
3145.11938592
21
273
0
LINE
5
42A
100
AcDbEntity
8
3.1-holdposition
6
ByLayer
62
256
370
-1
100
AcDbLine
10
3145.11938592
20
273
11
3143.61938592
21
273
0
LINE
5
42B
100
AcDbEntity
8
3.1-holdposition
6
ByLayer
62
256
370
-1
100
AcDbLine
10
3142.11938592
20
275
11
3145.11938592
21
275
0
LINE
5
42C
100
AcDbEntity
8
3.1-holdposition
6
ByLayer
62
256
370
-1
100
AcDbLine
10
3145.11938592
20
275
11
3145.11938592
21
276
0
LINE
5
42D
100
AcDbEntity
8
3.1-holdposition
6
ByLayer
62
256
370
-1
100
AcDbLine
10
3145.11938592
20
276
11
3142.11938592
21
276
0
LINE
5
42E
100
AcDbEntity
8
3.1-holdposition
6
ByLayer
62
256
370
-1
100
AcDbLine
10
3142.11938592
20
276
11
3142.11938592
21
275
0
LINE
5
42F
100
AcDbEntity
8
3.1-holdposition
6
ByLayer
62
256
370
-1
100
AcDbLine
10
3148.11938592
20
276
11
3151.11938592
21
276
0
LINE
5
430
100
AcDbEntity
8
3.1-holdposition
6
ByLayer
62
256
370
-1
100
AcDbLine
10
3151.11938592
20
276
11
3151.11938592
21
275
0
LINE
5
431
100
AcDbEntity
8
3.1-holdposition
6
ByLayer
62
256
370
-1
100
AcDbLine
10
3151.11938592
20
275
11
3148.11938592
21
275
0
LINE
5
432
100
AcDbEntity
8
3.1-holdposition
6
ByLayer
62
256
370
-1
100
AcDbLine
10
3148.11938592
20
275
11
3148.11938592
21
276
0
LINE
5
433
100
AcDbEntity
8
3.1-holdposition
6
ByLayer
62
256
370
-1
100
AcDbLine
10
3151.11938592
20
274
11
3148.11938592
21
274
0
LINE
5
434
100
AcDbEntity
8
3.1-holdposition
6
ByLayer
62
256
370
-1
100
AcDbLine
10
3148.11938592
20
274
11
3148.11938592
21
273
0
LINE
5
435
100
AcDbEntity
8
3.1-holdposition
6
ByLayer
62
256
370
-1
100
AcDbLine
10
3148.11938592
20
273
11
3151.11938592
21
273
0
LINE
5
436
100
AcDbEntity
8
3.1-holdposition
6
ByLayer
62
256
370
-1
100
AcDbLine
10
3151.11938592
20
273
11
3151.11938592
21
274
0
LINE
5
437
100
AcDbEntity
8
3.1-holdposition
6
ByLayer
62
256
370
-1
100
AcDbLine
10
3155.61938592
20
273
11
3154.11938592
21
273
0
LINE
5
438
100
AcDbEntity
8
3.1-holdposition
6
ByLayer
62
256
370
-1
100
AcDbLine
10
3154.11938592
20
273
11
3154.11938592
21
274
0
LINE
5
439
100
AcDbEntity
8
3.1-holdposition
6
ByLayer
62
256
370
-1
100
AcDbLine
10
3154.11938592
20
274
11
3157.11938592
21
274
0
LINE
5
43A
100
AcDbEntity
8
3.1-holdposition
6
ByLayer
62
256
370
-1
100
AcDbLine
10
3157.11938592
20
274
11
3157.11938592
21
273
0
LINE
5
43B
100
AcDbEntity
8
3.1-holdposition
6
ByLayer
62
256
370
-1
100
AcDbLine
10
3157.11938592
20
273
11
3155.61938592
21
273
0
LINE
5
43C
100
AcDbEntity
8
3.1-holdposition
6
ByLayer
62
256
370
-1
100
AcDbLine
10
3154.11938592
20
275
11
3157.11938592
21
275
0
LINE
5
43D
100
AcDbEntity
8
3.1-holdposition
6
ByLayer
62
256
370
-1
100
AcDbLine
10
3157.11938592
20
275
11
3157.11938592
21
276
0
LINE
5
43E
100
AcDbEntity
8
3.1-holdposition
6
ByLayer
62
256
370
-1
100
AcDbLine
10
3157.11938592
20
276
11
3154.11938592
21
276
0
LINE
5
43F
100
AcDbEntity
8
3.1-holdposition
6
ByLayer
62
256
370
-1
100
AcDbLine
10
3154.11938592
20
276
11
3154.11938592
21
275
0
LINE
5
440
100
AcDbEntity
8
3.1-holdposition
6
ByLayer
62
256
370
-1
100
AcDbLine
10
3160.11938592
20
276
11
3163.11938592
21
276
0
LINE
5
441
100
AcDbEntity
8
3.1-holdposition
6
ByLayer
62
256
370
-1
100
AcDbLine
10
3163.11938592
20
276
11
3163.11938592
21
275
0
LINE
5
442
100
AcDbEntity
8
3.1-holdposition
6
ByLayer
62
256
370
-1
100
AcDbLine
10
3163.11938592
20
275
11
3160.11938592
21
275
0
LINE
5
443
100
AcDbEntity
8
3.1-holdposition
6
ByLayer
62
256
370
-1
100
AcDbLine
10
3160.11938592
20
275
11
3160.11938592
21
276
0
LINE
5
444
100
AcDbEntity
8
3.1-holdposition
6
ByLayer
62
256
370
-1
100
AcDbLine
10
3163.11938592
20
274
11
3160.11938592
21
274
0
LINE
5
445
100
AcDbEntity
8
3.1-holdposition
6
ByLayer
62
256
370
-1
100
AcDbLine
10
3160.11938592
20
274
11
3160.11938592
21
273
0
LINE
5
446
100
AcDbEntity
8
3.1-holdposition
6
ByLayer
62
256
370
-1
100
AcDbLine
10
3160.11938592
20
273
11
3163.11938592
21
273
0
LINE
5
447
100
AcDbEntity
8
3.1-holdposition
6
ByLayer
62
256
370
-1
100
AcDbLine
10
3163.11938592
20
273
11
3163.11938592
21
274
0
LINE
5
448
100
AcDbEntity
8
3.1-holdposition
6
ByLayer
62
256
370
-1
100
AcDbLine
10
3167.61938592
20
273
11
3166.11938592
21
273
0
LINE
5
449
100
AcDbEntity
8
3.1-holdposition
6
ByLayer
62
256
370
-1
100
AcDbLine
10
3166.11938592
20
273
11
3166.11938592
21
274
0
LINE
5
44A
100
AcDbEntity
8
3.1-holdposition
6
ByLayer
62
256
370
-1
100
AcDbLine
10
3166.11938592
20
274
11
3169.11938592
21
274
0
LINE
5
44B
100
AcDbEntity
8
3.1-holdposition
6
ByLayer
62
256
370
-1
100
AcDbLine
10
3169.11938592
20
274
11
3169.11938592
21
273
0
LINE
5
44C
100
AcDbEntity
8
3.1-holdposition
6
ByLayer
62
256
370
-1
100
AcDbLine
10
3169.11938592
20
273
11
3167.61938592
21
273
0
LINE
5
44D
100
AcDbEntity
8
3.1-holdposition
6
ByLayer
62
256
370
-1
100
AcDbLine
10
3166.11938592
20
275
11
3169.11938592
21
275
0
LINE
5
44E
100
AcDbEntity
8
3.1-holdposition
6
ByLayer
62
256
370
-1
100
AcDbLine
10
3169.11938592
20
275
11
3169.11938592
21
276
0
LINE
5
44F
100
AcDbEntity
8
3.1-holdposition
6
ByLayer
62
256
370
-1
100
AcDbLine
10
3169.11938592
20
276
11
3166.11938592
21
276
0
LINE
5
450
100
AcDbEntity
8
3.1-holdposition
6
ByLayer
62
256
370
-1
100
AcDbLine
10
3166.11938592
20
276
11
3166.11938592
21
275
0
LINE
5
451
100
AcDbEntity
8
3.1-holdposition
6
ByLayer
62
256
370
-1
100
AcDbLine
10
3172.11938592
20
276
11
3175.11938592
21
276
0
LINE
5
452
100
AcDbEntity
8
3.1-holdposition
6
ByLayer
62
256
370
-1
100
AcDbLine
10
3175.11938592
20
276
11
3175.11938592
21
275
0
LINE
5
453
100
AcDbEntity
8
3.1-holdposition
6
ByLayer
62
256
370
-1
100
AcDbLine
10
3175.11938592
20
275
11
3172.11938592
21
275
0
LINE
5
454
100
AcDbEntity
8
3.1-holdposition
6
ByLayer
62
256
370
-1
100
AcDbLine
10
3172.11938592
20
275
11
3172.11938592
21
276
0
LINE
5
455
100
AcDbEntity
8
3.1-holdposition
6
ByLayer
62
256
370
-1
100
AcDbLine
10
3175.11938592
20
274
11
3172.11938592
21
274
0
LINE
5
456
100
AcDbEntity
8
3.1-holdposition
6
ByLayer
62
256
370
-1
100
AcDbLine
10
3172.11938592
20
274
11
3172.11938592
21
273
0
LINE
5
457
100
AcDbEntity
8
3.1-holdposition
6
ByLayer
62
256
370
-1
100
AcDbLine
10
3172.11938592
20
273
11
3175.11938592
21
273
0
LINE
5
458
100
AcDbEntity
8
3.1-holdposition
6
ByLayer
62
256
370
-1
100
AcDbLine
10
3175.11938592
20
273
11
3175.11938592
21
274
0
LINE
5
459
100
AcDbEntity
8
3.1-holdposition
6
ByLayer
62
256
370
-1
100
AcDbLine
10
3179.61938592
20
273
11
3178.11938592
21
273
0
LINE
5
45A
100
AcDbEntity
8
3.1-holdposition
6
ByLayer
62
256
370
-1
100
AcDbLine
10
3178.11938592
20
273
11
3178.11938592
21
274
0
LINE
5
45B
100
AcDbEntity
8
3.1-holdposition
6
ByLayer
62
256
370
-1
100
AcDbLine
10
3178.11938592
20
274
11
3181.11938592
21
274
0
LINE
5
45C
100
AcDbEntity
8
3.1-holdposition
6
ByLayer
62
256
370
-1
100
AcDbLine
10
3181.11938592
20
274
11
3181.11938592
21
273
0
LINE
5
45D
100
AcDbEntity
8
3.1-holdposition
6
ByLayer
62
256
370
-1
100
AcDbLine
10
3181.11938592
20
273
11
3179.61938592
21
273
0
LINE
5
45E
100
AcDbEntity
8
3.1-holdposition
6
ByLayer
62
256
370
-1
100
AcDbLine
10
3178.11938592
20
275
11
3181.11938592
21
275
0
LINE
5
45F
100
AcDbEntity
8
3.1-holdposition
6
ByLayer
62
256
370
-1
100
AcDbLine
10
3181.11938592
20
275
11
3181.11938592
21
276
0
LINE
5
460
100
AcDbEntity
8
3.1-holdposition
6
ByLayer
62
256
370
-1
100
AcDbLine
10
3181.11938592
20
276
11
3178.11938592
21
276
0
LINE
5
461
100
AcDbEntity
8
3.1-holdposition
6
ByLayer
62
256
370
-1
100
AcDbLine
10
3178.11938592
20
276
11
3178.11938592
21
275
0
LINE
5
462
100
AcDbEntity
8
3.1-holdposition
6
ByLayer
62
256
370
-1
100
AcDbLine
10
3184.11938592
20
276
11
3187.11938592
21
276
0
LINE
5
463
100
AcDbEntity
8
3.1-holdposition
6
ByLayer
62
256
370
-1
100
AcDbLine
10
3187.11938592
20
276
11
3187.11938592
21
275
0
LINE
5
464
100
AcDbEntity
8
3.1-holdposition
6
ByLayer
62
256
370
-1
100
AcDbLine
10
3187.11938592
20
275
11
3184.11938592
21
275
0
LINE
5
465
100
AcDbEntity
8
3.1-holdposition
6
ByLayer
62
256
370
-1
100
AcDbLine
10
3184.11938592
20
275
11
3184.11938592
21
276
0
LINE
5
466
100
AcDbEntity
8
3.1-holdposition
6
ByLayer
62
256
370
-1
100
AcDbLine
10
3187.11938592
20
274
11
3184.11938592
21
274
0
LINE
5
467
100
AcDbEntity
8
3.1-holdposition
6
ByLayer
62
256
370
-1
100
AcDbLine
10
3184.11938592
20
274
11
3184.11938592
21
273
0
LINE
5
468
100
AcDbEntity
8
3.1-holdposition
6
ByLayer
62
256
370
-1
100
AcDbLine
10
3184.11938592
20
273
11
3187.11938592
21
273
0
LINE
5
469
100
AcDbEntity
8
3.1-holdposition
6
ByLayer
62
256
370
-1
100
AcDbLine
10
3187.11938592
20
273
11
3187.11938592
21
274
0
LINE
5
46A
100
AcDbEntity
8
3.1-holdposition
6
ByLayer
62
256
370
-1
100
AcDbLine
10
3191.61938592
20
273
11
3190.11938592
21
273
0
LINE
5
46B
100
AcDbEntity
8
3.1-holdposition
6
ByLayer
62
256
370
-1
100
AcDbLine
10
3190.11938592
20
273
11
3190.11938592
21
274
0
LINE
5
46C
100
AcDbEntity
8
3.1-holdposition
6
ByLayer
62
256
370
-1
100
AcDbLine
10
3190.11938592
20
274
11
3193.11938592
21
274
0
LINE
5
46D
100
AcDbEntity
8
3.1-holdposition
6
ByLayer
62
256
370
-1
100
AcDbLine
10
3193.11938592
20
274
11
3193.11938592
21
273
0
LINE
5
46E
100
AcDbEntity
8
3.1-holdposition
6
ByLayer
62
256
370
-1
100
AcDbLine
10
3193.11938592
20
273
11
3191.61938592
21
273
0
LINE
5
46F
100
AcDbEntity
8
3.1-holdposition
6
ByLayer
62
256
370
-1
100
AcDbLine
10
3190.11938592
20
275
11
3193.11938592
21
275
0
LINE
5
470
100
AcDbEntity
8
3.1-holdposition
6
ByLayer
62
256
370
-1
100
AcDbLine
10
3193.11938592
20
275
11
3193.11938592
21
276
0
LINE
5
471
100
AcDbEntity
8
3.1-holdposition
6
ByLayer
62
256
370
-1
100
AcDbLine
10
3193.11938592
20
276
11
3190.11938592
21
276
0
LINE
5
472
100
AcDbEntity
8
3.1-holdposition
6
ByLayer
62
256
370
-1
100
AcDbLine
10
3190.11938592
20
276
11
3190.11938592
21
275
0
LINE
5
473
100
AcDbEntity
8
3.1-holdposition
6
ByLayer
62
256
370
-1
100
AcDbLine
10
3196.11938592
20
276
11
3199.11938592
21
276
0
LINE
5
474
100
AcDbEntity
8
3.1-holdposition
6
ByLayer
62
256
370
-1
100
AcDbLine
10
3199.11938592
20
276
11
3199.11938592
21
275
0
LINE
5
475
100
AcDbEntity
8
3.1-holdposition
6
ByLayer
62
256
370
-1
100
AcDbLine
10
3199.11938592
20
275
11
3196.11938592
21
275
0
LINE
5
476
100
AcDbEntity
8
3.1-holdposition
6
ByLayer
62
256
370
-1
100
AcDbLine
10
3196.11938592
20
275
11
3196.11938592
21
276
0
LINE
5
477
100
AcDbEntity
8
3.1-holdposition
6
ByLayer
62
256
370
-1
100
AcDbLine
10
3199.11938592
20
274
11
3196.11938592
21
274
0
LINE
5
478
100
AcDbEntity
8
3.1-holdposition
6
ByLayer
62
256
370
-1
100
AcDbLine
10
3196.11938592
20
274
11
3196.11938592
21
273
0
LINE
5
479
100
AcDbEntity
8
3.1-holdposition
6
ByLayer
62
256
370
-1
100
AcDbLine
10
3196.11938592
20
273
11
3199.11938592
21
273
0
LINE
5
47A
100
AcDbEntity
8
3.1-holdposition
6
ByLayer
62
256
370
-1
100
AcDbLine
10
3199.11938592
20
273
11
3199.11938592
21
274
0
LINE
5
47B
100
AcDbEntity
8
3.1-holdposition
6
ByLayer
62
256
370
-1
100
AcDbLine
10
3203.61938592
20
273
11
3202.11938592
21
273
0
LINE
5
47C
100
AcDbEntity
8
3.1-holdposition
6
ByLayer
62
256
370
-1
100
AcDbLine
10
3202.11938592
20
273
11
3202.11938592
21
274
0
LINE
5
47D
100
AcDbEntity
8
3.1-holdposition
6
ByLayer
62
256
370
-1
100
AcDbLine
10
3202.11938592
20
274
11
3205.11938592
21
274
0
LINE
5
47E
100
AcDbEntity
8
3.1-holdposition
6
ByLayer
62
256
370
-1
100
AcDbLine
10
3205.11938592
20
274
11
3205.11938592
21
273
0
LINE
5
47F
100
AcDbEntity
8
3.1-holdposition
6
ByLayer
62
256
370
-1
100
AcDbLine
10
3205.11938592
20
273
11
3203.61938592
21
273
0
LINE
5
480
100
AcDbEntity
8
3.1-holdposition
6
ByLayer
62
256
370
-1
100
AcDbLine
10
3202.11938592
20
275
11
3205.11938592
21
275
0
LINE
5
481
100
AcDbEntity
8
3.1-holdposition
6
ByLayer
62
256
370
-1
100
AcDbLine
10
3205.11938592
20
275
11
3205.11938592
21
276
0
LINE
5
482
100
AcDbEntity
8
3.1-holdposition
6
ByLayer
62
256
370
-1
100
AcDbLine
10
3205.11938592
20
276
11
3202.11938592
21
276
0
LINE
5
483
100
AcDbEntity
8
3.1-holdposition
6
ByLayer
62
256
370
-1
100
AcDbLine
10
3202.11938592
20
276
11
3202.11938592
21
275
0
LINE
5
484
100
AcDbEntity
8
3.1-holdposition
6
ByLayer
62
256
370
-1
100
AcDbLine
10
3208.11938592
20
276
11
3211.11938592
21
276
0
LINE
5
485
100
AcDbEntity
8
3.1-holdposition
6
ByLayer
62
256
370
-1
100
AcDbLine
10
3211.11938592
20
276
11
3211.11938592
21
275
0
LINE
5
486
100
AcDbEntity
8
3.1-holdposition
6
ByLayer
62
256
370
-1
100
AcDbLine
10
3211.11938592
20
275
11
3208.11938592
21
275
0
LINE
5
487
100
AcDbEntity
8
3.1-holdposition
6
ByLayer
62
256
370
-1
100
AcDbLine
10
3208.11938592
20
275
11
3208.11938592
21
276
0
LINE
5
488
100
AcDbEntity
8
3.1-holdposition
6
ByLayer
62
256
370
-1
100
AcDbLine
10
3211.11938592
20
274
11
3208.11938592
21
274
0
LINE
5
489
100
AcDbEntity
8
3.1-holdposition
6
ByLayer
62
256
370
-1
100
AcDbLine
10
3208.11938592
20
274
11
3208.11938592
21
273
0
LINE
5
48A
100
AcDbEntity
8
3.1-holdposition
6
ByLayer
62
256
370
-1
100
AcDbLine
10
3208.11938592
20
273
11
3211.11938592
21
273
0
LINE
5
48B
100
AcDbEntity
8
3.1-holdposition
6
ByLayer
62
256
370
-1
100
AcDbLine
10
3211.11938592
20
273
11
3211.11938592
21
274
0
LINE
5
48C
100
AcDbEntity
8
3.1-holdposition
6
ByLayer
62
256
370
-1
100
AcDbLine
10
3215.61938592
20
273
11
3214.11938592
21
273
0
LINE
5
48D
100
AcDbEntity
8
3.1-holdposition
6
ByLayer
62
256
370
-1
100
AcDbLine
10
3214.11938592
20
273
11
3214.11938592
21
274
0
LINE
5
48E
100
AcDbEntity
8
3.1-holdposition
6
ByLayer
62
256
370
-1
100
AcDbLine
10
3214.11938592
20
274
11
3217.11938592
21
274
0
LINE
5
48F
100
AcDbEntity
8
3.1-holdposition
6
ByLayer
62
256
370
-1
100
AcDbLine
10
3217.11938592
20
274
11
3217.11938592
21
273
0
LINE
5
490
100
AcDbEntity
8
3.1-holdposition
6
ByLayer
62
256
370
-1
100
AcDbLine
10
3217.11938592
20
273
11
3215.61938592
21
273
0
LINE
5
491
100
AcDbEntity
8
3.1-holdposition
6
ByLayer
62
256
370
-1
100
AcDbLine
10
3214.11938592
20
275
11
3217.11938592
21
275
0
LINE
5
492
100
AcDbEntity
8
3.1-holdposition
6
ByLayer
62
256
370
-1
100
AcDbLine
10
3217.11938592
20
275
11
3217.11938592
21
276
0
LINE
5
493
100
AcDbEntity
8
3.1-holdposition
6
ByLayer
62
256
370
-1
100
AcDbLine
10
3217.11938592
20
276
11
3214.11938592
21
276
0
LINE
5
494
100
AcDbEntity
8
3.1-holdposition
6
ByLayer
62
256
370
-1
100
AcDbLine
10
3214.11938592
20
276
11
3214.11938592
21
275
0
LINE
5
495
100
AcDbEntity
8
3.1-holdposition
6
ByLayer
62
256
370
-1
100
AcDbLine
10
3220.11938592
20
276
11
3223.11938592
21
276
0
LINE
5
496
100
AcDbEntity
8
3.1-holdposition
6
ByLayer
62
256
370
-1
100
AcDbLine
10
3223.11938592
20
276
11
3223.11938592
21
275
0
LINE
5
497
100
AcDbEntity
8
3.1-holdposition
6
ByLayer
62
256
370
-1
100
AcDbLine
10
3223.11938592
20
275
11
3220.11938592
21
275
0
LINE
5
498
100
AcDbEntity
8
3.1-holdposition
6
ByLayer
62
256
370
-1
100
AcDbLine
10
3220.11938592
20
275
11
3220.11938592
21
276
0
LINE
5
499
100
AcDbEntity
8
3.1-holdposition
6
ByLayer
62
256
370
-1
100
AcDbLine
10
3223.11938592
20
274
11
3220.11938592
21
274
0
LINE
5
49A
100
AcDbEntity
8
3.1-holdposition
6
ByLayer
62
256
370
-1
100
AcDbLine
10
3220.11938592
20
274
11
3220.11938592
21
273
0
LINE
5
49B
100
AcDbEntity
8
3.1-holdposition
6
ByLayer
62
256
370
-1
100
AcDbLine
10
3220.11938592
20
273
11
3223.11938592
21
273
0
LINE
5
49C
100
AcDbEntity
8
3.1-holdposition
6
ByLayer
62
256
370
-1
100
AcDbLine
10
3223.11938592
20
273
11
3223.11938592
21
274
0
LINE
5
49D
100
AcDbEntity
8
3.1-holdposition
6
ByLayer
62
256
370
-1
100
AcDbLine
10
3227.61938592
20
273
11
3226.11938592
21
273
0
LINE
5
49E
100
AcDbEntity
8
3.1-holdposition
6
ByLayer
62
256
370
-1
100
AcDbLine
10
3226.11938592
20
273
11
3226.11938592
21
274
0
LINE
5
49F
100
AcDbEntity
8
3.1-holdposition
6
ByLayer
62
256
370
-1
100
AcDbLine
10
3226.11938592
20
274
11
3229.11938592
21
274
0
LINE
5
4A0
100
AcDbEntity
8
3.1-holdposition
6
ByLayer
62
256
370
-1
100
AcDbLine
10
3229.11938592
20
274
11
3229.11938592
21
273
0
LINE
5
4A1
100
AcDbEntity
8
3.1-holdposition
6
ByLayer
62
256
370
-1
100
AcDbLine
10
3229.11938592
20
273
11
3227.61938592
21
273
0
LINE
5
4A2
100
AcDbEntity
8
3.1-holdposition
6
ByLayer
62
256
370
-1
100
AcDbLine
10
3226.11938592
20
275
11
3229.11938592
21
275
0
LINE
5
4A3
100
AcDbEntity
8
3.1-holdposition
6
ByLayer
62
256
370
-1
100
AcDbLine
10
3229.11938592
20
275
11
3229.11938592
21
276
0
LINE
5
4A4
100
AcDbEntity
8
3.1-holdposition
6
ByLayer
62
256
370
-1
100
AcDbLine
10
3229.11938592
20
276
11
3226.11938592
21
276
0
LINE
5
4A5
100
AcDbEntity
8
3.1-holdposition
6
ByLayer
62
256
370
-1
100
AcDbLine
10
3226.11938592
20
276
11
3226.11938592
21
275
0
LINE
5
4A6
100
AcDbEntity
8
3.1-holdposition
6
ByLayer
62
256
370
-1
100
AcDbLine
10
3232.11938592
20
276
11
3235.11938592
21
276
0
LINE
5
4A7
100
AcDbEntity
8
3.1-holdposition
6
ByLayer
62
256
370
-1
100
AcDbLine
10
3235.11938592
20
276
11
3235.11938592
21
275
0
LINE
5
4A8
100
AcDbEntity
8
3.1-holdposition
6
ByLayer
62
256
370
-1
100
AcDbLine
10
3235.11938592
20
275
11
3232.11938592
21
275
0
LINE
5
4A9
100
AcDbEntity
8
3.1-holdposition
6
ByLayer
62
256
370
-1
100
AcDbLine
10
3232.11938592
20
275
11
3232.11938592
21
276
0
LINE
5
4AA
100
AcDbEntity
8
3.1-holdposition
6
ByLayer
62
256
370
-1
100
AcDbLine
10
3235.11938592
20
274
11
3232.11938592
21
274
0
LINE
5
4AB
100
AcDbEntity
8
3.1-holdposition
6
ByLayer
62
256
370
-1
100
AcDbLine
10
3232.11938592
20
274
11
3232.11938592
21
273
0
LINE
5
4AC
100
AcDbEntity
8
3.1-holdposition
6
ByLayer
62
256
370
-1
100
AcDbLine
10
3232.11938592
20
273
11
3235.11938592
21
273
0
LINE
5
4AD
100
AcDbEntity
8
3.1-holdposition
6
ByLayer
62
256
370
-1
100
AcDbLine
10
3235.11938592
20
273
11
3235.11938592
21
274
0
LINE
5
4AE
100
AcDbEntity
8
3.1-holdposition
6
ByLayer
62
256
370
-1
100
AcDbLine
10
3239.61938592
20
273
11
3238.11938592
21
273
0
LINE
5
4AF
100
AcDbEntity
8
3.1-holdposition
6
ByLayer
62
256
370
-1
100
AcDbLine
10
3238.11938592
20
273
11
3238.11938592
21
274
0
LINE
5
4B0
100
AcDbEntity
8
3.1-holdposition
6
ByLayer
62
256
370
-1
100
AcDbLine
10
3238.11938592
20
274
11
3241.11938592
21
274
0
LINE
5
4B1
100
AcDbEntity
8
3.1-holdposition
6
ByLayer
62
256
370
-1
100
AcDbLine
10
3241.11938592
20
274
11
3241.11938592
21
273
0
LINE
5
4B2
100
AcDbEntity
8
3.1-holdposition
6
ByLayer
62
256
370
-1
100
AcDbLine
10
3241.11938592
20
273
11
3239.61938592
21
273
0
LINE
5
4B3
100
AcDbEntity
8
3.1-holdposition
6
ByLayer
62
256
370
-1
100
AcDbLine
10
3238.11938592
20
275
11
3241.11938592
21
275
0
LINE
5
4B4
100
AcDbEntity
8
3.1-holdposition
6
ByLayer
62
256
370
-1
100
AcDbLine
10
3241.11938592
20
275
11
3241.11938592
21
276
0
LINE
5
4B5
100
AcDbEntity
8
3.1-holdposition
6
ByLayer
62
256
370
-1
100
AcDbLine
10
3241.11938592
20
276
11
3238.11938592
21
276
0
LINE
5
4B6
100
AcDbEntity
8
3.1-holdposition
6
ByLayer
62
256
370
-1
100
AcDbLine
10
3238.11938592
20
276
11
3238.11938592
21
275
0
LINE
5
4B7
100
AcDbEntity
8
3.1-holdposition
6
ByLayer
62
256
370
-1
100
AcDbLine
10
3244.11938592
20
276
11
3247.11938592
21
276
0
LINE
5
4B8
100
AcDbEntity
8
3.1-holdposition
6
ByLayer
62
256
370
-1
100
AcDbLine
10
3247.11938592
20
276
11
3247.11938592
21
275
0
LINE
5
4B9
100
AcDbEntity
8
3.1-holdposition
6
ByLayer
62
256
370
-1
100
AcDbLine
10
3247.11938592
20
275
11
3244.11938592
21
275
0
LINE
5
4BA
100
AcDbEntity
8
3.1-holdposition
6
ByLayer
62
256
370
-1
100
AcDbLine
10
3244.11938592
20
275
11
3244.11938592
21
276
0
LINE
5
4BB
100
AcDbEntity
8
3.1-holdposition
6
ByLayer
62
256
370
-1
100
AcDbLine
10
3247.11938592
20
274
11
3244.11938592
21
274
0
LINE
5
4BC
100
AcDbEntity
8
3.1-holdposition
6
ByLayer
62
256
370
-1
100
AcDbLine
10
3244.11938592
20
274
11
3244.11938592
21
273
0
LINE
5
4BD
100
AcDbEntity
8
3.1-holdposition
6
ByLayer
62
256
370
-1
100
AcDbLine
10
3244.11938592
20
273
11
3247.11938592
21
273
0
LINE
5
4BE
100
AcDbEntity
8
3.1-holdposition
6
ByLayer
62
256
370
-1
100
AcDbLine
10
3247.11938592
20
273
11
3247.11938592
21
274
0
LINE
5
4BF
100
AcDbEntity
8
3.1-holdposition
6
ByLayer
62
256
370
-1
100
AcDbLine
10
3137.43734095
20
276
11
3137.43734095
21
275
0
LINE
5
4C0
100
AcDbEntity
8
3.1-holdposition
6
ByLayer
62
256
370
-1
100
AcDbLine
10
3137.43734095
20
274
11
3137.43734095
21
273
0
LINE
5
4C1
100
AcDbEntity
8
3.1-holdposition
6
ByLayer
62
256
370
-1
100
AcDbLine
10
3137.43734095
20
276
11
3139.11938592
21
276
0
LINE
5
4C2
100
AcDbEntity
8
3.1-holdposition
6
ByLayer
62
256
370
-1
100
AcDbLine
10
3139.11938592
20
275
11
3137.43734095
21
275
0
LINE
5
4C3
100
AcDbEntity
8
3.1-holdposition
6
ByLayer
62
256
370
-1
100
AcDbLine
10
3139.11938592
20
274
11
3137.43734095
21
274
0
LINE
5
4C4
100
AcDbEntity
8
3.1-holdposition
6
ByLayer
62
256
370
-1
100
AcDbLine
10
3137.43734095
20
273
11
3139.11938592
21
273
0
LINE
5
4C5
100
AcDbEntity
8
99-Temp
6
ByLayer
62
256
370
-1
100
AcDbLine
10
4957.75
20
289.5
11
4960.25
21
289.5
0
LINE
5
4C6
100
AcDbEntity
8
99-Temp
6
ByLayer
62
256
370
-1
100
AcDbLine
10
4957.75
20
292.5
11
4960.25
21
292.5
0
LINE
5
4C7
100
AcDbEntity
8
99-Temp
6
ByLayer
62
256
370
-1
100
AcDbLine
10
4957.75
20
301.5
11
4960.25
21
301.5
0
LINE
5
4C8
100
AcDbEntity
8
99-Temp
6
ByLayer
62
256
370
-1
100
AcDbLine
10
4957.75
20
304.5
11
4960.25
21
304.5
0
LINE
5
4C9
100
AcDbEntity
8
99-Temp
6
ByLayer
62
256
370
-1
100
AcDbLine
10
4957.75
20
313.5
11
4960.25
21
313.5
0
LINE
5
4CA
100
AcDbEntity
8
99-Temp
6
ByLayer
62
256
370
-1
100
AcDbLine
10
4957.75
20
316.5
11
4960.25
21
316.5
0
LINE
5
4CB
100
AcDbEntity
8
99-Temp
6
ByLayer
62
256
370
-1
100
AcDbLine
10
4957.75
20
328.5
11
4960.25
21
328.5
0
LINE
5
4CC
100
AcDbEntity
8
99-Temp
6
ByLayer
62
256
370
-1
100
AcDbLine
10
4957.75
20
325.5
11
4960.25
21
325.5
0
LINE
5
4CD
100
AcDbEntity
8
99-Temp
6
ByLayer
62
256
370
-1
100
AcDbLine
10
4957.75
20
340.5
11
4960.25
21
340.5
0
LINE
5
4CE
100
AcDbEntity
8
99-Temp
6
ByLayer
62
256
370
-1
100
AcDbLine
10
4957.75
20
337.5
11
4960.25
21
337.5
0
LINE
5
4CF
100
AcDbEntity
8
99-Temp
6
ByLayer
62
256
370
-1
100
AcDbLine
10
4957.75
20
349.5
11
4960.25
21
349.5
0
LINE
5
4D0
100
AcDbEntity
8
99-Temp
6
ByLayer
62
256
370
-1
100
AcDbLine
10
4957.75
20
352.5
11
4960.25
21
352.5
0
LINE
5
4D1
100
AcDbEntity
8
99-Temp
6
ByLayer
62
256
370
-1
100
AcDbLine
10
4957.75
20
361.5
11
4960.25
21
361.5
0
LINE
5
4D2
100
AcDbEntity
8
99-Temp
6
ByLayer
62
256
370
-1
100
AcDbLine
10
4957.75
20
364.5
11
4960.25
21
364.5
0
LINE
5
4D3
100
AcDbEntity
8
99-Temp
6
ByLayer
62
256
370
-1
100
AcDbLine
10
4957.75
20
373.5
11
4960.25
21
373.5
0
LINE
5
4D4
100
AcDbEntity
8
99-Temp
6
ByLayer
62
256
370
-1
100
AcDbLine
10
4957.75
20
376.5
11
4960.25
21
376.5
0
LINE
5
4D5
100
AcDbEntity
8
99-Temp
6
ByLayer
62
256
370
-1
100
AcDbLine
10
4957.75
20
385.5
11
4960.25
21
385.5
0
LINE
5
4D6
100
AcDbEntity
8
99-Temp
6
ByLayer
62
256
370
-1
100
AcDbLine
10
4957.75
20
388.5
11
4960.25
21
388.5
0
LINE
5
4D7
100
AcDbEntity
8
99-Temp
6
ByLayer
62
256
370
-1
100
AcDbLine
10
4957.75
20
397.5
11
4960.25
21
397.5
0
LINE
5
4D8
100
AcDbEntity
8
99-Temp
6
ByLayer
62
256
370
-1
100
AcDbLine
10
4957.75
20
400.5
11
4960.25
21
400.5
0
LINE
5
4D9
100
AcDbEntity
8
99-Temp
6
ByLayer
62
256
370
-1
100
AcDbLine
10
4957.75
20
409.5
11
4960.25
21
409.5
0
LINE
5
4DA
100
AcDbEntity
8
99-Temp
6
ByLayer
62
256
370
-1
100
AcDbLine
10
4957.75
20
412.5
11
4960.25
21
412.5
0
LINE
5
4DB
100
AcDbEntity
8
99-Temp
6
ByLayer
62
256
370
-1
100
AcDbLine
10
4957.75
20
421.5
11
4960.25
21
421.5
0
LINE
5
4DC
100
AcDbEntity
8
99-Temp
6
ByLayer
62
256
370
-1
100
AcDbLine
10
4957.75
20
424.5
11
4960.25
21
424.5
0
LINE
5
4DD
100
AcDbEntity
8
99-Temp
6
ByLayer
62
256
370
-1
100
AcDbLine
10
4957.75
20
430
11
4960.25
21
430
0
LINE
5
4DE
100
AcDbEntity
8
99-Temp
6
ByLayer
62
256
370
-1
100
AcDbLine
10
4957.75
20
280.5
11
4957.75
21
430
0
LINE
5
4DF
100
AcDbEntity
8
99-Temp
6
ByLayer
62
256
370
-1
100
AcDbLine
10
4960.25
20
280.5
11
4960.25
21
430
0
LINE
5
4E0
100
AcDbEntity
8
3.0-outlines
6
ByLayer
62
256
370
-1
100
AcDbLine
10
4998.75
20
100
11
4998.75
21
851
0
ARC
5
4E1
100
AcDbEntity
8
3.0-outlines
6
ByLayer
62
256
370
-1
100
AcDbCircle
10
4810
20
851
40
188.75
100
AcDbArc
50
0
51
90
0
LINE
5
4E2
100
AcDbEntity
8
3.0-outlines
6
ByLayer
62
256
370
-1
100
AcDbLine
10
4810
20
1039.75
11
-4810
21
1039.75
0
LINE
5
4E3
100
AcDbEntity
8
3.2-taxiwayedge
6
ByLayer
62
256
370
-1
100
AcDbLine
10
4998.25
20
100
11
4998.25
21
851
0
LINE
5
4E4
100
AcDbEntity
8
3.2-taxiwayedge
6
ByLayer
62
256
370
-1
100
AcDbLine
10
4999.25
20
100
11
4999.25
21
851
0
ARC
5
4E5
100
AcDbEntity
8
3.2-taxiwayedge
6
ByLayer
62
256
370
-1
100
AcDbCircle
10
4810
20
851
40
189.25
100
AcDbArc
50
0
51
90
0
ARC
5
4E6
100
AcDbEntity
8
3.2-taxiwayedge
6
ByLayer
62
256
370
-1
100
AcDbCircle
10
4810
20
851
40
188.25
100
AcDbArc
50
0
51
90
0
LINE
5
4E7
100
AcDbEntity
8
3.2-taxiwayedge
6
ByLayer
62
256
370
-1
100
AcDbLine
10
4810
20
1040.25
11
-4810
21
1040.25
0
LINE
5
4E8
100
AcDbEntity
8
3.2-taxiwayedge
6
ByLayer
62
256
370
-1
100
AcDbLine
10
4810
20
1039.25
11
-4810
21
1039.25
0
LINE
5
4E9
100
AcDbEntity
8
3.0-outlines
6
ByLayer
62
256
370
-1
100
AcDbLine
10
4292
20
960.25
11
-4292
21
960.25
0
LINE
5
4EA
100
AcDbEntity
8
3.0-outlines
6
ByLayer
62
256
370
-1
100
AcDbLine
10
4292.04637893
20
960.249139301
11
4696.04637893
21
945.249139301
0
LINE
5
4EB
100
AcDbEntity
8
3.0-outlines
6
ByLayer
62
256
370
-1
100
AcDbLine
10
4696.38735276
20
945.188468695
11
4831.38735276
21
901.188468695
0
ARC
5
4EC
100
AcDbEntity
8
3.0-outlines
6
ByLayer
62
256
370
-1
100
AcDbCircle
10
4810.85765648
20
838.199627851
40
66.25
100
AcDbArc
50
359.999916544
51
71.9479246471
0
LINE
5
4ED
100
AcDbEntity
8
3.0-outlines
6
ByLayer
62
256
370
-1
100
AcDbLine
10
4877.10765648
20
838.199627851
11
4877.10765648
21
761.800372149
0
ARC
5
4EE
100
AcDbEntity
8
3.0-outlines
6
ByLayer
62
256
370
-1
100
AcDbCircle
10
4810.85765648
20
761.800372149
40
66.25
100
AcDbArc
50
288.052075353
51
360.000087685
0
LINE
5
4EF
100
AcDbEntity
8
3.0-outlines
6
ByLayer
62
256
370
-1
100
AcDbLine
10
4696.38735276
20
654.811531305
11
4831.38735276
21
698.811531305
0
LINE
5
4F0
100
AcDbEntity
8
3.0-outlines
6
ByLayer
62
256
370
-1
100
AcDbLine
10
4292.04637893
20
639.750860699
11
4696.04637893
21
654.750860699
0
LINE
5
4F1
100
AcDbEntity
8
3.0-outlines
6
ByLayer
62
256
370
-1
100
AcDbLine
10
-4292
20
639.75
11
4292
21
639.75
0
LINE
5
4F2
100
AcDbEntity
8
99-Temp
6
ByLayer
62
256
370
-1
100
AcDbLine
10
4877.10765648
20
838.199531352
11
4810.85765648
21
838.199627851
0
LINE
5
4F3
100
AcDbEntity
8
99-Temp
6
ByLayer
62
256
370
-1
100
AcDbLine
10
4810.85765648
20
838.199627851
11
4831.38735276
21
901.188468695
0
LINE
5
4F4
100
AcDbEntity
8
99-Temp
6
ByLayer
62
256
370
-1
100
AcDbLine
10
4877.10765648
20
761.800320404
11
4810.85765648
21
761.800372149
0
LINE
5
4F5
100
AcDbEntity
8
99-Temp
6
ByLayer
62
256
370
-1
100
AcDbLine
10
4810.85765648
20
761.800372149
11
4831.38729055
21
698.81151103
0
LINE
5
4F6
100
AcDbEntity
8
99-Temp
6
ByLayer
62
256
370
-1
100
AcDbLine
10
4810.85765648
20
838.199627851
11
4876.46385977
21
847.413128297
0
LINE
5
4F7
100
AcDbEntity
8
99-Temp
6
ByLayer
62
256
370
-1
100
AcDbLine
10
4810.85765648
20
838.199627851
11
4874.54495547
21
856.447653695
0
LINE
5
4F8
100
AcDbEntity
8
99-Temp
6
ByLayer
62
256
370
-1
100
AcDbLine
10
4810.85765648
20
838.199627851
11
4871.38823899
21
865.127514521
0
LINE
5
4F9
100
AcDbEntity
8
99-Temp
6
ByLayer
62
256
370
-1
100
AcDbLine
10
4810.85765648
20
838.199627851
11
4867.05506357
21
873.284010928
0
LINE
5
4FA
100
AcDbEntity
8
99-Temp
6
ByLayer
62
256
370
-1
100
AcDbLine
10
4810.85765648
20
838.199627851
11
4861.62964784
21
880.758615067
0
LINE
5
4FB
100
AcDbEntity
8
99-Temp
6
ByLayer
62
256
370
-1
100
AcDbLine
10
4810.85765648
20
838.199627851
11
4855.21743898
21
887.406052193
0
LINE
5
4FC
100
AcDbEntity
8
99-Temp
6
ByLayer
62
256
370
-1
100
AcDbLine
10
4810.85765648
20
838.199627851
11
4847.94306325
21
893.097124196
0
LINE
5
4FD
100
AcDbEntity
8
99-Temp
6
ByLayer
62
256
370
-1
100
AcDbLine
10
4810.85765648
20
838.199627851
11
4839.94790379
21
897.721220667
0
LINE
5
4FE
100
AcDbEntity
8
99-Temp
6
ByLayer
62
256
370
-1
100
AcDbLine
10
4810.85765648
20
761.800372149
11
4876.46384043
21
752.586734012
0
LINE
5
4FF
100
AcDbEntity
8
99-Temp
6
ByLayer
62
256
370
-1
100
AcDbLine
10
4810.85765648
20
761.800372149
11
4874.54491971
21
743.552221486
0
LINE
5
500
100
AcDbEntity
8
99-Temp
6
ByLayer
62
256
370
-1
100
AcDbLine
10
4810.85765648
20
761.800372149
11
4871.38818996
21
734.872375254
0
LINE
5
501
100
AcDbEntity
8
99-Temp
6
ByLayer
62
256
370
-1
100
AcDbLine
10
4810.85765648
20
761.800372149
11
4867.05500456
21
726.715894542
0
LINE
5
502
100
AcDbEntity
8
99-Temp
6
ByLayer
62
256
370
-1
100
AcDbLine
10
4810.85765648
20
761.800372149
11
4861.62958217
21
719.241306581
0
LINE
5
503
100
AcDbEntity
8
99-Temp
6
ByLayer
62
256
370
-1
100
AcDbLine
10
4810.85765648
20
761.800372149
11
4855.21736988
21
712.593885511
0
LINE
5
504
100
AcDbEntity
8
99-Temp
6
ByLayer
62
256
370
-1
100
AcDbLine
10
4810.85765648
20
761.800372149
11
4847.94299378
21
706.902828874
0
LINE
5
505
100
AcDbEntity
8
99-Temp
6
ByLayer
62
256
370
-1
100
AcDbLine
10
4810.85765648
20
761.800372149
11
4839.94783674
21
702.278746561
0
LINE
5
506
100
AcDbEntity
8
99-Temp
6
ByLayer
62
256
370
-1
100
AcDbLine
10
3951.97459622
20
600
11
3951.97459622
21
100
0
LINE
5
507
100
AcDbEntity
8
99-Temp
6
ByLayer
62
256
370
-1
100
AcDbLine
10
3951.97459622
20
100
11
3701.97452146
21
533.012658734
0
LINE
5
508
100
AcDbEntity
8
99-Temp
6
ByLayer
62
256
370
-1
100
AcDbLine
10
3951.97459622
20
100
11
3922.90217219
21
599.154078578
0
LINE
5
509
100
AcDbEntity
8
99-Temp
6
ByLayer
62
256
370
-1
100
AcDbLine
10
3951.97459622
20
100
11
3893.9281201
21
596.619176644
0
LINE
5
50A
100
AcDbEntity
8
99-Temp
6
ByLayer
62
256
370
-1
100
AcDbLine
10
3951.97459622
20
100
11
3865.15047905
21
592.403871509
0
LINE
5
50B
100
AcDbEntity
8
99-Temp
6
ByLayer
62
256
370
-1
100
AcDbLine
10
3951.97459622
20
100
11
3836.66662352
21
586.522426442
0
LINE
5
50C
100
AcDbEntity
8
99-Temp
6
ByLayer
62
256
370
-1
100
AcDbLine
10
3951.97459622
20
100
11
3808.57293392
21
578.994742403
0
LINE
5
50D
100
AcDbEntity
8
99-Temp
6
ByLayer
62
256
370
-1
100
AcDbLine
10
3951.97459622
20
100
11
3780.96447048
21
569.84629071
0
LINE
5
50E
100
AcDbEntity
8
99-Temp
6
ByLayer
62
256
370
-1
100
AcDbLine
10
3951.97459622
20
100
11
3753.93465155
21
559.108026847
0
LINE
5
50F
100
AcDbEntity
8
99-Temp
6
ByLayer
62
256
370
-1
100
AcDbLine
10
3951.97459622
20
100
11
3727.57493755
21
546.816285725
0
LINE
5
510
100
AcDbEntity
8
99-Temp
6
ByLayer
62
256
370
-1
100
AcDbLine
10
3261.14566536
20
278.5
11
3394.51357755
21
355.5
0
LINE
5
511
100
AcDbEntity
8
99-Temp
6
ByLayer
62
256
370
-1
100
AcDbLine
10
3265.60976698
20
278.767949192
11
3263.98476698
21
281.582531755
0
LINE
5
512
100
AcDbEntity
8
99-Temp
6
ByLayer
62
256
370
-1
100
AcDbLine
10
3260.52066536
20
279.582531755
11
3271.77899561
21
286.082531755
0
LINE
5
513
100
AcDbEntity
8
99-Temp
6
ByLayer
62
256
370
-1
100
AcDbLine
10
3274.37707183
20
287.582531755
11
3282.17130046
21
292.082531755
0
LINE
5
514
100
AcDbEntity
8
99-Temp
6
ByLayer
62
256
370
-1
100
AcDbLine
10
3284.76937667
20
293.582531755
11
3292.56360531
21
298.082531755
0
LINE
5
515
100
AcDbEntity
8
99-Temp
6
ByLayer
62
256
370
-1
100
AcDbLine
10
3295.16168152
20
299.582531754
11
3302.95591015
21
304.082531754
0
LINE
5
516
100
AcDbEntity
8
99-Temp
6
ByLayer
62
256
370
-1
100
AcDbLine
10
3305.55398636
20
305.582531754
11
3313.348215
21
310.082531754
0
LINE
5
517
100
AcDbEntity
8
99-Temp
6
ByLayer
62
256
370
-1
100
AcDbLine
10
3315.94629121
20
311.582531754
11
3323.74051984
21
316.082531754
0
LINE
5
518
100
AcDbEntity
8
99-Temp
6
ByLayer
62
256
370
-1
100
AcDbLine
10
3317.19629121
20
309.417468245
11
3324.99051984
21
313.917468245
0
LINE
5
519
100
AcDbEntity
8
99-Temp
6
ByLayer
62
256
370
-1
100
AcDbLine
10
3306.80398636
20
303.417468245
11
3314.598215
21
307.917468245
0
LINE
5
51A
100
AcDbEntity
8
99-Temp
6
ByLayer
62
256
370
-1
100
AcDbLine
10
3296.41168152
20
297.417468245
11
3304.20591015
21
301.917468245
0
LINE
5
51B
100
AcDbEntity
8
99-Temp
6
ByLayer
62
256
370
-1
100
AcDbLine
10
3286.01937667
20
291.417468245
11
3293.81360531
21
295.917468245
0
LINE
5
51C
100
AcDbEntity
8
99-Temp
6
ByLayer
62
256
370
-1
100
AcDbLine
10
3275.62707183
20
285.417468245
11
3283.42130046
21
289.917468245
0
LINE
5
51D
100
AcDbEntity
8
99-Temp
6
ByLayer
62
256
370
-1
100
AcDbLine
10
3261.77066536
20
277.417468245
11
3273.02899561
21
283.917468245
0
LINE
5
51E
100
AcDbEntity
8
99-Temp
6
ByLayer
62
256
370
-1
100
AcDbLine
10
3317.19629121
20
309.417468245
11
3315.94629121
21
311.582531754
0
LINE
5
51F
100
AcDbEntity
8
99-Temp
6
ByLayer
62
256
370
-1
100
AcDbLine
10
3324.99051984
20
313.917468245
11
3323.74051984
21
316.082531754
0
LINE
5
520
100
AcDbEntity
8
99-Temp
6
ByLayer
62
256
370
-1
100
AcDbLine
10
3314.598215
20
307.917468245
11
3313.348215
21
310.082531754
0
LINE
5
521
100
AcDbEntity
8
99-Temp
6
ByLayer
62
256
370
-1
100
AcDbLine
10
3306.80398636
20
303.417468245
11
3305.55398636
21
305.582531754
0
LINE
5
522
100
AcDbEntity
8
99-Temp
6
ByLayer
62
256
370
-1
100
AcDbLine
10
3304.20591015
20
301.917468245
11
3302.95591015
21
304.082531754
0
LINE
5
523
100
AcDbEntity
8
99-Temp
6
ByLayer
62
256
370
-1
100
AcDbLine
10
3296.41168152
20
297.417468245
11
3295.16168152
21
299.582531754
0
LINE
5
524
100
AcDbEntity
8
99-Temp
6
ByLayer
62
256
370
-1
100
AcDbLine
10
3293.81360531
20
295.917468245
11
3292.56360531
21
298.082531755
0
LINE
5
525
100
AcDbEntity
8
99-Temp
6
ByLayer
62
256
370
-1
100
AcDbLine
10
3286.01937667
20
291.417468245
11
3284.76937667
21
293.582531755
0
LINE
5
526
100
AcDbEntity
8
99-Temp
6
ByLayer
62
256
370
-1
100
AcDbLine
10
3283.42130046
20
289.917468245
11
3282.17130046
21
292.082531755
0
LINE
5
527
100
AcDbEntity
8
99-Temp
6
ByLayer
62
256
370
-1
100
AcDbLine
10
3275.62707183
20
285.417468245
11
3274.37707183
21
287.582531755
0
LINE
5
528
100
AcDbEntity
8
99-Temp
6
ByLayer
62
256
370
-1
100
AcDbLine
10
3273.02899561
20
283.917468245
11
3271.77899561
21
286.082531755
0
LINE
5
529
100
AcDbEntity
8
99-Temp
6
ByLayer
62
256
370
-1
100
AcDbLine
10
3327.58859605
20
315.417468245
11
3326.33859605
21
317.582531754
0
LINE
5
52A
100
AcDbEntity
8
99-Temp
6
ByLayer
62
256
370
-1
100
AcDbLine
10
3335.38282469
20
319.917468245
11
3334.13282469
21
322.082531754
0
LINE
5
52B
100
AcDbEntity
8
99-Temp
6
ByLayer
62
256
370
-1
100
AcDbLine
10
3358.76551059
20
333.417468245
11
3357.51551059
21
335.582531754
0
LINE
5
52C
100
AcDbEntity
8
99-Temp
6
ByLayer
62
256
370
-1
100
AcDbLine
10
3389.94242513
20
351.417468244
11
3388.69242513
21
353.582531754
0
LINE
5
52D
100
AcDbEntity
8
99-Temp
6
ByLayer
62
256
370
-1
100
AcDbLine
10
3387.34434891
20
349.917468244
11
3386.09434891
21
352.082531754
0
LINE
5
52E
100
AcDbEntity
8
99-Temp
6
ByLayer
62
256
370
-1
100
AcDbLine
10
3379.55012028
20
345.417468244
11
3378.30012028
21
347.582531754
0
LINE
5
52F
100
AcDbEntity
8
99-Temp
6
ByLayer
62
256
370
-1
100
AcDbLine
10
3376.95204407
20
343.917468244
11
3375.70204407
21
346.082531754
0
LINE
5
530
100
AcDbEntity
8
99-Temp
6
ByLayer
62
256
370
-1
100
AcDbLine
10
3369.15781543
20
339.417468244
11
3367.90781543
21
341.582531754
0
LINE
5
531
100
AcDbEntity
8
99-Temp
6
ByLayer
62
256
370
-1
100
AcDbLine
10
3366.55973922
20
337.917468244
11
3365.30973922
21
340.082531754
0
LINE
5
532
100
AcDbEntity
8
99-Temp
6
ByLayer
62
256
370
-1
100
AcDbLine
10
3348.37320574
20
327.417468245
11
3356.16743438
21
331.917468245
0
ARC
5
533
100
AcDbEntity
8
99-Temp
6
ByLayer
62
256
370
-1
100
AcDbCircle
10
3258.19237886
20
450
40
148.75
100
AcDbArc
50
306.419895511
51
309.857595511
0
LINE
5
534
100
AcDbEntity
8
99-Temp
6
ByLayer
62
256
370
-1
100
AcDbLine
10
3389.94242513
20
351.417468244
11
3395.13857755
21
354.417468245
0
LINE
5
535
100
AcDbEntity
8
99-Temp
6
ByLayer
62
256
370
-1
100
AcDbLine
10
3388.69242513
20
353.582531754
11
3393.88857755
21
356.582531755
0
LINE
5
536
100
AcDbEntity
8
99-Temp
6
ByLayer
62
256
370
-1
100
AcDbLine
10
3378.30012028
20
347.582531754
11
3386.09434891
21
352.082531754
0
LINE
5
537
100
AcDbEntity
8
99-Temp
6
ByLayer
62
256
370
-1
100
AcDbLine
10
3379.55012028
20
345.417468244
11
3387.34434891
21
349.917468244
0
LINE
5
538
100
AcDbEntity
8
99-Temp
6
ByLayer
62
256
370
-1
100
AcDbLine
10
3369.15781543
20
339.417468244
11
3376.95204407
21
343.917468244
0
LINE
5
539
100
AcDbEntity
8
99-Temp
6
ByLayer
62
256
370
-1
100
AcDbLine
10
3358.76551059
20
333.417468245
11
3366.55973922
21
337.917468244
0
LINE
5
53A
100
AcDbEntity
8
99-Temp
6
ByLayer
62
256
370
-1
100
AcDbLine
10
3357.51551059
20
335.582531754
11
3365.30973922
21
340.082531754
0
LINE
5
53B
100
AcDbEntity
8
99-Temp
6
ByLayer
62
256
370
-1
100
AcDbLine
10
3367.90781543
20
341.582531754
11
3375.70204407
21
346.082531754
0
ARC
5
53C
100
AcDbEntity
8
99-Temp
6
ByLayer
62
256
370
-1
100
AcDbCircle
10
3258.19237886
20
450
40
151.25
100
AcDbArc
50
324.754695511
51
327.046495511
0
ARC
5
53D
100
AcDbEntity
8
99-Temp
6
ByLayer
62
256
370
-1
100
AcDbCircle
10
3258.19237886
20
450
40
148.75
100
AcDbArc
50
324.754695511
51
327.046495511
0
ARC
5
53E
100
AcDbEntity
8
99-Temp
6
ByLayer
62
256
370
-1
100
AcDbCircle
10
3258.19237886
20
450
40
148.75
100
AcDbArc
50
320.170995511
51
323.608695511
0
ARC
5
53F
100
AcDbEntity
8
99-Temp
6
ByLayer
62
256
370
-1
100
AcDbCircle
10
3258.19237886
20
450
40
151.25
100
AcDbArc
50
320.170995511
51
323.608695511
0
ARC
5
540
100
AcDbEntity
8
99-Temp
6
ByLayer
62
256
370
-1
100
AcDbCircle
10
3258.19237886
20
450
40
151.25
100
AcDbArc
50
315.587295511
51
319.024995511
0
ARC
5
541
100
AcDbEntity
8
99-Temp
6
ByLayer
62
256
370
-1
100
AcDbCircle
10
3258.19237886
20
450
40
151.25
100
AcDbArc
50
311.003595511
51
314.441295511
0
ARC
5
542
100
AcDbEntity
8
99-Temp
6
ByLayer
62
256
370
-1
100
AcDbCircle
10
3258.19237886
20
450
40
148.75
100
AcDbArc
50
311.003595511
51
314.441295511
0
ARC
5
543
100
AcDbEntity
8
99-Temp
6
ByLayer
62
256
370
-1
100
AcDbCircle
10
3258.19237886
20
450
40
148.75
100
AcDbArc
50
315.587295511
51
319.024995511
0
ARC
5
544
100
AcDbEntity
8
99-Temp
6
ByLayer
62
256
370
-1
100
AcDbCircle
10
3258.19237886
20
450
40
148.75
100
AcDbArc
50
301.836195511
51
305.273895511
0
LINE
5
545
100
AcDbEntity
8
99-Temp
6
ByLayer
62
256
370
-1
100
AcDbLine
10
3334.13282469
20
322.082531754
11
3326.33859605
21
317.582531754
0
LINE
5
546
100
AcDbEntity
8
99-Temp
6
ByLayer
62
256
370
-1
100
AcDbLine
10
3337.9809009
20
321.417468245
11
3345.77512953
21
325.917468245
0
LINE
5
547
100
AcDbEntity
8
99-Temp
6
ByLayer
62
256
370
-1
100
AcDbLine
10
3327.58859605
20
315.417468245
11
3335.38282469
21
319.917468245
0
LINE
5
548
100
AcDbEntity
8
99-Temp
6
ByLayer
62
256
370
-1
100
AcDbLine
10
3345.77512953
20
325.917468245
11
3345.15012953
21
326.999999999
0
LINE
5
549
100
AcDbEntity
8
99-Temp
6
ByLayer
62
256
370
-1
100
AcDbLine
10
3337.9809009
20
321.417468245
11
3337.3559009
21
322.500000001
0
LINE
5
54A
100
AcDbEntity
8
99-Temp
6
ByLayer
62
256
370
-1
100
AcDbLine
10
3348.37320574
20
327.417468245
11
3347.74820574
21
328.499999999
0
LINE
5
54B
100
AcDbEntity
8
99-Temp
6
ByLayer
62
256
370
-1
100
AcDbLine
10
3356.16743438
20
331.917468245
11
3355.54243438
21
333.000000001
0
LINE
5
54C
100
AcDbEntity
8
99-Temp
6
ByLayer
62
256
370
-1
100
AcDbLine
10
3385.10810912
20
367.726310937
11
3258.19237886
21
450.000000001
0
LINE
5
54D
100
AcDbEntity
8
99-Temp
6
ByLayer
62
256
370
-1
100
AcDbLine
10
3258.19237886
20
450.000000001
11
3258.19237886
21
600
0
LINE
5
54E
100
AcDbEntity
8
99-Temp
6
ByLayer
62
256
370
-1
100
AcDbLine
10
3258.19237886
20
450.000000001
11
3394.40661551
21
387.185338238
0
LINE
5
54F
100
AcDbEntity
8
99-Temp
6
ByLayer
62
256
370
-1
100
AcDbLine
10
3258.19237886
20
450.000000001
11
3401.97086816
21
407.247853689
0
LINE
5
550
100
AcDbEntity
8
99-Temp
6
ByLayer
62
256
370
-1
100
AcDbLine
10
3258.19237886
20
450.000000001
11
3406.59742309
21
428.183885637
0
LINE
5
551
100
AcDbEntity
8
99-Temp
6
ByLayer
62
256
370
-1
100
AcDbLine
10
3258.19237886
20
450.000000001
11
3408.19175004
21
449.565666804
0
LINE
5
552
100
AcDbEntity
8
99-Temp
6
ByLayer
62
256
370
-1
100
AcDbLine
10
3258.19237886
20
450.000000001
11
3406.72127354
21
470.956322315
0
LINE
5
553
100
AcDbEntity
8
99-Temp
6
ByLayer
62
256
370
-1
100
AcDbLine
10
3258.19237886
20
450.000000001
11
3402.21603853
21
491.918795971
0
LINE
5
554
100
AcDbEntity
8
99-Temp
6
ByLayer
62
256
370
-1
100
AcDbLine
10
3258.19237886
20
450.000000001
11
3394.76809646
21
512.024780234
0
LINE
5
555
100
AcDbEntity
8
99-Temp
6
ByLayer
62
256
370
-1
100
AcDbLine
10
3258.19237886
20
450.000000001
11
3384.52962448
21
530.863467449
0
LINE
5
556
100
AcDbEntity
8
99-Temp
6
ByLayer
62
256
370
-1
100
AcDbLine
10
3258.19237886
20
450.000000001
11
3371.70981619
21
548.049943512
0
LINE
5
557
100
AcDbEntity
8
99-Temp
6
ByLayer
62
256
370
-1
100
AcDbLine
10
3258.19237886
20
450.000000001
11
3356.57060728
21
563.233052479
0
LINE
5
558
100
AcDbEntity
8
99-Temp
6
ByLayer
62
256
370
-1
100
AcDbLine
10
3258.19237886
20
450.000000001
11
3339.42132372
21
576.102571415
0
LINE
5
559
100
AcDbEntity
8
99-Temp
6
ByLayer
62
256
370
-1
100
AcDbLine
10
3258.19237886
20
450.000000001
11
3320.61236153
21
586.395548914
0
LINE
5
55A
100
AcDbEntity
8
99-Temp
6
ByLayer
62
256
370
-1
100
AcDbLine
10
3258.19237886
20
450.000000001
11
3300.52802748
21
593.90167774
0
LINE
5
55B
100
AcDbEntity
8
99-Temp
6
ByLayer
62
256
370
-1
100
AcDbLine
10
3258.19237886
20
450.000000001
11
3279.57868685
21
598.467591853
0
LINE
5
55C
100
AcDbEntity
8
99-Temp
6
ByLayer
62
256
370
-1
100
AcDbLine
10
3135.50598085
20
205.961894323
11
2385.50598085
21
1505
0
LINE
5
55D
100
AcDbEntity
8
99-Temp
6
ByLayer
62
256
370
-1
100
AcDbLine
10
2385.50598085
20
5
11
2385.50598085
21
1505
0
LINE
5
55E
100
AcDbEntity
8
99-Temp
6
ByLayer
62
256
370
-1
100
AcDbLine
10
2385.50598085
20
1505
11
2497.60112123
21
9.19430422823
0
LINE
5
55F
100
AcDbEntity
8
99-Temp
6
ByLayer
62
256
370
-1
100
AcDbLine
10
2385.50598085
20
1505
11
2609.06938011
21
21.7537606623
0
LINE
5
560
100
AcDbEntity
8
99-Temp
6
ByLayer
62
256
370
-1
100
AcDbLine
10
2385.50598085
20
1505
11
2719.28738178
21
42.6081317273
0
LINE
5
561
100
AcDbEntity
8
99-Temp
6
ByLayer
62
256
370
-1
100
AcDbLine
10
2385.50598085
20
1505
11
2827.63874247
21
71.6407913208
0
LINE
5
562
100
AcDbEntity
8
99-Temp
6
ByLayer
62
256
370
-1
100
AcDbLine
10
2385.50598085
20
1505
11
2933.5175174
21
108.689377034
0
LINE
5
563
100
AcDbEntity
8
99-Temp
6
ByLayer
62
256
370
-1
100
AcDbLine
10
2385.50598085
20
1505
11
3036.33158953
21
153.546698146
0
LINE
5
564
100
AcDbEntity
8
99-Temp
6
ByLayer
62
256
370
-1
100
AcDbLine
10
3253.11938592
20
270
11
3151.61938592
21
270
0
ENDSEC
0
SECTION
2
OBJECTS
0
DICTIONARY
5
C
330
0
100
AcDbDictionary
281
1
3
ACAD_GROUP
350
D
0
DICTIONARY
5
D
330
C
100
AcDbDictionary
281
1
0
ENDSEC
0
EOF
